<?xml version="1.0" encoding="UTF-8"?>
<svg version="1.1" xmlns="http://www.w3.org/2000/svg" width="640" height="640">
<path d="M0 0 C1.10956055 0.19835449 2.21912109 0.39670898 3.36230469 0.60107422 C53.52294237 9.79499687 101.34052066 32.06425904 141 64 C141.89203125 64.69996094 142.7840625 65.39992188 143.703125 66.12109375 C151.8786633 72.6352288 159.456816 79.77405271 167 87 C167.5269043 87.50354004 168.05380859 88.00708008 168.59667969 88.52587891 C174.40892226 94.11134874 179.74773755 99.89908408 184.765625 106.20703125 C187.05473871 109.06842339 189.42850025 111.84240157 191.8125 114.625 C225.08189914 154.63055259 246.87431481 204.95250351 256 256 C256.31106689 257.66047363 256.31106689 257.66047363 256.62841797 259.35449219 C263.05053947 294.90207698 262.62556087 333.52369872 256 369 C255.80696289 370.0936084 255.61392578 371.1872168 255.41503906 372.31396484 C250.04714933 402.02245805 239.72261303 431.1545385 226 458 C225.58041016 458.8254834 225.16082031 459.6509668 224.72851562 460.50146484 C206.83641306 495.22683781 180.26190401 529.05716786 150 554 C149.24541504 554.62527588 149.24541504 554.62527588 148.47558594 555.26318359 C105.55076649 590.6890888 54.90263639 615.18513718 0 625 C-1.66047363 625.31106689 -1.66047363 625.31106689 -3.35449219 625.62841797 C-38.90207698 632.05053947 -77.52369872 631.62556087 -113 625 C-114.0936084 624.80696289 -115.1872168 624.61392578 -116.31396484 624.41503906 C-146.02245805 619.04714933 -175.1545385 608.72261303 -202 595 C-202.8254834 594.58041016 -203.6509668 594.16082031 -204.50146484 593.72851562 C-222.0901502 584.66601938 -238.60298497 573.39842509 -254 561 C-255.33804688 559.95005859 -255.33804688 559.95005859 -256.703125 558.87890625 C-264.8786633 552.3647712 -272.456816 545.22594729 -280 538 C-280.5269043 537.49645996 -281.05380859 536.99291992 -281.59667969 536.47412109 C-287.40892226 530.88865126 -292.74773755 525.10091592 -297.765625 518.79296875 C-300.05473871 515.93157661 -302.42850025 513.15759843 -304.8125 510.375 C-338.08189914 470.36944741 -359.87431481 420.04749649 -369 369 C-369.20737793 367.89301758 -369.41475586 366.78603516 -369.62841797 365.64550781 C-376.04871466 330.1080237 -375.64392645 291.46524839 -369 256 C-368.80164551 254.89043945 -368.60329102 253.78087891 -368.39892578 252.63769531 C-355.71626665 183.44304429 -317.53295058 115.94780739 -263 71 C-262.49694336 70.58314941 -261.99388672 70.16629883 -261.47558594 69.73681641 C-245.59297087 56.62887505 -228.88516914 45.20646043 -211 35 C-209.86038818 34.34668701 -209.86038818 34.34668701 -208.69775391 33.68017578 C-179.17861097 16.94901632 -146.26591053 6.18792462 -113 0 C-111.88141602 -0.21172852 -110.76283203 -0.42345703 -109.61035156 -0.64160156 C-74.08569867 -7.05168334 -35.45022298 -6.64111164 0 0 Z " fill="#0070CD" transform="translate(377,7)"/>
<path d="M0 0 C94.38 0 188.76 0 286 0 C284.85144305 19.52546819 284.85144305 19.52546819 283.89599609 27.30932617 C283.73685368 28.65795352 283.73685368 28.65795352 283.57449627 30.03382587 C283.22878711 32.95411419 282.87613273 35.87351674 282.5234375 38.79296875 C282.27453925 40.88548169 282.02613313 42.97805322 281.77818298 45.07067871 C281.25374566 49.48978136 280.72643299 53.90852661 280.19668579 58.32699585 C278.94713273 68.75089133 277.71241895 79.17654956 276.47668648 89.60209084 C276.06743316 93.05383875 275.6576152 96.50551934 275.24778748 99.9571991 C273.20320248 117.19356958 271.23087416 134.43664998 269.3125 151.6875 C266.83014432 173.95470967 264.21852331 196.20491859 261.54848862 218.45029068 C261.25564748 220.8904414 260.96320245 223.33063936 260.67080688 225.77084351 C258.54189758 243.52658007 256.36515801 261.27384706 254 279 C252.69409912 278.92483154 252.69409912 278.92483154 251.36181641 278.84814453 C247.11632609 278.6050253 242.87071007 278.36424769 238.625 278.125 C237.83666779 278.08053741 237.04833557 278.03607483 236.2361145 277.99026489 C226.37416035 277.43653966 216.51127217 276.91817281 206.64453125 276.45703125 C205.23859711 276.39125885 205.23859711 276.39125885 203.80426025 276.32415771 C199.22922398 276.11119264 194.65403493 275.90226498 190.07861328 275.69775391 C181.69759347 275.31695164 173.34540051 274.8999362 165 274 C166.18608297 258.4038941 168.09194209 242.92624609 170.1472168 227.42553711 C171.23903548 219.16101457 172.26898708 210.89474364 173.15625 202.60546875 C173.24201294 201.81578201 173.32777588 201.02609528 173.4161377 200.21247864 C173.80734399 196.4601141 174.10142079 192.77369865 174 189 C173.13117188 189.88042969 172.26234375 190.76085937 171.3671875 191.66796875 C170.2032615 192.84128125 169.0391913 194.01445073 167.875 195.1875 C167.30523437 195.76564453 166.73546875 196.34378906 166.1484375 196.93945312 C162.58957955 200.51853186 159.00330002 203.91919955 155 207 C154.34 207 153.68 207 153 207 C153 207.66 153 208.32 153 209 C151.3623728 210.45402342 149.66265804 211.83848678 147.9375 213.1875 C143.77460622 216.50279428 139.95668045 219.88533966 136.33984375 223.78515625 C135 225 135 225 133 225 C133 225.66 133 226.32 133 227 C132.34 227 131.68 227 131 227 C131 227.66 131 228.32 131 229 C129.61474609 230.36621094 129.61474609 230.36621094 127.6484375 231.984375 C122.37002853 236.47416315 117.51184525 241.3416268 112.625 246.25 C111.72394531 247.1471875 110.82289063 248.044375 109.89453125 248.96875 C109.03472656 249.82984375 108.17492187 250.6909375 107.2890625 251.578125 C106.12431396 252.74456543 106.12431396 252.74456543 104.93603516 253.93457031 C102.85075768 256.04584862 102.85075768 256.04584862 101 259 C100.34 259 99.68 259 99 259 C98.59974609 259.89525391 98.59974609 259.89525391 98.19140625 260.80859375 C96.97513068 263.04574324 95.79642741 264.34420067 93.9375 266.0625 C88.34558599 271.47893554 83.54527518 277.63411698 78.85546875 283.8359375 C78.24316406 284.55007813 77.63085938 285.26421875 77 286 C76.34 286 75.68 286 75 286 C74.773125 286.53882813 74.54625 287.07765625 74.3125 287.6328125 C72.59599819 290.72864613 70.32719297 293.23351602 68 295.875 C57.62452246 307.90190199 48.71166079 321.11901058 41 335 C43.22585586 337.5155914 45.08249578 338.61691167 48.25390625 339.68359375 C49.09953125 339.96952393 49.94515625 340.2554541 50.81640625 340.55004883 C52.17572266 340.98933716 52.17572266 340.98933716 53.5625 341.4375 C54.49835938 341.74389404 55.43421875 342.05028809 56.3984375 342.3659668 C72.53784119 347.52691786 88.98138239 350.32974365 105.8125 352.0625 C106.58190918 352.14193848 107.35131836 352.22137695 108.14404297 352.30322266 C121.88882775 353.64521089 135.63241729 354.26856298 149.4375 354.3125 C150.27616608 354.31545074 151.11483215 354.31840149 151.97891235 354.32144165 C189.79194663 354.35060393 227.88799729 351.12274276 265.5300293 347.77612305 C266.23807205 347.71513428 266.94611481 347.65414551 267.6756134 347.59130859 C269.51838653 347.43192027 271.36054714 347.2654916 273.20263672 347.09838867 C276 347 276 347 279 348 C284.85039921 359.05343902 287.74167983 372.43056205 291.5 384.3125 C292.92005518 388.78182957 294.34287335 393.2502782 295.765625 397.71875 C296.12106384 398.8363118 296.47650269 399.9538736 296.8427124 401.1053009 C300.78175584 413.47992469 304.80362295 425.82729741 308.83789062 438.17114258 C311.64095943 446.75700778 314.38220308 455.35538109 317 464 C311.04138793 465.44393775 305.18168524 466.4430667 299.08203125 467.03515625 C298.26232346 467.11873886 297.44261566 467.20232147 296.59806824 467.28843689 C294.8747958 467.46312158 293.15126304 467.63525559 291.42749023 467.80493164 C288.83581647 468.0602034 286.24503705 468.32332848 283.65429688 468.58789062 C281.96358847 468.75827753 280.27283454 468.92821347 278.58203125 469.09765625 C277.82944534 469.17371597 277.07685944 469.2497757 276.3014679 469.32814026 C263.99825482 470.53358033 251.78922288 471.15350017 239.42578125 471.1328125 C237.96673059 471.13348938 236.50768004 471.13446256 235.04862976 471.13571167 C232.01068026 471.13717298 228.97276046 471.13508673 225.93481445 471.13037109 C222.10038957 471.12469962 218.26603446 471.12804157 214.43161201 471.13380814 C187.44296259 471.16836133 187.44296259 471.16836133 175.41796875 470.5546875 C174.65164627 470.51594513 173.88532379 470.47720276 173.09577942 470.43728638 C168.13379065 470.13379065 168.13379065 470.13379065 167 469 C164.91954725 468.83380999 162.83492723 468.71976942 160.75 468.625 C154.03734984 468.25031329 147.40799906 467.48856088 140.75 466.5625 C139.8331543 466.4402002 138.91630859 466.31790039 137.97167969 466.19189453 C136.67858887 466.00602783 136.67858887 466.00602783 135.359375 465.81640625 C134.59077148 465.70756104 133.82216797 465.59871582 133.03027344 465.48657227 C131 465 131 465 128 463 C126.07345069 463.00826845 124.14668477 463.02086942 122.22070312 463.06835938 C118.39888916 462.95071339 114.89340064 461.84132485 111.25 460.75 C110.07038696 460.40775391 110.07038696 460.40775391 108.86694336 460.05859375 C106.57340685 459.38660515 104.28594684 458.69731983 102 458 C100.29263672 457.48179687 100.29263672 457.48179687 98.55078125 456.953125 C91.77885317 454.79318977 85.37418173 452.13892324 79 449 C78.36932617 448.69465332 77.73865234 448.38930664 77.08886719 448.07470703 C54.2214022 436.91127554 37.1977524 421.35369839 26.08325195 398.27954102 C23.64064945 393.21315888 20.97194492 388.32317709 18.1875 383.4375 C13.78694033 375.66371564 9.91304025 367.6939265 6.11279297 359.61254883 C2.78549824 352.56246849 -0.75905656 345.66255463 -4.43701172 338.7902832 C-7.52750322 332.98373699 -10.35767009 327.08725476 -13.10888672 321.11376953 C-15.18271092 316.64250883 -17.42686263 312.31640677 -19.8125 308 C-33.3201396 283.32753681 -47.97254898 253.71068747 -40.94140625 224.91015625 C-35.50821415 206.48741981 -23.87886989 191.29892498 -11.515625 176.9453125 C-9.89220721 175.04460285 -8.31468004 173.10325154 -6.796875 171.1171875 C-6.20390625 170.41851562 -5.6109375 169.71984375 -5 169 C-4.34 169 -3.68 169 -3 169 C-2.731875 168.41734375 -2.46375 167.8346875 -2.1875 167.234375 C-0.98519009 164.97213399 0.33825913 163.19423682 2 161.25 C2.515625 160.63640625 3.03125 160.0228125 3.5625 159.390625 C5 158 5 158 7 158 C7.2475 157.42765625 7.495 156.8553125 7.75 156.265625 C9.19316199 153.64989389 10.88216222 151.85226544 13 149.75 C13.70125 149.04359375 14.4025 148.3371875 15.125 147.609375 C17 146 17 146 19 146 C19 145.34 19 144.68 19 144 C19.66 144 20.32 144 21 144 C21 143.34 21 142.68 21 142 C23.375 139.375 23.375 139.375 26 137 C26.66 137 27.32 137 28 137 C28.66 135.68 29.32 134.36 30 133 C30.66 133 31.32 133 32 133 C32 132.34 32 131.68 32 131 C33.46875 129.51953125 33.46875 129.51953125 35.5 127.8125 C39.17392932 124.70077339 42.7686304 121.51847245 46.3359375 118.28515625 C48 117 48 117 50 117 C50 116.34 50 115.68 50 115 C51.67535459 113.48015117 53.41705622 112.03293547 55.1875 110.625 C56.15042969 109.85414063 57.11335938 109.08328125 58.10546875 108.2890625 C59.06066406 107.53367187 60.01585937 106.77828125 61 106 C62.35544922 104.86691406 62.35544922 104.86691406 63.73828125 103.7109375 C66 102 66 102 68 102 C68 101.34 68 100.68 68 100 C69.97440927 98.5368217 71.93238871 97.19286936 74 95.875 C74.57234375 95.50246094 75.1446875 95.12992187 75.734375 94.74609375 C77.15221782 93.82449592 78.57560725 92.91144179 80 92 C66.23935837 92.44741182 52.50360159 93.06230863 38.7635498 93.92443848 C26.15158915 94.71552757 13.64355746 95.21429758 1 95 C-0.37558831 63.36146897 0 31.668421 0 0 Z " fill="#FEFEFE" transform="translate(176,94)"/>
<path d="M0 0 C0.99 0 1.98 0 3 0 C3.66 0.66 4.32 1.32 5 2 C8.08854958 3.3320782 11.30653096 4.32316942 14.5 5.375 C15.44037109 5.68590576 16.38074219 5.99681152 17.34960938 6.31713867 C33.49699638 11.53241846 49.95820784 14.32735784 66.8125 16.0625 C67.58190918 16.14193848 68.35131836 16.22137695 69.14404297 16.30322266 C82.88882775 17.64521089 96.63241729 18.26856298 110.4375 18.3125 C111.27616608 18.31545074 112.11483215 18.31840149 112.97891235 18.32144165 C150.79194663 18.35060393 188.88799729 15.12274276 226.5300293 11.77612305 C227.23807205 11.71513428 227.94611481 11.65414551 228.6756134 11.59130859 C230.51838653 11.43192027 232.36054714 11.2654916 234.20263672 11.09838867 C237 11 237 11 240 12 C245.85039921 23.05343902 248.74167983 36.43056205 252.5 48.3125 C253.92005518 52.78182957 255.34287335 57.2502782 256.765625 61.71875 C257.29878326 63.3950927 257.29878326 63.3950927 257.8427124 65.1053009 C261.78175584 77.47992469 265.80362295 89.82729741 269.83789062 102.17114258 C272.64095943 110.75700778 275.38220308 119.35538109 278 128 C272.04138793 129.44393775 266.18168524 130.4430667 260.08203125 131.03515625 C259.26232346 131.11873886 258.44261566 131.20232147 257.59806824 131.28843689 C255.8747958 131.46312158 254.15126304 131.63525559 252.42749023 131.80493164 C249.83581647 132.0602034 247.24503705 132.32332848 244.65429688 132.58789062 C242.96358847 132.75827753 241.27283454 132.92821347 239.58203125 133.09765625 C238.45315239 133.21174583 238.45315239 133.21174583 237.3014679 133.32814026 C224.99825482 134.53358033 212.78922288 135.15350017 200.42578125 135.1328125 C198.96673059 135.13348938 197.50768004 135.13446256 196.04862976 135.13571167 C193.01068026 135.13717298 189.97276046 135.13508673 186.93481445 135.13037109 C183.10038957 135.12469962 179.26603446 135.12804157 175.43161201 135.13380814 C148.44296259 135.16836133 148.44296259 135.16836133 136.41796875 134.5546875 C135.65164627 134.51594513 134.88532379 134.47720276 134.09577942 134.43728638 C129.13379065 134.13379065 129.13379065 134.13379065 128 133 C125.91954725 132.83380999 123.83492723 132.71976942 121.75 132.625 C115.03734984 132.25031329 108.40799906 131.48856088 101.75 130.5625 C100.8331543 130.4402002 99.91630859 130.31790039 98.97167969 130.19189453 C98.10961914 130.0679834 97.24755859 129.94407227 96.359375 129.81640625 C95.59077148 129.70756104 94.82216797 129.59871582 94.03027344 129.48657227 C92 129 92 129 89 127 C87.08809835 127.00829458 85.17598447 127.0211227 83.26464844 127.06835938 C79.2347673 126.9467157 75.48687688 125.83794225 71.625 124.75 C70.81933594 124.54503906 70.01367188 124.34007812 69.18359375 124.12890625 C68.41402344 123.91621094 67.64445312 123.70351563 66.8515625 123.484375 C65.81249756 123.20158691 65.81249756 123.20158691 64.75244141 122.91308594 C62.44709811 121.71191794 62.08578051 120.30414053 61 118 C58.22129708 116.91889864 58.22129708 116.91889864 54.875 116.25 C29.83400133 109.66296145 7.53700814 91.90856548 -5.8125 69.9375 C-13.27895141 56.70538337 -15.12655318 42.38121271 -11.4375 27.625 C-8.69018008 18.30971452 -5.40369801 8.10554701 0 0 Z " fill="#9CDFFE" transform="translate(215,430)"/>
<path d="M0 0 C1.10956055 0.19835449 2.21912109 0.39670898 3.36230469 0.60107422 C53.52294237 9.79499687 101.34052066 32.06425904 141 64 C141.89203125 64.69996094 142.7840625 65.39992188 143.703125 66.12109375 C151.8786633 72.6352288 159.456816 79.77405271 167 87 C167.5269043 87.50354004 168.05380859 88.00708008 168.59667969 88.52587891 C174.40892226 94.11134874 179.74773755 99.89908408 184.765625 106.20703125 C187.05473871 109.06842339 189.42850025 111.84240157 191.8125 114.625 C225.08189914 154.63055259 246.87431481 204.95250351 256 256 C256.31106689 257.66047363 256.31106689 257.66047363 256.62841797 259.35449219 C263.05053947 294.90207698 262.62556087 333.52369872 256 369 C255.80696289 370.0936084 255.61392578 371.1872168 255.41503906 372.31396484 C250.04714933 402.02245805 239.72261303 431.1545385 226 458 C225.58041016 458.8254834 225.16082031 459.6509668 224.72851562 460.50146484 C206.83641306 495.22683781 180.26190401 529.05716786 150 554 C149.24541504 554.62527588 149.24541504 554.62527588 148.47558594 555.26318359 C105.55076649 590.6890888 54.90263639 615.18513718 0 625 C-1.66047363 625.31106689 -1.66047363 625.31106689 -3.35449219 625.62841797 C-38.90207698 632.05053947 -77.52369872 631.62556087 -113 625 C-114.0936084 624.80696289 -115.1872168 624.61392578 -116.31396484 624.41503906 C-146.02245805 619.04714933 -175.1545385 608.72261303 -202 595 C-202.8254834 594.58041016 -203.6509668 594.16082031 -204.50146484 593.72851562 C-222.0901502 584.66601938 -238.60298497 573.39842509 -254 561 C-255.33804688 559.95005859 -255.33804688 559.95005859 -256.703125 558.87890625 C-264.8786633 552.3647712 -272.456816 545.22594729 -280 538 C-280.5269043 537.49645996 -281.05380859 536.99291992 -281.59667969 536.47412109 C-287.40892226 530.88865126 -292.74773755 525.10091592 -297.765625 518.79296875 C-300.05473871 515.93157661 -302.42850025 513.15759843 -304.8125 510.375 C-338.08189914 470.36944741 -359.87431481 420.04749649 -369 369 C-369.20737793 367.89301758 -369.41475586 366.78603516 -369.62841797 365.64550781 C-376.04871466 330.1080237 -375.64392645 291.46524839 -369 256 C-368.80164551 254.89043945 -368.60329102 253.78087891 -368.39892578 252.63769531 C-355.71626665 183.44304429 -317.53295058 115.94780739 -263 71 C-262.49694336 70.58314941 -261.99388672 70.16629883 -261.47558594 69.73681641 C-245.59297087 56.62887505 -228.88516914 45.20646043 -211 35 C-209.86038818 34.34668701 -209.86038818 34.34668701 -208.69775391 33.68017578 C-179.17861097 16.94901632 -146.26591053 6.18792462 -113 0 C-111.88141602 -0.21172852 -110.76283203 -0.42345703 -109.61035156 -0.64160156 C-74.08569867 -7.05168334 -35.45022298 -6.64111164 0 0 Z M-125.22607422 13.31298828 C-128.04298338 14.01064559 -130.86648394 14.67546834 -133.69140625 15.33984375 C-171.09066493 24.36494576 -207.35970805 41.71982494 -238 65 C-238.59006836 65.44730469 -239.18013672 65.89460938 -239.78808594 66.35546875 C-246.70595602 71.6297445 -253.38563045 77.07693969 -259.7890625 82.97265625 C-261.73982911 84.7614334 -263.72980395 86.47843119 -265.75 88.1875 C-275.75924515 96.93797598 -284.79969488 106.54779762 -293 117 C-293.92843252 118.1297105 -294.85958146 119.25719226 -295.79296875 120.3828125 C-323.09129155 153.4972728 -342.83675663 192.96255302 -353.36376953 234.50488281 C-353.94055396 236.76686934 -354.54081161 239.02064923 -355.15234375 241.2734375 C-357.86525461 251.41378416 -359.60605067 261.60512072 -361 272 C-361.15879639 273.10384033 -361.15879639 273.10384033 -361.32080078 274.22998047 C-372.00259697 350.62767648 -350.06510286 431.85132705 -304.20629883 493.51098633 C-302.81564173 495.3497962 -301.41198798 497.17752248 -300 499 C-299.2562915 499.9600293 -299.2562915 499.9600293 -298.49755859 500.93945312 C-263.15121781 546.19525368 -215.23510737 582.18289951 -160.88378906 601.33398438 C-159.13343288 601.95282466 -157.39057059 602.59275023 -155.6484375 603.234375 C-123.70844682 614.54186595 -90.43518681 619.21291679 -56.6875 619.3125 C-55.80091705 619.31545074 -54.91433411 619.31840149 -54.00088501 619.32144165 C-41.46214814 619.33084574 -29.13015365 618.75434192 -16.6875 617.1875 C-15.6875148 617.06334213 -15.6875148 617.06334213 -14.66732788 616.93667603 C-7.18108057 615.98193495 0.07084919 614.60935948 7.36547852 612.6809082 C9.58091122 612.10831606 11.76963906 611.6269534 14.01953125 611.21875 C36.38697394 606.98022327 58.65607906 598.0564938 79 588 C79.78197754 587.61521484 80.56395508 587.23042969 81.36962891 586.83398438 C117.16923923 569.03250978 151.40691653 542.95098509 177 512 C177.41830078 511.49549316 177.83660156 510.99098633 178.26757812 510.47119141 C216.46594393 464.18422867 239.61115294 410.3102183 248 351 C248.09462524 350.33776428 248.18925049 349.67552856 248.28674316 348.9932251 C249.83017045 337.96487218 250.32616067 327.12848655 250.25 316 C250.24584579 314.80159485 250.24584579 314.80159485 250.24160767 313.57897949 C250.16184597 293.83636414 249.03594781 274.35837365 245 255 C244.82597656 254.13197754 244.65195312 253.26395508 244.47265625 252.36962891 C233.80343055 199.27183582 209.99091982 150.57642961 174 110 C173.56123535 109.50483887 173.1224707 109.00967773 172.67041016 108.49951172 C162.22887994 96.77040865 151.35363625 85.72414741 139 76 C137.86913721 75.07008257 136.74033909 74.13765038 135.61328125 73.203125 C126.18375951 65.4321706 116.31928848 58.53699241 106 52 C105.33339355 51.57509277 104.66678711 51.15018555 103.97998047 50.71240234 C57.06112481 21.11093377 0.94808843 5.78717018 -54.375 5.75 C-55.27917664 5.74932526 -56.18335327 5.74865051 -57.1149292 5.74795532 C-80.24555182 5.77522899 -102.71841982 7.73682138 -125.22607422 13.31298828 Z " fill="#C2EBFE" transform="translate(377,7)"/>
<path d="M0 0 C0.66 0 1.32 0 2 0 C2.31710938 0.71542969 2.63421875 1.43085938 2.9609375 2.16796875 C13.82779955 25.37262169 34.78147223 43.44310953 58.8125 52.3125 C61.39976436 53.18512762 63.99805753 53.99940679 66.609375 54.796875 C67.41890625 55.04953125 68.2284375 55.3021875 69.0625 55.5625 C69.77535156 55.77003906 70.48820312 55.97757813 71.22265625 56.19140625 C73 57 73 57 75 60 C66.85503454 59.05329059 60.13127943 56.6455542 52.84228516 52.93457031 C50.86707459 51.93256845 48.87713543 50.96359587 46.88671875 49.9921875 C28.35728909 40.76011345 14.29343641 28.36089047 3 11 C2.50757813 10.2575 2.01515625 9.515 1.5078125 8.75 C-0.08946276 6.19435958 -1.06350396 4.6191636 -0.75 1.5625 C-0.5025 1.046875 -0.255 0.53125 0 0 Z " fill="#F1F8FC" transform="translate(204,491)"/>
<path d="M0 0 C2.40459502 1.13617115 4.68530008 2.32617888 7 3.625 C8.37077703 4.37167548 9.74187111 5.11776922 11.11328125 5.86328125 C13.34181829 7.08631785 15.56785386 8.31370948 17.79296875 9.54296875 C23.23020947 12.42568202 28.37856288 13.98421332 34.43359375 15.12890625 C37.46409971 16.15752547 38.37250763 17.30222452 40 20 C31.13778746 18.96992319 23.8864538 16.0445952 16 12 C15.26749023 11.6282666 14.53498047 11.2565332 13.78027344 10.87353516 C11.43108746 9.67649461 9.08909434 8.46663315 6.75 7.25 C5.99831543 6.86126709 5.24663086 6.47253418 4.47216797 6.07202148 C-0.88162451 3.23675098 -0.88162451 3.23675098 -2 1 C-1.34 0.67 -0.68 0.34 0 0 Z " fill="#EBF5FC" transform="translate(239,531)"/>
<path d="M0 0 C2.8125 0.25 2.8125 0.25 6 1 C6.99 2.32 7.98 3.64 9 5 C5.37 4.34 1.74 3.68 -2 3 C-1.34 2.01 -0.68 1.02 0 0 Z " fill="#C8E9FA" transform="translate(270,546)"/>
<path d="M0 0 C2.64 1.98 5.28 3.96 8 6 C7.01 6.33 6.02 6.66 5 7 C3.29115995 5.37660195 1.62553283 3.70680947 0 2 C0 1.34 0 0.68 0 0 Z " fill="#F8FCFE" transform="translate(231,525)"/>
<path d="M0 0 C0.66 0 1.32 0 2 0 C2.33 2.31 2.66 4.62 3 7 C2.01 7.495 2.01 7.495 1 8 C0.26919734 6.02253397 -0.39421747 4.01927511 -1 2 C-0.67 1.34 -0.34 0.68 0 0 Z " fill="#ECF5FB" transform="translate(204,491)"/>
<path d="M0 0 C0.99 0 1.98 0 3 0 C3 1.32 3 2.64 3 4 C1.35 4.66 -0.3 5.32 -2 6 C-1.49396008 3.83125748 -1.00016187 2.00032373 0 0 Z " fill="#8CCFEF" transform="translate(215,430)"/>
</svg>
