<?xml version="1.0" encoding="UTF-8"?>
<svg version="1.1" xmlns="http://www.w3.org/2000/svg" width="1536" height="1024">
<path d="M0 0 C506.88 0 1013.76 0 1536 0 C1536 337.92 1536 675.84 1536 1024 C1029.12 1024 522.24 1024 0 1024 C0 686.08 0 348.16 0 0 Z " fill="#D2EFFE" transform="translate(0,0)"/>
<path d="M0 0 C1.06734375 0.57621094 2.1346875 1.15242188 3.234375 1.74609375 C14.57669505 8.10778362 24.58765183 16.06387182 34 25 C34.75216797 25.70334473 34.75216797 25.70334473 35.51953125 26.42089844 C54.70741098 44.45330365 68.68723213 67.07672464 77.25 91.9375 C77.60130981 92.93680542 77.60130981 92.93680542 77.9597168 93.95629883 C82.43155517 107.55780651 83.51924022 121.03767668 83.375 135.25 C83.36851944 136.46523346 83.36851944 136.46523346 83.36190796 137.70501709 C83.28504152 150.01607901 82.72951749 161.95434386 80 174 C79.83902832 174.75732422 79.67805664 175.51464844 79.51220703 176.29492188 C75.48651293 194.87266869 67.76625081 212.21106429 59 229 C38.07192928 269.79306216 41.19023016 300.16998501 53.81640625 343.3515625 C64.19442404 379.15410449 65.3987824 410.47770482 47 444 C42.14429478 452.74476542 36.0004663 459.93702953 29 467 C28.13375 467.87914062 27.2675 468.75828125 26.375 469.6640625 C2.85638321 492.2727328 -24.89455253 495.56980804 -56.09790039 495.49072266 C-74.12697603 495.47862504 -90.1651853 496.32496019 -106.8125 503.8125 C-107.66376465 504.18431396 -108.5150293 504.55612793 -109.39208984 504.93920898 C-117.17130046 508.43300319 -124.64124011 512.48711313 -132.125 516.5625 C-154.72670524 528.86949696 -177.30900639 537.44308256 -202.95678711 540.73364258 C-204.83748894 540.97881472 -206.71223443 541.26858579 -208.5859375 541.5625 C-215.12026481 542.36312976 -221.73889955 542.19856953 -228.3125 542.1875 C-229.38504028 542.18609512 -229.38504028 542.18609512 -230.47924805 542.18466187 C-299.37923215 541.9891203 -360.51026423 510.84542199 -408.94140625 463.2890625 C-411.00597945 460.99335112 -412.50905767 458.69608102 -414 456 C-414.721875 456.94875 -415.44375 457.8975 -416.1875 458.875 C-418.46804294 461.872285 -420.39455724 462.89016182 -424 464 C-427.28775586 464.3243074 -430.56515217 464.35173417 -433.8671875 464.37109375 C-434.82013702 464.38012222 -435.77308655 464.3891507 -436.75491333 464.39845276 C-438.76707834 464.41293284 -440.7792902 464.42183641 -442.79150391 464.42553711 C-445.85790882 464.43743369 -448.9223006 464.48664157 -451.98828125 464.53710938 C-453.94790689 464.54657447 -455.90754484 464.55380909 -457.8671875 464.55859375 C-458.77781952 464.57812607 -459.68845154 464.59765839 -460.62667847 464.61778259 C-465.92932698 464.58049221 -469.48191314 463.91150809 -473.60427856 460.44578552 C-478.78548326 455.07873266 -478.82137138 448.20688201 -479.5 441.1484375 C-479.62181641 439.98035553 -479.74363281 438.81227356 -479.86914062 437.60879517 C-480.25708452 433.86522981 -480.62890379 430.12026918 -481 426.375 C-481.24891272 423.9412948 -481.49890323 421.50769958 -481.75 419.07421875 C-482.25246313 414.19560867 -482.7474106 409.31631233 -483.23828125 404.43652344 C-483.75426195 399.34332178 -484.29529846 394.25356903 -484.85546875 389.16503906 C-484.9946875 387.89624908 -485.13390625 386.62745911 -485.27734375 385.32022095 C-485.5436844 382.90545853 -485.81304148 380.49102622 -486.0859375 378.07699585 C-487.8077948 362.43057229 -487.8077948 362.43057229 -484.625 357.5 C-480.66754007 351.29766514 -479.7005089 345.1128314 -479.7253418 337.85253906 C-479.72023087 337.06939331 -479.71511993 336.28624756 -479.70985413 335.47937012 C-479.69603317 332.90804246 -479.6969097 330.33698524 -479.69921875 327.765625 C-479.69532673 325.96352033 -479.69099103 324.16141656 -479.68623352 322.35931396 C-479.67878668 318.5868431 -479.67905072 314.81446584 -479.68432617 311.04199219 C-479.69010828 306.23290366 -479.67321281 301.42420184 -479.6499815 296.61517715 C-479.6351696 292.89343057 -479.63438273 289.17177542 -479.63749123 285.45000458 C-479.63698141 283.67837511 -479.63180819 281.90674005 -479.62167931 280.13513947 C-479.55909635 267.65524336 -480.44317184 257.20316865 -486.42578125 245.97265625 C-487 244 -487 244 -486.34765625 241.9609375 C-481.14444066 234.38988177 -472.27265746 231.08491556 -464 228 C-462.33192266 227.33687089 -460.6647744 226.671378 -459 226 C-459.34933594 225.03578125 -459.69867187 224.0715625 -460.05859375 223.078125 C-460.51833086 221.80211997 -460.97796063 220.52607626 -461.4375 219.25 C-461.66759766 218.61578125 -461.89769531 217.9815625 -462.13476562 217.328125 C-463.24244769 214.24587924 -464.29661036 211.20163562 -465 208 C-464.01 208 -463.02 208 -462 208 C-462.50789062 207.5875 -463.01578125 207.175 -463.5390625 206.75 C-473.14949276 198.68731693 -479.09773587 190.25581066 -480.34765625 177.43359375 C-480.52113837 170.44150985 -479.93518657 164.37768933 -477 158 C-476.55785156 157.03191406 -476.11570312 156.06382812 -475.66015625 155.06640625 C-471.57423673 147.51947255 -465.17603467 141.58044766 -458 137 C-459.32 137.33 -460.64 137.66 -462 138 C-442.60050623 107.93750503 -411.02356045 83.48090817 -375.8359375 75.8515625 C-371.59869339 74.9710466 -367.35400867 74.14203255 -363.09448242 73.37646484 C-361.37747929 73.06784859 -359.66460455 72.736345 -357.953125 72.3984375 C-354.05704559 71.87277599 -350.23921209 71.85528429 -346.3125 71.875 C-345.59255859 71.87113281 -344.87261719 71.86726563 -344.13085938 71.86328125 C-338.45337035 71.87279925 -332.80667203 72.16491125 -327.140625 72.48828125 C-317.77301483 73.01063675 -308.42007708 73.25194029 -299.03833008 73.29516602 C-297.30257039 73.30673449 -295.5668476 73.32726235 -293.83129883 73.35668945 C-258.34332175 73.95253861 -229.00944365 59.85599412 -203.67773438 35.63671875 C-200.38721003 32.42663796 -197.16932589 29.14396025 -193.9375 25.875 C-187.911089 19.79048604 -181.81120618 14.20737522 -175 9 C-174.08347656 8.26652344 -173.16695312 7.53304688 -172.22265625 6.77734375 C-122.74804557 -31.93902944 -53.44262575 -29.22181225 0 0 Z " fill="#ADE1FE" transform="translate(1334,250)"/>
<path d="M0 0 C0.6496875 0.48597656 1.299375 0.97195312 1.96875 1.47265625 C22.41683663 17.2427608 35.34892382 47.33080206 38.6796875 72.28125 C40.93891272 98.51030374 34.08091245 120.75582035 25.875 145.33984375 C24.11644116 150.61445242 22.3658336 155.89056832 20.6875 161.19140625 C20.38199219 162.15377197 20.07648438 163.1161377 19.76171875 164.10766602 C18.1328472 170.29267925 17.76984799 176.57930156 17.4375 182.9375 C17.39431641 183.71673828 17.35113281 184.49597656 17.30664062 185.29882812 C17.20171923 187.19907117 17.1004755 189.09951669 17 191 C17.9844812 190.99111755 18.9689624 190.98223511 19.98327637 190.9730835 C29.28132235 190.89183953 38.57929589 190.83195888 47.87761688 190.79275131 C52.65749457 190.77191628 57.43708467 190.7436736 62.21679688 190.69824219 C66.833367 190.65463829 71.44966128 190.63083219 76.06642151 190.62049103 C77.82382039 190.61312569 79.58120493 190.59874294 81.33848572 190.57707977 C83.80866594 190.54785162 86.27772033 190.54405196 88.74804688 190.54589844 C89.46734375 190.53151733 90.18664062 190.51713623 90.92773438 190.50231934 C96.33091311 190.54574711 100.53990316 191.90349423 105 195 C108.7068461 199.13346463 108.42748384 203.47086262 108.38818359 208.75 C108.39606903 210.05578003 108.39606903 210.05578003 108.40411377 211.38793945 C108.41729247 214.25881007 108.40858321 217.12912396 108.3984375 220 C108.40045885 221.998699 108.40337079 223.99739728 108.40713501 225.99609375 C108.41155548 230.18236319 108.40513615 234.36844042 108.39111328 238.5546875 C108.37402164 243.91820576 108.3838643 249.28127365 108.40183067 254.64477539 C108.41267594 258.77119332 108.40921874 262.89750463 108.4014473 267.02392578 C108.39944735 269.00146539 108.40189735 270.9790147 108.40888596 272.95654297 C108.41651256 275.72128914 108.40487921 278.48530794 108.38818359 281.25 C108.39425629 282.06573486 108.40032898 282.88146973 108.40658569 283.72192383 C108.3554031 288.30154751 107.95630695 291.27755378 105 295 C100.09631274 298.34358857 95.81355452 298.40349074 90.1015625 298.29296875 C89.26660248 298.28872391 88.43164246 298.28447906 87.57138062 298.28010559 C84.92224965 298.26340333 82.2738984 298.22576775 79.625 298.1875 C77.82162562 298.1724422 76.01823924 298.15875571 74.21484375 298.14648438 C69.8093587 298.11608774 65.40554513 298.05735281 61 298 C61 303.61 61 309.22 61 315 C63.5059375 314.9071875 63.5059375 314.9071875 66.0625 314.8125 C74.03678013 314.83294687 79.38526636 317.51895049 85 323 C85.6640625 325.16015625 85.6640625 325.16015625 86 327 C87.02883301 326.97905273 88.05766602 326.95810547 89.11767578 326.93652344 C92.95298213 326.86385006 96.78822822 326.81810179 100.62402344 326.78027344 C102.28070325 326.76021991 103.93731282 326.73296971 105.59375 326.69824219 C107.98194758 326.64944488 110.36920547 326.62696936 112.7578125 326.609375 C113.85973434 326.57840729 113.85973434 326.57840729 114.98391724 326.54681396 C120.14933035 326.54458541 123.01165856 327.76915923 127 331 C129.91316267 334.64355215 129.33049354 339.41979972 129.3125 343.875 C129.32861328 344.66519531 129.34472656 345.45539063 129.36132812 346.26953125 C129.36546748 351.24503428 128.82182013 354.73223591 126 359 C122.73859155 362.07736024 120.16531179 362.4475374 115.75 362.6875 C114.13351562 362.78611328 114.13351562 362.78611328 112.484375 362.88671875 C111.66453125 362.92410156 110.8446875 362.96148438 110 363 C110.00368717 363.5613798 110.00737434 364.12275959 110.01117325 364.70115089 C110.09958308 378.37263709 110.16548259 392.04407308 110.20724869 405.71578407 C110.22812551 412.32739538 110.25644566 418.93880039 110.30175781 425.55029297 C110.34521101 431.93045455 110.36913639 438.31041766 110.37950897 444.69071579 C110.38690119 447.12519836 110.40133634 449.55967004 110.42292023 451.99406815 C110.45194615 455.40334824 110.45595619 458.81180768 110.45410156 462.22119141 C110.46848267 463.22820099 110.48286377 464.23521057 110.49768066 465.2727356 C110.46414298 470.96824487 110.06395167 474.63855226 106 479 C102.37231642 480.79865892 99.44177624 481.25085818 95.41678619 481.25447559 C94.29871126 481.26030779 93.18063632 481.26613998 92.02868032 481.27214891 C90.80544262 481.26836958 89.58220492 481.26459026 88.32189941 481.26069641 C87.01850192 481.26452196 85.71510442 481.26834751 84.37221003 481.27228898 C80.75602755 481.28258411 77.13994405 481.28038333 73.5237534 481.27610838 C69.62322113 481.27364394 65.72271285 481.28265175 61.82218933 481.29014587 C54.18170542 481.30290222 46.54125664 481.30468545 38.90076387 481.30234561 C32.69192067 481.30056353 26.48308814 481.30230972 20.27424622 481.30657005 C19.39102704 481.30716524 18.50780787 481.30776043 17.59782448 481.30837366 C15.80365781 481.30958539 14.00949113 481.31079952 12.21532446 481.31201603 C-4.61393265 481.32289493 -21.44316973 481.32072727 -38.27242798 481.31463119 C-53.67525679 481.30946027 -69.0780224 481.32072147 -84.48083872 481.33972941 C-100.29103064 481.35909076 -116.10119264 481.36736689 -131.9113965 481.36360615 C-140.78984437 481.36169171 -149.66823842 481.36420546 -158.54667664 481.37832069 C-166.10388719 481.3902137 -173.66101079 481.39166274 -181.2182225 481.37953053 C-185.07504071 481.3736275 -188.9316997 481.37258154 -192.78850746 481.38453293 C-196.96643196 481.39732916 -201.14397488 481.38696141 -205.32189941 481.3742218 C-206.54513711 481.38159609 -207.76837481 481.38897037 -209.02868032 481.39656812 C-210.14675526 481.38936158 -211.2648302 481.38215503 -212.41678619 481.37473011 C-213.38122351 481.37478513 -214.34566083 481.37484014 -215.33932352 481.37489682 C-218.53113427 480.92516168 -220.39768407 479.87416914 -223 478 C-226.97180047 472.5684318 -226.38490749 466.69782948 -226.29296875 460.2578125 C-226.28872391 459.13430389 -226.28447906 458.01079529 -226.28010559 456.85324097 C-226.2633589 453.27691337 -226.22571296 449.70115631 -226.1875 446.125 C-226.17244803 443.69532066 -226.15876052 441.26563245 -226.14648438 438.8359375 C-226.11346846 432.89043146 -226.0633085 426.9452565 -226 421 C-226.8207048 420.8673172 -227.64140961 420.7346344 -228.48698425 420.59793091 C-230.10447319 420.33313431 -230.10447319 420.33313431 -231.75463867 420.06298828 C-232.82284348 419.88905548 -233.89104828 419.71512268 -234.99162292 419.53591919 C-250.38529635 416.79365491 -265.25038917 409.19901163 -277 399 C-277.79664063 398.34644531 -278.59328125 397.69289063 -279.4140625 397.01953125 C-295.9969889 382.92661083 -306.91932681 363.02220572 -312 342 C-312.24121582 341.01652588 -312.24121582 341.01652588 -312.48730469 340.01318359 C-318.14167512 316.11909658 -315.05221434 291.47685555 -302.87890625 269.99609375 C-298.12765793 262.41977886 -292.3164839 256.08603245 -285.8828125 249.91015625 C-283.8261165 247.94397042 -283.8261165 247.94397042 -282 245 C-281.34 245 -280.68 245 -280 245 C-279.76410156 244.43023437 -279.52820313 243.86046875 -279.28515625 243.2734375 C-277.71278975 240.49192595 -275.79201484 238.78422644 -273.4375 236.625 C-262.86420396 226.25091098 -255.87489298 214.57077831 -255.625 199.5625 C-255.60360962 198.52452271 -255.60360962 198.52452271 -255.58178711 197.46557617 C-255.67734781 187.38215284 -259.69919206 179.10314934 -264.5 170.4375 C-271.41345824 157.90341855 -276.45625178 145.38297255 -273.31640625 130.83203125 C-271.30067691 124.23281775 -268.60081311 119.12312764 -264 114 C-263.48695313 113.39542969 -262.97390625 112.79085937 -262.4453125 112.16796875 C-256.62355259 105.77517497 -248.31496014 100.35851005 -239.50146484 99.8581543 C-238.58059082 99.84695557 -237.6597168 99.83575684 -236.7109375 99.82421875 C-235.17373047 99.78844727 -235.17373047 99.78844727 -233.60546875 99.75195312 C-231.47545511 99.70945588 -229.34518974 99.67795293 -227.21484375 99.65820312 C-218.88631662 99.4346534 -211.7911521 97.9669886 -205.125 92.75 C-199.8793912 85.96156508 -197.64169736 78.15753201 -195.1875 70.0625 C-183.76554451 33.54580509 -164.48789502 3.44564194 -129.96875 -14.96484375 C-87.12099857 -37.16569755 -36.88075754 -30.57499583 0 0 Z " fill="#ACE1FE" transform="translate(418,241)"/>
<path d="M0 0 C1.63986877 -0.01051392 1.63986877 -0.01051392 3.31286621 -0.02124023 C6.92571434 -0.03884111 10.5377787 -0.02718847 14.15063477 -0.01367188 C16.66260427 -0.01636636 19.17457276 -0.02024842 21.6865387 -0.02526855 C26.95142606 -0.03116661 32.21610985 -0.02297305 37.48095703 -0.00390625 C43.55855569 0.01785049 49.6356173 0.01081823 55.71320289 -0.01121187 C61.56999858 -0.03158808 67.42659099 -0.02938387 73.2834034 -0.01768494 C75.7708856 -0.01501743 78.25838151 -0.01828821 80.7458477 -0.02760315 C84.22416268 -0.03776899 87.70144906 -0.02226482 91.1796875 0 C92.72049736 -0.01214539 92.72049736 -0.01214539 94.29243469 -0.02453613 C100.04619538 0.04364721 103.70647812 0.47331287 108.15454102 4.51757812 C111.03654351 8.14752095 110.44258915 12.72573969 110.42919922 17.15405273 C110.43686562 18.45961372 110.43686562 18.45961372 110.44468689 19.79154968 C110.45858323 22.66774376 110.45762611 25.54369823 110.45532227 28.41992188 C110.45920911 30.42004994 110.46354376 32.42017718 110.4683075 34.42030334 C110.47576975 38.61250484 110.47547833 42.80462212 110.47021484 46.99682617 C110.46441961 52.36819848 110.48135258 57.73922604 110.50455952 63.11054134 C110.51929332 67.24123652 110.52016904 71.37184859 110.51704979 75.50256538 C110.51756316 77.48290248 110.52280381 79.46324421 110.53286171 81.44355583 C110.54520213 84.21316795 110.53844884 86.98210758 110.52685547 89.75170898 C110.53449921 90.56901489 110.54214294 91.3863208 110.55001831 92.22839355 C110.507603 96.81421065 110.11749983 99.79080144 107.15454102 103.51757812 C102.25085376 106.8611667 97.96809554 106.92106886 92.25610352 106.81054688 C91.42114349 106.80630203 90.58618347 106.80205719 89.72592163 106.79768372 C87.07679067 106.78098145 84.42843942 106.74334587 81.77954102 106.70507812 C79.97616664 106.69002032 78.17278026 106.67633384 76.36938477 106.6640625 C71.96389972 106.63366587 67.56008614 106.57493093 63.15454102 106.51757812 C63.15454102 112.12757813 63.15454102 117.73757813 63.15454102 123.51757812 C64.82516602 123.45570313 66.49579102 123.39382813 68.21704102 123.33007812 C76.19132114 123.350525 81.53980737 126.03652862 87.15454102 131.51757812 C87.81860352 133.67773438 87.81860352 133.67773438 88.15454102 135.51757812 C89.18337402 135.49663086 90.21220703 135.47568359 91.2722168 135.45410156 C95.10752315 135.38142818 98.94276923 135.33567992 102.77856445 135.29785156 C104.43524426 135.27779804 106.09185383 135.25054783 107.74829102 135.21582031 C110.13648859 135.16702301 112.52374649 135.14454749 114.91235352 135.12695312 C116.01427536 135.09598541 116.01427536 135.09598541 117.13845825 135.06439209 C122.30387136 135.06216354 125.16619958 136.28673736 129.15454102 139.51757812 C132.06770368 143.16113028 131.48503455 147.93737784 131.46704102 152.39257812 C131.4831543 153.18277344 131.49926758 153.97296875 131.51586914 154.78710938 C131.52000849 159.76261241 130.97636115 163.24981404 128.15454102 167.51757812 C124.89313256 170.59493837 122.3198528 170.96511553 117.90454102 171.20507812 C116.28805664 171.30369141 116.28805664 171.30369141 114.63891602 171.40429688 C113.81907227 171.44167969 112.99922852 171.4790625 112.15454102 171.51757812 C112.15822819 172.07895792 112.16191536 172.64033772 112.16571426 173.21872902 C112.25412409 186.89021522 112.3200236 200.5616512 112.3617897 214.2333622 C112.38266652 220.8449735 112.41098667 227.45637852 112.45629883 234.06787109 C112.49975203 240.44803267 112.52367741 246.82799578 112.53404999 253.20829391 C112.54144221 255.64277648 112.55587735 258.07724816 112.57746124 260.51164627 C112.60648717 263.92092636 112.61049721 267.3293858 112.60864258 270.73876953 C112.62302368 271.74577911 112.63740479 272.7527887 112.65222168 273.79031372 C112.618684 279.485823 112.21849269 283.15613038 108.15454102 287.51757812 C104.52685744 289.31623704 101.59631725 289.7684363 97.57132721 289.77205372 C96.45325227 289.77788591 95.33517734 289.78371811 94.18322134 289.78972703 C92.95998364 289.78594771 91.73674594 289.78216838 90.47644043 289.77827454 C89.17304293 289.78210008 87.86964543 289.78592563 86.52675104 289.7898671 C82.91056857 289.80016224 79.29448507 289.79796146 75.67829442 289.79368651 C71.77776214 289.79122207 67.87725387 289.80022988 63.97673035 289.807724 C56.33624644 289.82048034 48.69579765 289.82226357 41.05530488 289.81992374 C34.84646168 289.81814166 28.63762916 289.81988784 22.42878723 289.82414818 C21.54556806 289.82474337 20.66234889 289.82533856 19.7523655 289.82595178 C17.95819882 289.82716351 16.16403215 289.82837765 14.36986548 289.82959416 C-2.45939164 289.84047305 -19.28862872 289.8383054 -36.11788696 289.83220931 C-51.52071578 289.82703839 -66.92348139 289.83829959 -82.3262977 289.85730753 C-98.13648963 289.87666889 -113.94665162 289.88494502 -129.75685549 289.88118428 C-138.63530336 289.87926983 -147.5136974 289.88178358 -156.39213562 289.89589882 C-163.94934618 289.90779183 -171.50646977 289.90924086 -179.06368148 289.89710865 C-182.9204997 289.89120563 -186.77715869 289.89015966 -190.63396645 289.90211105 C-194.81189095 289.91490729 -198.98943386 289.90453953 -203.1673584 289.89179993 C-204.3905961 289.89917421 -205.6138338 289.9065485 -206.87413931 289.91414624 C-207.99221425 289.9069397 -209.11028918 289.89973316 -210.26224518 289.89230824 C-211.2266825 289.89236325 -212.19111981 289.89241827 -213.18478251 289.89247495 C-216.37915994 289.44237815 -218.24406482 288.39837763 -220.84545898 286.51757812 C-224.47043027 281.36327214 -224.20685253 276.51086893 -224.04663086 270.46630859 C-224.03345573 269.49745665 -224.02028061 268.5286047 -224.00670624 267.5303936 C-223.97833751 265.51319452 -223.94368398 263.49607457 -223.90292358 261.47908783 C-223.83264041 257.85695691 -223.80295142 254.2352236 -223.77492523 250.61256599 C-223.73844026 246.18752619 -223.68086454 241.76274288 -223.62670898 237.33789062 C-223.60417654 235.41877369 -223.5817587 233.49965541 -223.55944824 231.58053589 C-223.50139686 226.61269766 -223.44182541 221.64487888 -223.38189697 216.67706299 C-223.32062477 211.57443338 -223.26084593 206.47178628 -223.20092773 201.36914062 C-223.08386956 191.41860249 -222.96519964 181.46808432 -222.84545898 171.51757812 C-223.86736328 171.54911987 -223.86736328 171.54911987 -224.90991211 171.58129883 C-225.80645508 171.59765381 -226.70299805 171.61400879 -227.62670898 171.63085938 C-228.51422852 171.65188721 -229.40174805 171.67291504 -230.31616211 171.69458008 C-234.02600619 171.43496261 -236.09328344 169.92573173 -238.84545898 167.51757812 C-241.81022816 163.07042435 -241.21372456 158.87522827 -241.22045898 153.64257812 C-241.24495117 152.64871094 -241.26944336 151.65484375 -241.29467773 150.63085938 C-241.31247868 146.19842294 -241.31996725 143.33908362 -239.07202148 139.44726562 C-235.71241041 136.53560269 -233.09882873 135.26547853 -228.64026928 135.27821159 C-227.80409043 135.27567969 -226.96791159 135.27314779 -226.10639399 135.27053916 C-225.19288355 135.27793086 -224.27937312 135.28532255 -223.33818054 135.29293823 C-221.87650891 135.29271642 -221.87650891 135.29271642 -220.38530856 135.29249012 C-217.11111671 135.2942215 -213.83714125 135.31009107 -210.56298828 135.32568359 C-208.2191074 135.32948093 -205.87522474 135.33229016 -203.53134155 135.33418274 C-198.47909395 135.33963282 -193.42689867 135.35063232 -188.37467003 135.36544418 C-180.3870373 135.38733942 -172.39947047 135.38791402 -164.41181946 135.38357544 C-161.67825988 135.38234321 -158.94470025 135.38120876 -156.21114063 135.38006783 C-155.5280026 135.37977009 -154.84486457 135.37947236 -154.14102539 135.37916561 C-146.3661516 135.37596303 -138.59128017 135.37621602 -130.81640625 135.37890625 C-129.75041812 135.37926456 -129.75041812 135.37926456 -128.66289488 135.3796301 C-117.14769749 135.38423491 -105.63263864 135.41123406 -94.11749401 135.44472407 C-82.29167858 135.47840319 -70.46611357 135.48151875 -58.64027339 135.45797837 C-52.00167536 135.44576052 -45.36366188 135.44944358 -38.7251339 135.48748398 C-32.48105547 135.52315084 -26.23808372 135.52189744 -19.99398422 135.49225426 C-17.70223498 135.48802747 -15.41041339 135.49750472 -13.11878777 135.52168083 C-9.98906997 135.55269881 -6.86332544 135.53451021 -3.73368835 135.50411987 C-2.82687008 135.5248959 -1.92005181 135.54567192 -0.98575419 135.56707752 C2.87402245 135.48394442 5.22243557 135.32492534 8.20558584 132.74105668 C10.07860291 130.62664706 10.07860291 130.62664706 11.65354127 128.42820752 C14.07031616 125.35188378 16.42234351 124.51283079 20.15454102 123.51757812 C23.86171086 123.30187 27.43396875 123.37977915 31.15454102 123.51757812 C31.15454102 117.90757812 31.15454102 112.29757812 31.15454102 106.51757812 C29.9439502 106.53852539 28.73335938 106.55947266 27.48608398 106.58105469 C22.97985741 106.65364352 18.47368217 106.69944648 13.96704102 106.73730469 C12.01936136 106.75737718 10.07174165 106.78464144 8.12426758 106.81933594 C5.31910381 106.86804665 2.51473915 106.89059053 -0.29077148 106.90820312 C-1.15662872 106.92884827 -2.02248596 106.94949341 -2.9145813 106.97076416 C-8.38584167 106.97277904 -11.53179032 106.20881865 -15.84545898 102.51757812 C-18.04077675 99.22460147 -18.1331451 98.10778232 -18.25952148 94.26367188 C-18.3180127 92.55787964 -18.3180127 92.55787964 -18.37768555 90.81762695 C-18.40830078 89.54298584 -18.43891602 88.26834473 -18.47045898 86.95507812 C-18.48814331 86.29671967 -18.50582764 85.63836121 -18.52404785 84.96005249 C-18.91246263 70.24462542 -19.00982395 55.52010623 -19.07562256 40.80032349 C-19.08884332 38.15419785 -19.10678521 35.50809158 -19.12945557 32.86203003 C-19.15933136 29.0973554 -19.16911151 25.33313942 -19.17358398 21.56835938 C-19.18588043 20.42688446 -19.19817688 19.28540955 -19.21084595 18.10934448 C-19.2078952 17.05079254 -19.20494446 15.9922406 -19.2019043 14.90161133 C-19.20737274 13.51749809 -19.20737274 13.51749809 -19.21295166 12.10542297 C-18.61122427 7.86812186 -16.61682788 5.39277039 -13.83580017 2.23742676 C-9.31638088 -0.36184757 -5.12799082 -0.04034173 0 0 Z " fill="#005DBC" transform="translate(415.845458984375,432.482421875)"/>
<path d="M0 0 C2.21043396 0.00052011 4.42086838 -0.0000034 6.63130188 -0.00151062 C11.23612485 -0.00142151 15.84077051 0.00888436 20.44555664 0.02709961 C26.31570414 0.04982447 32.18559429 0.05031679 38.05577374 0.04358196 C42.61054224 0.04022432 47.16525321 0.04690511 51.72001076 0.0567112 C53.8835196 0.06052954 56.04703487 0.06172557 58.21054649 0.06012535 C69.25051782 0.05875912 79.95051319 0.0977472 90.80078125 2.36328125 C92.68410156 2.75386719 92.68410156 2.75386719 94.60546875 3.15234375 C107.94592123 6.78447712 119.52746234 13.09535832 129.80078125 22.36328125 C130.48398438 22.96527344 131.1671875 23.56726563 131.87109375 24.1875 C147.59296719 38.89207575 157.12061068 60.71147026 157.9024601 82.15154457 C157.95166556 85.47539811 157.97020117 88.7981026 157.9777832 92.12231445 C157.9843544 93.38353119 157.9909256 94.64474792 157.99769592 95.94418335 C158.01858047 100.10079714 158.02908064 104.25741067 158.0390625 108.4140625 C158.0431153 109.85264796 158.04723237 111.29123325 158.05141258 112.72981834 C158.07042656 119.48890556 158.08466787 126.2479821 158.09302455 133.00709087 C158.10279594 140.77914868 158.12912865 148.55092164 158.16952544 156.32287914 C158.19977675 162.35203953 158.21450175 168.38111861 158.21780556 174.41035336 C158.22014484 178.0017338 158.22895826 181.59280858 158.25426674 185.18410683 C158.28208021 189.19493942 158.27768895 193.20514126 158.27075195 197.21606445 C158.28996704 198.97530998 158.28996704 198.97530998 158.30957031 200.77009583 C158.24149968 211.6104553 155.52484155 221.45491582 147.80078125 229.36328125 C135.38957438 240.72663763 119.54616436 240.95908685 103.67919922 240.88085938 C101.80647236 240.8862929 99.93374979 240.8934224 98.06103516 240.90209961 C93.01978043 240.92018718 87.97885661 240.91332688 82.9375968 240.90058327 C77.63727336 240.89038249 72.33697629 240.89986817 67.03665161 240.90612793 C58.14173346 240.91338259 49.24694864 240.90387278 40.35205078 240.88476562 C30.09597568 240.86298774 19.8402186 240.8700638 9.58415115 240.89207125 C0.74547459 240.91027159 -8.0931067 240.91276136 -16.93179595 240.90231657 C-22.19644686 240.89610879 -27.46094867 240.89517104 -32.72558975 240.90846252 C-37.6752575 240.92008861 -42.62451829 240.91187281 -47.57414246 240.8888855 C-49.38120221 240.88363488 -51.18829672 240.88504895 -52.99534225 240.89393616 C-67.50028625 240.95865065 -80.99262948 239.66388967 -92.19921875 229.36328125 C-100.99583641 219.46916498 -102.65407261 209.24642196 -102.58740234 196.34887695 C-102.5926593 195.08403976 -102.59791626 193.81920258 -102.60333252 192.51603699 C-102.61690789 189.07349366 -102.61174657 185.63122272 -102.60219526 182.18867517 C-102.59453923 178.56288496 -102.60166139 174.93711631 -102.60635376 171.31132507 C-102.61179764 165.21963367 -102.60465945 159.1280517 -102.59033203 153.03637695 C-102.57404482 146.03134194 -102.57927082 139.02656948 -102.59581125 132.02154094 C-102.60950938 125.9744232 -102.61130437 119.92738367 -102.60349524 113.8802554 C-102.59885937 110.28327377 -102.59807859 106.68641467 -102.60810471 103.0894413 C-102.68190741 72.37360138 -98.42143997 47.23048888 -76.1171875 24.21484375 C-54.47356927 3.896345 -28.62260395 -0.13451714 0 0 Z " fill="#005DBC" transform="translate(1188.19921875,468.63671875)"/>
<path d="M0 0 C10.01040656 9.15237171 16.47962076 20.743499 17.17411804 34.43180847 C17.23087458 38.54074314 17.22534876 42.64490949 17.1953125 46.75390625 C17.19157551 48.265618 17.18873179 49.77733219 17.18673706 51.28904724 C17.17915453 55.23950054 17.15955326 59.18980332 17.1373291 63.14019775 C17.11312689 67.89521424 17.10406403 72.65028146 17.09242249 77.4053421 C17.07312492 84.60366561 17.03476526 91.80165983 17 99 C44.225 98.505 44.225 98.505 72 98 C65.85217186 91.16907984 59.80067011 84.72281771 52.98046875 78.63476562 C48.81358338 74.66731367 47.19841225 71.82133259 46.80786133 66.04296875 C47.13678182 62.54562861 48.6996321 60.54905632 51 58 C53.91965471 55.70598559 57.19438862 55.45831427 60.87280273 55.55688477 C67.69707067 56.97844408 73.78898619 64.39887996 78.6875 69.0625 C79.37521484 69.71154297 80.06292969 70.36058594 80.77148438 71.02929688 C85.8104065 75.80766532 90.73005273 80.69593412 95.61450195 85.63134766 C100.19244272 90.2403033 104.98778272 94.48384231 109.96875 98.64453125 C110.5978125 99.17433594 111.226875 99.70414063 111.875 100.25 C112.42929688 100.70890625 112.98359375 101.1678125 113.5546875 101.640625 C116.33821533 104.25864577 117.35869161 106.4729277 117.5625 110.1875 C117.34741032 116.2980022 114.23512159 118.91566447 110 123 C108.82283957 124.19397701 107.64861799 125.39085513 106.4765625 126.58984375 C96.36099223 136.87699361 96.36099223 136.87699361 91.21484375 141.25390625 C87.84864519 144.1569002 84.76397321 147.25273647 81.6875 150.4609375 C80.74741735 151.43621866 79.80731296 152.41147886 78.8671875 153.38671875 C77.4234056 154.88618234 75.98597776 156.38998025 74.56347656 157.90966797 C65.56271992 167.49716336 65.56271992 167.49716336 60.51953125 168.23828125 C55.69995234 167.91198345 52.76637244 166.58364425 49.1875 163.375 C47.28944421 159.57888842 46.64397566 156.23614325 47 152 C50.7152561 144.81482592 57.6843513 139.08511599 63.375 133.5 C64.30183594 132.5821875 65.22867188 131.664375 66.18359375 130.71875 C68.4512111 128.47451015 70.72338511 126.23510578 73 124 C64.1071459 123.97679796 55.21430228 123.95904486 46.32142448 123.94818783 C42.19181115 123.94297619 38.06221858 123.93590982 33.93261719 123.92456055 C29.9450167 123.9136705 25.95743614 123.90771021 21.96982193 123.90512276 C20.45084444 123.90327952 18.93186799 123.89968018 17.41289902 123.89426994 C15.28028787 123.88697828 13.14775839 123.88601248 11.01513672 123.88647461 C9.8026828 123.884254 8.59022888 123.88203339 7.34103394 123.87974548 C4.13918243 123.99499038 1.14273153 124.39526278 -2 125 C-1.94694702 126.72391968 -1.94694702 126.72391968 -1.89282227 128.48266602 C-1.89859944 135.7907881 -2.8822392 143.02769707 -3.71484375 150.27734375 C-3.89226172 151.85473137 -4.06921984 153.43217078 -4.2457428 155.00965881 C-4.70955128 159.14412573 -5.17918896 163.27790915 -5.65020752 167.41156006 C-6.21940597 172.41608054 -6.78187419 177.42136093 -7.34520054 182.42654514 C-7.78403855 186.32468029 -8.22387396 190.22269321 -8.66697693 194.12034607 C-8.78888822 195.19588918 -8.78888822 195.19588918 -8.91326237 196.29316044 C-9.06987277 197.67347301 -9.2272228 199.05370192 -9.38539028 200.43383694 C-9.90030558 204.96775282 -10.33038416 209.50331509 -10.66920471 214.0537262 C-11.39081407 218.29940153 -13.93206528 221.06151192 -17.0625 223.8125 C-20.14351367 225.70086322 -22.73535458 226.13259836 -26.26855469 226.19287109 C-27.12664734 226.20893402 -27.98473999 226.22499695 -28.86883545 226.24154663 C-32.7927557 226.28619003 -36.71650989 226.32706589 -40.640625 226.35009766 C-42.70649492 226.36664278 -44.77230793 226.39391367 -46.83789062 226.43212891 C-49.82451924 226.48706529 -52.80980828 226.50879778 -55.796875 226.5234375 C-56.71378113 226.54610687 -57.63068726 226.56877625 -58.57537842 226.59213257 C-63.90109219 226.57470009 -67.46753628 225.9333498 -71.60675049 222.44702148 C-76.78182599 217.07221577 -76.82105115 210.21021275 -77.5 203.1484375 C-77.62181641 201.98035553 -77.74363281 200.81227356 -77.86914062 199.60879517 C-78.25708452 195.86522981 -78.62890379 192.12026918 -79 188.375 C-79.24891272 185.9412948 -79.49890323 183.50769958 -79.75 181.07421875 C-80.25246313 176.19560867 -80.7474106 171.31631233 -81.23828125 166.43652344 C-81.75426195 161.34332178 -82.29529846 156.25356903 -82.85546875 151.16503906 C-82.9946875 149.89624908 -83.13390625 148.62745911 -83.27734375 147.32022095 C-83.5436844 144.90545853 -83.81304148 142.49102622 -84.0859375 140.07699585 C-85.8077948 124.43057229 -85.8077948 124.43057229 -82.625 119.5 C-78.66754007 113.29766514 -77.7005089 107.1128314 -77.7253418 99.85253906 C-77.72023087 99.06939331 -77.71511993 98.28624756 -77.70985413 97.47937012 C-77.69603317 94.90804246 -77.6969097 92.33698524 -77.69921875 89.765625 C-77.69532673 87.96352033 -77.69099103 86.16141656 -77.68623352 84.35931396 C-77.67878668 80.5868431 -77.67905072 76.81446584 -77.68432617 73.04199219 C-77.69010828 68.23290366 -77.67321281 63.42420184 -77.6499815 58.61517715 C-77.6351696 54.89343057 -77.63438273 51.17177542 -77.63749123 47.45000458 C-77.63698141 45.67837511 -77.63180819 43.90674005 -77.62167931 42.13513947 C-77.55909635 29.65524336 -78.44317184 19.20316865 -84.42578125 7.97265625 C-85 6 -85 6 -84.34765625 3.9609375 C-78.18980826 -4.99917754 -66.3887686 -9.3830187 -56.125 -11.3125 C-36.1262955 -13.76132096 -16.31003547 -13.25513993 0 0 Z " fill="#0082E2" transform="translate(932,488)"/>
<path d="M0 0 C10.41183479 7.42153105 19.17755237 17.96376932 21.625 30.87109375 C21.73396864 33.42616821 21.79243144 35.95481964 21.80200195 38.51025391 C21.80857315 39.27506073 21.81514435 40.03986755 21.82191467 40.82785034 C21.84159945 43.35528675 21.85330157 45.88266377 21.86328125 48.41015625 C21.86735678 49.27661144 21.8714323 50.14306664 21.87563133 51.03577805 C21.89647488 55.6249238 21.91078213 60.21403984 21.92016602 64.80322266 C21.93120676 69.52400041 21.96558443 74.24430374 22.00533772 78.96491432 C22.0315908 82.6111229 22.03986569 86.2572201 22.04344749 89.90351486 C22.04829364 91.64250251 22.05985084 93.38148585 22.07848549 95.1203804 C22.28021009 115.19755645 22.28021009 115.19755645 15.625 123.30859375 C14.965 123.82421875 14.305 124.33984375 13.625 124.87109375 C12.635 125.67546875 12.635 125.67546875 11.625 126.49609375 C9.625 127.87109375 9.625 127.87109375 7.4375 128.93359375 C5.44607843 129.73811536 5.44607843 129.73811536 4.625 131.87109375 C4.28471361 134.36816114 3.9922181 136.85338258 3.73291016 139.35913086 C3.60824623 140.51812393 3.60824623 140.51812393 3.48106384 141.70053101 C3.30048665 143.38258243 3.12160606 145.06481664 2.94420242 146.74720573 C2.66196785 149.41826119 2.37411364 152.08865459 2.08456421 154.75892639 C1.26180845 162.35311769 0.44669189 169.94810464 -0.35839844 177.54418945 C-0.85118289 182.18983153 -1.35276693 186.83445672 -1.85966873 191.47857857 C-2.05034066 193.24146709 -2.23772115 195.00471511 -2.42161179 196.7683239 C-4.98814697 221.361838 -4.98814697 221.361838 -9.8125 226.43359375 C-10.658125 226.90796875 -11.50375 227.38234375 -12.375 227.87109375 C-13.17019043 228.39908569 -13.17019043 228.39908569 -13.98144531 228.93774414 C-17.67318967 230.37731357 -21.30426614 230.21677052 -25.234375 230.2421875 C-26.09758362 230.25121597 -26.96079224 230.26024445 -27.85015869 230.26954651 C-29.67578674 230.28403873 -31.50146661 230.29293319 -33.32714844 230.29663086 C-36.10181815 230.30849463 -38.87423907 230.35766005 -41.6484375 230.40820312 C-43.42707255 230.41767205 -45.20572118 230.42490484 -46.984375 230.4296875 C-47.80548767 230.44921982 -48.62660034 230.46875214 -49.47259521 230.48887634 C-55.54385139 230.4420089 -59.78524378 228.91930542 -64.375 224.87109375 C-67.96677594 219.88502057 -68.2350817 214.16807284 -68.875 208.2109375 C-68.99600067 207.16404251 -69.11700134 206.11714752 -69.2416687 205.03852844 C-69.63156216 201.62979451 -70.00394639 198.2194258 -70.375 194.80859375 C-70.63786489 192.4651335 -70.90105037 190.12170919 -71.16455078 187.77832031 C-73.3046011 168.50690049 -75.01968858 149.21274675 -76.375 129.87109375 C-78.045625 129.65453125 -78.045625 129.65453125 -79.75 129.43359375 C-83.375 128.87109375 -83.375 128.87109375 -85.375 127.87109375 C-86.82910891 127.76833316 -88.28767427 127.7252494 -89.74536133 127.71337891 C-90.6500264 127.70311676 -91.55469147 127.69285461 -92.48677063 127.68228149 C-93.95704964 127.6713295 -93.95704964 127.6713295 -95.45703125 127.66015625 C-97.52409643 127.63208526 -99.59115362 127.60342078 -101.65820312 127.57421875 C-104.92358152 127.53296256 -108.18881113 127.49608317 -111.4543457 127.46972656 C-114.6013895 127.44211047 -117.74775055 127.39623469 -120.89453125 127.34765625 C-121.86864456 127.34440338 -122.84275787 127.34115051 -123.84638977 127.33779907 C-132.43583444 127.18213405 -132.43583444 127.18213405 -136.375 123.87109375 C-138.99025329 119.81294209 -140.07624748 116.67964788 -139.375 111.87109375 C-137.2475635 107.92014025 -135.64096586 105.35427097 -131.375 103.87109375 C-128.39872852 103.60260711 -125.43930052 103.6387512 -122.453125 103.67578125 C-121.59313904 103.67861115 -120.73315308 103.68144104 -119.84710693 103.68435669 C-117.10626179 103.69553225 -114.36574602 103.72063196 -111.625 103.74609375 C-109.76432764 103.75612695 -107.90365015 103.7652522 -106.04296875 103.7734375 C-101.48685268 103.79546299 -96.93098214 103.82997478 -92.375 103.87109375 C-92.38166183 103.04583191 -92.38832367 102.22057007 -92.39518738 101.37030029 C-92.45561261 93.54508144 -92.50113271 85.71994236 -92.53043652 77.89454269 C-92.54600899 73.87262669 -92.56709068 69.8509055 -92.60131836 65.82910156 C-92.63421567 61.93871429 -92.65191609 58.0485129 -92.65963173 54.15799713 C-92.66512133 52.68302744 -92.67583899 51.20806646 -92.69219017 49.73317719 C-92.87997605 32.07212156 -89.14092955 18.14494475 -76.79296875 5.09375 C-57.15466812 -12.95825817 -22.22558639 -13.2625895 0 0 Z " fill="#0082E2" transform="translate(709.375,484.12890625)"/>
<path d="M0 0 C9.11041237 7.77983054 16.26546844 17.9132247 18.24609375 29.92578125 C18.34658356 32.26367591 18.39431854 34.60407406 18.40722656 36.9440918 C18.41467392 37.97447823 18.41467392 37.97447823 18.42227173 39.02568054 C18.43682048 41.28796409 18.44368422 43.55017744 18.44921875 45.8125 C18.45345982 46.97841643 18.45345982 46.97841643 18.45778656 48.16788673 C18.47275219 52.28372154 18.48199737 56.39952155 18.48632812 60.51538086 C18.49179936 64.74393754 18.51580622 68.97217005 18.54430008 73.20062542 C18.56302899 76.47195836 18.56813755 79.74321494 18.569664 83.01459694 C18.57266953 84.57214944 18.58062611 86.12970128 18.59384918 87.68720055 C18.68516363 99.27254954 18.47709558 110.57492856 9.83203125 119.36328125 C6.70593618 122.18478244 4.33933283 123.28166749 0.24609375 123.92578125 C0.08935181 125.71085083 0.08935181 125.71085083 -0.07055664 127.53198242 C-1.43194984 142.85658192 -2.93169602 158.16676927 -4.50060081 173.4713459 C-4.8885879 177.25694144 -5.27241583 181.04285966 -5.64672852 184.82983398 C-6.015999 188.56496842 -6.3954061 192.29894654 -6.78187752 196.0323391 C-6.92530251 197.43403968 -7.06526945 198.83609917 -7.20147514 200.23851967 C-9.05922759 219.29682646 -9.05922759 219.29682646 -14.31640625 224.42578125 C-17.52214128 226.39854127 -19.21586231 227.05354322 -22.94067383 227.08691406 C-23.80529739 227.09652161 -24.66992096 227.10612915 -25.56074524 227.11602783 C-26.96540291 227.12240265 -26.96540291 227.12240265 -28.3984375 227.12890625 C-29.36037521 227.13460632 -30.32231293 227.1403064 -31.31340027 227.1461792 C-33.35190732 227.15563638 -35.39042972 227.16216602 -37.42895508 227.16601562 C-40.5434043 227.17570965 -43.65719046 227.20672163 -46.77148438 227.23828125 C-48.75129816 227.24481241 -50.73111667 227.25006244 -52.7109375 227.25390625 C-53.64130325 227.26625305 -54.57166901 227.27859985 -55.53022766 227.2913208 C-61.83705631 227.2696667 -65.20503907 226.2561741 -69.94140625 221.92578125 C-75.04597877 213.47683364 -74.62210449 201.20799357 -75.69921875 191.48828125 C-75.87556516 189.91607938 -76.05207174 188.34389546 -76.22872925 186.77172852 C-76.59602463 183.49426395 -76.96036261 180.21648684 -77.32275391 176.93847656 C-77.78446266 172.76559806 -78.25517418 168.59379065 -78.72831917 164.42219543 C-79.09459754 161.18133864 -79.45523716 157.93987207 -79.81432724 154.69821167 C-79.98544737 153.16082552 -80.15844621 151.62364714 -80.33346939 150.08670044 C-83.05612811 126.11025795 -83.05612811 126.11025795 -78.82421875 118.2890625 C-76.149523 112.3832562 -75.50187804 106.59538631 -75.47924805 100.17138672 C-75.47413712 99.44168167 -75.46902618 98.71197662 -75.46376038 97.9601593 C-75.44997287 95.57100997 -75.45081382 93.18215291 -75.453125 90.79296875 C-75.44923028 89.11158138 -75.44489403 87.43019498 -75.44013977 85.74880981 C-75.43269941 82.23029387 -75.43295158 78.71187829 -75.43823242 75.19335938 C-75.44400426 70.72200528 -75.42714095 66.25106851 -75.40388775 61.77978325 C-75.38902644 58.30668808 -75.38829573 54.83369034 -75.39139748 51.360569 C-75.39088981 49.71422631 -75.38575836 48.06787735 -75.37558556 46.42156601 C-75.3038725 33.18684635 -75.87511499 20.64278876 -82.9609375 9.01171875 C-83.75390625 6.92578125 -83.75390625 6.92578125 -83.16015625 4.8671875 C-76.49207493 -4.33846921 -63.12061993 -8.48349255 -52.44140625 -10.38671875 C-34.11721359 -12.67999918 -15.2383379 -11.47738642 0 0 Z " fill="#0082E2" transform="translate(821.75390625,487.07421875)"/>
<path d="M0 0 C15.55234015 13.29405514 24.17948299 30.67089343 26 51 C27.5098306 71.38271317 20.22932909 90.18662436 7.25 105.6875 C-4.78103668 118.67080021 -21.20026998 126.48578718 -38.84375 127.38671875 C-49.82764025 127.69742118 -59.84267666 127.54108745 -70 123 C-71.51207031 122.36384766 -71.51207031 122.36384766 -73.0546875 121.71484375 C-88.7114241 114.56373886 -102.56108321 101.23969729 -108.77099609 84.98144531 C-116.13633926 63.8030492 -116.38111857 43.51021461 -106.9375 22.875 C-97.68895332 5.44277129 -83.0519828 -6.28111657 -64.25 -12.25 C-42.19098916 -18.87856976 -18.28248215 -13.82972862 0 0 Z " fill="#005DBC" transform="translate(1261,325)"/>
<path d="M0 0 C1.77157286 -0.00457161 3.54314395 -0.00988006 5.31471252 -0.0158844 C9.01204676 -0.02477473 12.70916451 -0.02243901 16.40649414 -0.01245117 C21.11461164 -0.00096399 25.82197877 -0.02118997 30.52999783 -0.05036831 C34.18403263 -0.06882589 37.83789074 -0.06841898 41.49196053 -0.06273079 C43.22648229 -0.06257876 44.96101695 -0.06852411 46.6954937 -0.08102226 C61.41893638 -0.17219717 73.22358244 1.5313454 84.30859375 12.0234375 C102.00655446 30.73396811 92.62890625 67.44322645 92.62890625 86.43359375 C39.49890625 86.43359375 -13.63109375 86.43359375 -68.37109375 86.43359375 C-68.37109375 34.52138748 -68.37109375 34.52138748 -54.25 19.18359375 C-46.91912454 12.35566816 -38.85837882 6.7535377 -29.37109375 3.43359375 C-28.69159668 3.18756912 -28.01209961 2.94154449 -27.31201172 2.68806458 C-18.26970843 -0.20336832 -9.38833649 -0.02136456 0 0 Z " fill="#005DBC" transform="translate(289.37109375,469.56640625)"/>
<path d="M0 0 C11.3273593 8.80237518 20.61364836 21.39411442 22.5234375 35.9609375 C23.79497466 51.80317098 21.31102989 67.64079775 11.28662109 80.55419922 C5.68909734 87.06280265 -0.72457314 92.28583279 -8.4765625 95.9609375 C-9.3428125 96.37214844 -10.2090625 96.78335938 -11.1015625 97.20703125 C-22.97835833 101.97424513 -38.64308586 101.89622634 -50.4765625 96.9609375 C-64.96835841 90.54754697 -74.78368794 80.17050742 -80.8515625 65.5859375 C-85.50083268 53.49783503 -85.63926293 36.44180184 -80.734375 24.48828125 C-73.37725495 9.70549655 -63.28720495 -1.811877 -47.3515625 -7.5390625 C-31.23297811 -11.86308993 -13.78312226 -9.57947207 0 0 Z " fill="#005DBC" transform="translate(343.4765625,354.0390625)"/>
<path d="M0 0 C7.86684732 3.76399796 15.05914772 8.59265632 22.18823242 13.59082031 C31.13377319 19.7956557 38.60635003 23.14799485 49.66796875 21.85546875 C52.54029919 21.0913552 54.94358521 20.0938249 57.66796875 18.85546875 C58.65796875 18.52546875 59.64796875 18.19546875 60.66796875 17.85546875 C61.74069928 16.03409815 61.74069928 16.03409815 62.66796875 13.85546875 C66.72869855 7.09155518 70.68873134 1.08223268 78.66796875 -1.14453125 C87.58609021 -1.88770804 94.83926477 0.50602372 101.81640625 6.12109375 C107.7292391 11.65969667 112.23016555 18.12070821 112.984375 26.27734375 C113.23545685 34.34436056 112.59279445 40.76388338 108.66796875 47.85546875 C108.24386719 48.62375 107.81976563 49.39203125 107.3828125 50.18359375 C101.97142291 59.0468168 94.8009713 64.57678398 85.66796875 69.23046875 C85.01586426 69.5644165 84.36375977 69.89836426 83.69189453 70.24243164 C60.75104842 81.34164359 31.03597244 74.34604664 8.10546875 66.54296875 C-8.06494356 60.71707609 -22.5189515 53.26644874 -31.33203125 37.85546875 C-34.26348471 30.61017073 -34.68286031 22.49855095 -32.4921875 14.96875 C-26.42163457 1.62170938 -14.21287718 -4.88203167 0 0 Z " fill="#ACE0FE" transform="translate(214.33203125,786.14453125)"/>
<path d="M0 0 C8.1156468 6.59639772 13.98159374 16.58980641 15.44140625 26.984375 C16.58393387 38.30301527 14.25465223 49.01876153 7.62890625 58.421875 C0.45799379 66.93960858 -8.31326547 73.29671471 -19.55859375 74.984375 C-32.18948689 75.85547108 -42.57739961 74.0171224 -52.55859375 65.984375 C-53.24824219 65.43136719 -53.93789063 64.87835937 -54.6484375 64.30859375 C-62.95174514 56.86589765 -67.76248503 46.45444975 -68.796875 35.44921875 C-69.16798924 22.81180224 -64.99878348 12.3486731 -56.55859375 2.984375 C-40.11542997 -12.31159131 -18.3219994 -12.48136204 0 0 Z " fill="#ACE0FE" transform="translate(607.55859375,783.015625)"/>
<path d="M0 0 C5.83764002 3.42917161 10.80819724 8.4171698 15.6875 13.0625 C16.71907227 14.03606445 16.71907227 14.03606445 17.77148438 15.02929688 C22.8104065 19.80766532 27.73005273 24.69593412 32.61450195 29.63134766 C37.19244272 34.2403033 41.98778272 38.48384231 46.96875 42.64453125 C47.5978125 43.17433594 48.226875 43.70414063 48.875 44.25 C49.42929688 44.70890625 49.98359375 45.1678125 50.5546875 45.640625 C53.33821533 48.25864577 54.35869161 50.4729277 54.5625 54.1875 C54.34741032 60.2980022 51.23512159 62.91566447 47 67 C45.82283957 68.19397701 44.64861799 69.39085513 43.4765625 70.58984375 C33.36099223 80.87699361 33.36099223 80.87699361 28.21484375 85.25390625 C24.84864519 88.1569002 21.76397321 91.25273647 18.6875 94.4609375 C17.74741735 95.43621866 16.80731296 96.41147886 15.8671875 97.38671875 C14.4234056 98.88618234 12.98597776 100.38998025 11.56347656 101.90966797 C2.56271992 111.49716336 2.56271992 111.49716336 -2.48046875 112.23828125 C-7.30004766 111.91198345 -10.23362756 110.58364425 -13.8125 107.375 C-15.82935438 103.34129124 -16.06046641 100.59544738 -16 96 C-8.35801073 85.81068097 0.99382928 77.00617072 10 68 C-22.67 67.505 -22.67 67.505 -56 67 C-53.69 63.37 -51.38 59.74 -49 56 C-48.34 52.04 -47.68 48.08 -47 44 C-27.86 44 -8.72 44 11 44 C11 43.34 11 42.68 11 42 C9.515 41.505 9.515 41.505 8 41 C6.47021484 39.43139648 6.47021484 39.43139648 4.8359375 37.43359375 C2.30962648 34.45079255 -0.28720583 31.69867135 -3.1484375 29.03515625 C-3.84324219 28.37966797 -4.53804687 27.72417969 -5.25390625 27.04882812 C-6.67857333 25.71467856 -8.11639553 24.39445109 -9.56640625 23.08789062 C-13.89125761 18.95372221 -15.84985021 16.06059351 -16.21411133 10.02099609 C-15.84565814 6.54316774 -14.29219429 4.53999908 -12 2 C-8.55751678 -0.70480824 -4.18680489 -0.87215091 0 0 Z " fill="#005CBC" transform="translate(995,544)"/>
<path d="M0 0 C1.22948837 1.03794703 2.4385712 2.10059503 3.625 3.1875 C4.54732422 3.97447266 4.54732422 3.97447266 5.48828125 4.77734375 C12.65685548 11.30120681 16.93135287 20.40100646 17.9140625 30.015625 C18.42504568 41.1496795 15.69592819 51.13573274 8.375 59.6875 C-0.58322347 68.71988095 -9.53004705 73.40877498 -22.3125 73.625 C-33.74067953 73.56403557 -42.14005916 69.2573334 -50.4375 61.5625 C-58.07375957 53.70722725 -61.35772858 44.08503321 -61.6875 33.3125 C-61.45605938 22.47563328 -57.63703997 13.04446847 -50.37109375 4.95703125 C-36.66149163 -8.11491496 -15.96395273 -11.53983405 0 0 Z " fill="#0175D5" transform="translate(805.375,390.8125)"/>
<path d="M0 0 C9.84651347 6.13169248 16.80340311 14.85910761 20.10546875 26.0703125 C22.10449846 36.79238096 20.83712631 47.44985559 15.22265625 56.8828125 C13.77379518 58.90655679 12.23856478 60.75251421 10.578125 62.60546875 C10.06507813 63.22164063 9.55203125 63.8378125 9.0234375 64.47265625 C2.89144516 71.30880081 -5.84046687 75.22967858 -14.9609375 75.84375 C-27.80067402 76.19433911 -36.82731921 73.62913926 -46.421875 64.60546875 C-55.2540382 54.96680513 -57.93253648 44.48126487 -57.69921875 31.7265625 C-57.18747041 20.62340584 -51.48708109 12.20405164 -43.546875 4.85546875 C-31.63467222 -5.15901267 -13.97423067 -6.96759825 0 0 Z " fill="#0074D5" transform="translate(694.421875,388.39453125)"/>
<path d="M0 0 C10.36443857 6.31242866 16.19079263 15.22979269 19.34375 26.8359375 C21.60223116 37.72504311 19.22348409 48.37936068 13.4921875 57.875 C7.58418782 66.28848645 -0.17537079 71.38114451 -9.9140625 74.640625 C-21.4277393 76.62425471 -31.53332122 74.97287269 -41.125 68.3125 C-48.83919781 62.08180177 -54.08422576 55.53804117 -57 46 C-57.19207031 45.38125 -57.38414062 44.7625 -57.58203125 44.125 C-59.24327674 35.67904161 -58.59713527 26.81599763 -55 19 C-54.5565625 18.03191406 -54.113125 17.06382812 -53.65625 16.06640625 C-48.91018606 7.27947184 -41.49409697 0.6541092 -32.3046875 -3.1015625 C-22.00070148 -5.90288258 -9.37108812 -5.1686689 0 0 Z " fill="#0074D5" transform="translate(912,389)"/>
<path d="M0 0 C0.73992188 0.07089844 1.47984375 0.14179688 2.2421875 0.21484375 C11.00068389 1.60186542 18.51935764 6.71747832 24 13.5625 C30.57728451 22.81475669 32.02393593 30.72493534 31 42 C28.61878985 51.03364927 24.1531719 58.65957509 16.24609375 63.78515625 C6.5718825 69.23414607 -3.75274059 70.95577866 -14.734375 68.3515625 C-17.00147224 67.41095833 -18.9455662 66.34175231 -21 65 C-21.76828125 64.51402344 -22.5365625 64.02804687 -23.328125 63.52734375 C-30.35277496 58.60776273 -34.07392076 52.55255092 -37.375 44.75 C-39.38941722 32.66349669 -38.1484727 23.8209399 -31.25 13.8125 C-23.43854132 3.98959071 -12.54895379 -1.27103551 0 0 Z " fill="#ACE0FE" transform="translate(1020,204)"/>
<path d="M0 0 C0.85998596 0.0028299 1.71997192 0.00565979 2.60601807 0.00857544 C5.34686321 0.019751 8.08737898 0.04485071 10.828125 0.0703125 C12.68879736 0.0803457 14.54947485 0.08947095 16.41015625 0.09765625 C20.96627232 0.11968174 25.52214286 0.15419353 30.078125 0.1953125 C30.13798584 1.08371826 30.19784668 1.97212402 30.25952148 2.88745117 C30.34274658 4.0551001 30.42597168 5.22274902 30.51171875 6.42578125 C30.59220459 7.58231201 30.67269043 8.73884277 30.75561523 9.93041992 C31.11865295 13.60559279 31.86640474 16.72171441 33.078125 20.1953125 C33.738125 20.1953125 34.398125 20.1953125 35.078125 20.1953125 C35.573125 21.6803125 35.573125 21.6803125 36.078125 23.1953125 C29.76106499 23.2714591 23.44412361 23.32395282 17.12670898 23.36010742 C14.97822649 23.37518165 12.8297747 23.39564439 10.68139648 23.42163086 C7.59090592 23.45807364 4.50082269 23.47505269 1.41015625 23.48828125 C0.45164261 23.50376511 -0.50687103 23.51924896 -1.49443054 23.53520203 C-6.43014921 23.53644392 -9.97390647 23.52112939 -13.921875 20.1953125 C-16.53712829 16.13716084 -17.62312248 13.00386663 -16.921875 8.1953125 C-12.60057273 0.17003685 -8.4132073 -0.10432792 0 0 Z " fill="#005ABB" transform="translate(586.921875,587.8046875)"/>
<path d="M0 0 C3.50541688 2.52849742 6.19567278 4.58366857 7.70703125 8.734375 C8.35123224 14.53218387 8.50583391 19.91310493 6.14453125 25.296875 C1.39910312 30.04230313 -2.13622737 31.96043503 -8.79296875 32.234375 C-14.13669568 32.00713833 -17.09838731 31.07291941 -21.29296875 27.734375 C-25.24881081 22.76421446 -25.93556335 18.69942367 -25.67578125 12.38671875 C-24.88693776 6.92116029 -22.66377018 3.8195928 -18.29296875 0.359375 C-12.34609767 -2.86184684 -6.06678803 -3.34861895 0 0 Z " fill="#ABE0FE" transform="translate(522.29296875,323.265625)"/>
<path d="M0 0 C3.83084349 2.61193874 6.65161815 5.67823629 8.75 9.875 C9.27839495 16.09380209 9.47493456 21.60871321 5.75 26.875 C0.77556123 31.46678963 -3.22247097 33.35707308 -9.9375 33.19140625 C-14.9511596 32.50541566 -18.24687834 29.98371341 -21.625 26.25 C-25.15858913 21.08552358 -24.82707977 15.99845754 -24.25 9.875 C-22.09062362 5.39629344 -19.32047061 2.69301812 -15.25 -0.125 C-10.0828841 -1.84737197 -5.14400242 -1.78061622 0 0 Z " fill="#ABE0FE" transform="translate(969.25,834.125)"/>
<path d="M0 0 C4.0743356 0.84881992 5.54405875 2.30225596 8 5.625 C8.625 8.625 8.625 8.625 8 11.625 C5.54405875 14.94774404 4.0743356 16.40118008 0 17.25 C-4.0743356 16.40118008 -5.54405875 14.94774404 -8 11.625 C-8.625 8.625 -8.625 8.625 -8 5.625 C-5.54405875 2.30225596 -4.0743356 0.84881992 0 0 Z " fill="#ACE0FE" transform="translate(1309,850.375)"/>
<path d="M0 0 C4.0743356 0.84881992 5.54405875 2.30225596 8 5.625 C8.625 8.625 8.625 8.625 8 11.625 C5.54405875 14.94774404 4.0743356 16.40118008 0 17.25 C-4.0743356 16.40118008 -5.54405875 14.94774404 -8 11.625 C-8.625 8.625 -8.625 8.625 -8 5.625 C-5.54405875 2.30225596 -4.0743356 0.84881992 0 0 Z " fill="#ACE0FE" transform="translate(1309,782.375)"/>
<path d="M0 0 C4.0743356 0.84881992 5.54405875 2.30225596 8 5.625 C8.625 8.625 8.625 8.625 8 11.625 C5.51397551 14.98844489 4.08574477 16.42557749 -0.0625 17.1875 C-3.74345769 16.48263576 -4.87000351 15.7016616 -7 12.625 C-8.0625 9.1875 -8.0625 9.1875 -8 5.625 C-5.59686932 2.20235933 -4.11289267 0.85685264 0 0 Z " fill="#ACE0FE" transform="translate(1376,782.375)"/>
<path d="M0 0 C4.04375441 0.92669372 5.54853142 2.37080721 8 5.6875 C8.625 8.6875 8.625 8.6875 8 11.6875 C5.51397551 15.05094489 4.08574477 16.48807749 -0.0625 17.25 C-3.71255579 16.55105315 -4.85564611 15.70547955 -7 12.6875 C-8.0625 9.8125 -8.0625 9.8125 -8 6.6875 C-5.70291401 2.92863201 -4.36484817 1.00027771 0 0 Z " fill="#ACE0FE" transform="translate(1376,850.3125)"/>
<path d="M0 0 C1.9375 1.0625 1.9375 1.0625 3 3 C3.39281877 6.09344778 3.63008105 8.04575205 3 11 C0.46528234 13.98202078 -1.18712339 14.83065071 -5 15.625 C-8 15 -8 15 -10.9375 12.375 C-13 9 -13 9 -13.125 5.875 C-10.54083088 -0.72898776 -6.57594408 -1.82665113 0 0 Z " fill="#ABE0FE" transform="translate(1246,852)"/>
<path d="M0 0 C4.0743356 0.84881992 5.54405875 2.30225596 8 5.625 C8.625 8.625 8.625 8.625 8 11.625 C5.9375 14.5625 5.9375 14.5625 3 16.625 C-1.3497442 16.7776226 -3.2257221 16.33971806 -6.4375 13.375 C-8.17712985 10.31325146 -8.77259539 9.05875729 -8 5.625 C-5.53235541 2.35899981 -4.04381805 0.84246209 0 0 Z " fill="#ACE0FE" transform="translate(1275,782.375)"/>
<path d="M0 0 C1.9375 1.0625 1.9375 1.0625 3 3 C3.39309578 6.09562931 3.62338668 8.04336605 3 11 C0.9375 13.5625 0.9375 13.5625 -2 15 C-6.30287623 15.07548906 -8.24611283 14.65965128 -11.5 11.8125 C-13 9 -13 9 -13.0625 5.9375 C-10.64059697 -0.75834954 -6.55414775 -1.8205966 0 0 Z " fill="#ABE0FE" transform="translate(1246,784)"/>
<path d="M0 0 C2.5 1.5625 2.5 1.5625 4 4 C4.56288002 7.94016013 4.60396028 10.05782196 2.4375 13.4375 C-0.98314143 15.63021887 -3.00951279 15.63007693 -7 15 C-10 12.9375 -10 12.9375 -12 10 C-12 6.48044581 -11.63108355 4.15079941 -9.9375 1.0625 C-6.73507415 -0.69366901 -3.50309274 -0.62026592 0 0 Z " fill="#ABE0FE" transform="translate(1346,818)"/>
<path d="M0 0 C1.9375 1.0625 1.9375 1.0625 3 3 C3.39281877 6.09344778 3.63008105 8.04575205 3 11 C0.42627616 14.02791041 -1.15246594 14.86162709 -5.0625 15.5 C-8 15 -8 15 -10.375 13.5 C-12.34683501 10.46640767 -12.64552934 8.48068984 -12.4453125 4.91015625 C-12 3 -12 3 -9.9375 0.4375 C-6.10852228 -1.43625505 -4.06665724 -1.12962701 0 0 Z " fill="#ABE0FE" transform="translate(1347,852)"/>
<path d="M0 0 C2.5 1.5625 2.5 1.5625 4 4 C4.5625 7.5 4.5625 7.5 4 11 C1.4511805 13.9236459 -0.19515606 14.84909176 -4 15.5625 C-8.14162899 14.78594456 -9.59321321 13.42784786 -12 10 C-12 6.48044581 -11.63108355 4.15079941 -9.9375 1.0625 C-6.73507415 -0.69366901 -3.50309274 -0.62026592 0 0 Z " fill="#ABE0FE" transform="translate(1380,818)"/>
<path d="M0 0 C2.5 1.5625 2.5 1.5625 4 4 C4.56288002 7.94016013 4.60396028 10.05782196 2.4375 13.4375 C-0.98314143 15.63021887 -3.00951279 15.63007693 -7 15 C-10 12.9375 -10 12.9375 -12 10 C-12 6.48044581 -11.63108355 4.15079941 -9.9375 1.0625 C-6.73507415 -0.69366901 -3.50309274 -0.62026592 0 0 Z " fill="#ABE0FE" transform="translate(1279,818)"/>
<path d="M0 0 C2.875 1.5 2.875 1.5 5 4 C5.71773256 6.82462492 5.71070236 9.17452478 5 12 C2.9375 14.5625 2.9375 14.5625 0 16 C-3.46758942 15.94021398 -5.88826749 15.60965977 -8.9375 13.9375 C-10.69220303 10.73774742 -10.626852 7.5005106 -10 4 C-7.30203057 -0.15072221 -4.80768487 -0.78492814 0 0 Z " fill="#ABE0FF" transform="translate(1345,783)"/>
<path d="M0 0 C2.5 1.625 2.5 1.625 4 4 C4.5625 6.9375 4.5625 6.9375 4 10 C1.54405875 13.32274404 0.0743356 14.77618008 -4 15.625 C-8.11289267 14.76814736 -9.59686932 13.42264067 -12 10 C-12 6.48044581 -11.63108355 4.15079941 -9.9375 1.0625 C-6.73774742 -0.69220303 -3.5005106 -0.626852 0 0 Z " fill="#ABE0FE" transform="translate(1313,818)"/>
<path d="M0 0 C2.55078958 2.22165544 2.93332671 3.60829443 3.5 6.9375 C2.81810427 11.11411135 1.36996335 12.50915752 -2 15 C-5.65126535 15.67064058 -7.23686002 15.48198314 -10.375 13.5 C-12.34683501 10.46640767 -12.64552934 8.48068984 -12.4453125 4.91015625 C-12 3 -12 3 -9.9375 0.4375 C-6.08838451 -1.44610971 -4.07579849 -1.207644 0 0 Z " fill="#ABE0FE" transform="translate(1280,852)"/>
<path d="M0 0 C1.94140625 0.37890625 1.94140625 0.37890625 4.44140625 1.94140625 C6.52533443 5.32778954 6.49942722 7.47275943 5.94140625 11.37890625 C4.37890625 13.81640625 4.37890625 13.81640625 1.94140625 15.37890625 C-1.99875388 15.94178627 -4.11641571 15.98286653 -7.49609375 13.81640625 C-9.64739122 10.46038219 -9.54806666 8.29468954 -9.05859375 4.37890625 C-7.25061386 -0.02804474 -4.59262964 -0.26219433 0 0 Z " fill="#ABE0FE" transform="translate(1243.05859375,817.62109375)"/>
<path d="M0 0 C13.53 0 27.06 0 41 0 C41 5.61 41 11.22 41 17 C40.34 17 39.68 17 39 17 C39 12.05 39 7.1 39 2 C37.33445068 2.01571045 37.33445068 2.01571045 35.63525391 2.03173828 C31.52412121 2.06787949 27.41300261 2.09087896 23.30175781 2.10986328 C21.52080933 2.11993431 19.73987743 2.13359185 17.95898438 2.15087891 C15.40230217 2.17507913 12.84583815 2.18647184 10.2890625 2.1953125 C9.49005524 2.20563507 8.69104797 2.21595764 7.86782837 2.22659302 C5.9104278 2.22699226 3.95356923 2.12241069 2 2 C1.34 1.34 0.68 0.68 0 0 Z " fill="#BBE9FB" transform="translate(406,539)"/>
<path d="M0 0 C0.99 0.33 1.98 0.66 3 1 C1.948125 1.556875 0.89625 2.11375 -0.1875 2.6875 C-5.99115527 6.0222616 -9.38076314 10.45050349 -13 16 C-14.75 17.875 -14.75 17.875 -16 19 C-15.21709025 11.8254664 -9.42936341 6.95204302 -4.17578125 2.4296875 C-2.625 1.3125 -2.625 1.3125 0 0 Z " fill="#0665D1" transform="translate(657,389)"/>
<path d="M0 0 C0 0.99 0 1.98 0 3 C-1.2684375 4.175625 -1.2684375 4.175625 -2.5625 5.375 C-3.366875 6.24125 -4.17125 7.1075 -5 8 C-5.00635246 10.63537508 -5.00635246 10.63537508 -4 13 C-3.67 13.99 -3.34 14.98 -3 16 C-3.66 16.33 -4.32 16.66 -5 17 C-5.72767003 15.76115681 -6.43154815 14.50831659 -7.125 13.25 C-7.51945313 12.55390625 -7.91390625 11.8578125 -8.3203125 11.140625 C-9 9 -9 9 -8.34375 6.90625 C-6.87407355 4.82136015 -5.49086439 3.66057626 -3.375 2.25 C-2.74335937 1.82203125 -2.11171875 1.3940625 -1.4609375 0.953125 C-0.97882812 0.63859375 -0.49671875 0.3240625 0 0 Z " fill="#0B79E1" transform="translate(747,485)"/>
<path d="M0 0 C-1.55500981 3.81684226 -4.03595495 6.19195732 -7 9 C-7 5 -7 5 -4.625 2.25 C-2 0 -2 0 0 0 Z " fill="#0754B9" transform="translate(431,559)"/>
<path d="M0 0 C0.33 0.66 0.66 1.32 1 2 C-0.58759644 6.58747193 -2.68985663 10.53706093 -7 13 C-6.36610765 9.50155614 -4.94822306 7.15913124 -2.9375 4.25 C-2.38964844 3.45078125 -1.84179688 2.6515625 -1.27734375 1.828125 C-0.85582031 1.22484375 -0.43429687 0.6215625 0 0 Z " fill="#E1F4FD" transform="translate(712,440)"/>
<path d="M0 0 C0.33 0.99 0.66 1.98 1 3 C-0.375 4.5 -0.375 4.5 -2 6 C-2.66 6 -3.32 6 -4 6 C-4 6.66 -4 7.32 -4 8 C-4.66 8 -5.32 8 -6 8 C-4.73058503 4.08597051 -3.48832306 2.20927127 0 0 Z " fill="#0C59BB" transform="translate(181,569)"/>
<path d="M0 0 C0.66 1.32 1.32 2.64 2 4 C0.02 5.98 -1.96 7.96 -4 10 C-4.66 9.67 -5.32 9.34 -6 9 C-5.071875 7.88625 -5.071875 7.88625 -4.125 6.75 C-2.39562719 4.51198812 -1.13893339 2.56260013 0 0 Z " fill="#E4F5FD" transform="translate(812,703)"/>
</svg>
