<?xml version="1.0" encoding="UTF-8"?>
<svg version="1.1" xmlns="http://www.w3.org/2000/svg" width="1536" height="1024">
<path d="M0 0 C506.88 0 1013.76 0 1536 0 C1536 337.92 1536 675.84 1536 1024 C1029.12 1024 522.24 1024 0 1024 C0 686.08 0 348.16 0 0 Z " fill="#CDEEFE" transform="translate(0,0)"/>
<path d="M0 0 C0.82430644 -0.00666801 1.64861288 -0.01333602 2.49789831 -0.02020609 C5.25435506 -0.03642198 8.00938696 -0.01708224 10.76580715 0.00215912 C12.76413185 -0.00217075 14.76245281 -0.00868753 16.76076406 -0.01720095 C22.24769667 -0.03419969 27.73417321 -0.02000588 33.22108185 -0.00068617 C39.14003048 0.01473275 45.05892293 0.00134105 50.9778738 -0.00843048 C61.90108109 -0.0221236 72.82412754 -0.01324848 83.74732098 0.00698569 C93.83785986 0.02554533 103.92834682 0.03396418 114.01890278 0.0324173 C114.68832883 0.03232562 115.35775488 0.03223395 116.04746657 0.03213949 C118.76489988 0.03174633 121.48233317 0.03129671 124.19976645 0.0307681 C149.68830825 0.02589758 175.17675795 0.04855569 200.66527112 0.08472433 C223.31041006 0.11672101 245.95547034 0.12876723 268.60063076 0.12264252 C270.05481889 0.12225567 271.50900702 0.12186922 272.96319515 0.12148315 C273.6821184 0.1212918 274.40104164 0.12110046 275.14175044 0.12090331 C278.76071681 0.11994897 282.3796832 0.1190346 285.9986496 0.11816406 C287.06960062 0.11790337 287.06960062 0.11790337 288.16218701 0.11763741 C307.08518155 0.11328245 326.00816759 0.12329601 344.9311561 0.13800192 C345.60428196 0.13852206 346.27740782 0.1390422 346.97093144 0.13957811 C347.97877691 0.14035712 347.97877691 0.14035712 349.0069829 0.14115188 C350.01298335 0.14192849 350.01298335 0.14192849 351.03930703 0.14272078 C352.38996414 0.14376887 353.74062125 0.14482909 355.09127835 0.1459015 C364.50792156 0.15328259 373.92455276 0.15537023 383.3411985 0.1539075 C395.4755454 0.152062 407.60981513 0.16045276 419.74413807 0.18554896 C425.59608491 0.19742104 431.44793314 0.20452601 437.29989147 0.1987114 C442.65452703 0.19354807 448.00895408 0.20219789 453.36355393 0.221986 C455.30285549 0.22673436 457.2421773 0.22641486 459.18147589 0.22057563 C461.81408882 0.21341348 464.44600718 0.22464202 467.0785675 0.24050903 C467.83439482 0.23405723 468.59022214 0.22760543 469.36895332 0.22095811 C475.19503695 0.28702972 480.01359123 1.4208609 484.43730068 5.37752533 C484.90394131 5.97436127 485.37058193 6.5711972 485.85136318 7.18611908 C486.57452724 8.08524017 486.57452724 8.08524017 487.31230068 9.00252533 C490.65135396 13.65254919 490.07581647 19.12518551 489.47636318 24.62361908 C487.61965662 29.80241497 484.3740051 33.53937547 479.45683193 36.01424408 C475.77062286 37.14846226 472.30096039 36.85897891 468.47636318 36.62361908 C468.47636318 39.92361908 468.47636318 43.22361908 468.47636318 46.62361908 C469.86459286 46.61362633 469.86459286 46.61362633 471.28086758 46.6034317 C480.04792358 46.54305614 488.81490869 46.4975111 497.58212566 46.46818256 C502.08830366 46.45259706 506.59430833 46.43149057 511.10038662 46.39730072 C515.4576094 46.36445119 519.81466659 46.34671271 524.17200375 46.33898735 C525.82559976 46.33348938 527.4791878 46.32275465 529.13271236 46.30642891 C546.59322336 46.14105821 561.04989832 48.82617667 574.15214443 61.22908783 C585.08487464 72.49255609 589.86925534 83.35285417 589.77665615 99.07064056 C588.55559232 147.17065496 564.50559826 195.5568164 531.47636318 229.62361908 C530.66812099 230.47053314 530.66812099 230.47053314 529.84355068 231.33455658 C504.96933616 257.34457998 466.36027711 283.35758407 429.09501553 284.71004486 C428.24503994 284.72406342 427.39506435 284.73808197 426.51933193 284.75252533 C417.71896015 284.6675165 417.71896015 284.6675165 409.80253506 287.85359955 C406.82097471 291.07256508 404.78686869 294.84170532 402.66874599 298.65828705 C400.60402111 302.06144744 397.98566507 304.96580929 395.35136318 307.93611908 C394.84057217 308.52046722 394.32978115 309.10481537 393.80351162 309.70687103 C392.81730514 310.83353045 391.82847006 311.95789568 390.83671474 313.07967377 C389.61899618 314.46173626 388.41764496 315.85817977 387.21855068 317.25643158 C383.58493214 321.4600295 379.82910038 325.24853526 375.57792568 328.82674408 C374.12319577 330.07056519 372.70281645 331.355277 371.31230068 332.67049408 C350.71584996 352.09590914 313.83047688 375.62361908 284.47636318 375.62361908 C284.50778408 376.64346893 284.50778408 376.64346893 284.53983974 377.68392181 C284.62376213 380.80949955 284.67526229 383.93483924 284.72636318 387.06111908 C284.75987881 388.13039642 284.79339443 389.19967377 284.82792568 390.30135345 C284.93065584 398.69954399 283.55391812 404.88064686 278.16386318 411.43611908 C270.56207747 417.62361908 270.56207747 417.62361908 265.47636318 417.62361908 C267.34869242 440.87043862 271.23435547 461.60055062 281.47636318 482.62361908 C281.94687099 483.60459564 282.41737881 484.5855722 282.90214443 485.59627533 C292.24197063 503.88128719 307.37275197 518.60571139 324.47636318 529.62361908 C325.35808193 530.2552597 326.23980068 530.88690033 327.14823818 531.53768158 C335.06221324 536.47806246 343.33117576 536.31067977 352.40531826 536.31136322 C361.13978437 536.34322846 368.81097877 537.61781422 375.90605068 543.02986908 C381.21181932 548.4148283 383.59780084 555.16089771 383.56425381 562.57479095 C383.5558749 563.31277924 383.54749599 564.05076752 383.53886318 564.81111908 C383.5320956 565.93550385 383.5320956 565.93550385 383.52519131 567.08260345 C383.51342672 568.92964291 383.49549184 570.77664121 383.47636318 572.62361908 C384.85308193 572.57141205 384.85308193 572.57141205 386.25761318 572.51815033 C397.11669981 572.27861165 403.6521621 573.1903947 411.71464443 580.65096283 C417.13958761 586.72545575 418.62487866 593.48315809 418.65336514 601.42464447 C418.65993633 602.21856598 418.66650753 603.01248749 418.67327785 603.83046722 C418.6930027 606.46073759 418.70467469 609.09095074 418.71464443 611.72127533 C418.71871996 612.62174528 418.72279549 613.52221523 418.72699451 614.44997215 C418.74785672 619.22066137 418.762155 623.99132185 418.7715292 628.76204681 C418.78256415 633.67229486 418.81692975 638.58208605 418.8567009 643.49217319 C418.88294849 647.28164212 418.89122848 651.07100383 418.89481068 654.86055565 C418.8996595 656.66931921 418.91122449 658.47807853 418.92984867 660.2867527 C419.13581567 681.62387054 419.13581567 681.62387054 411.22636318 690.49861908 C403.78524345 697.82922714 395.98693356 698.20220934 386.07804775 698.13155365 C384.71977874 698.13616738 383.36151473 698.14252346 382.00326109 698.15046263 C378.28552602 698.16711462 374.56820325 698.15892867 370.85046697 698.14651775 C366.83539246 698.13745254 362.82038793 698.15144427 358.80532742 698.16243744 C350.94563128 698.18021158 343.08608805 698.17638762 335.22638595 698.16478688 C328.83790227 698.15574848 322.44946141 698.15453031 316.06097317 698.15888214 C315.15127302 698.15949507 314.24157288 698.16010801 313.30430606 698.16073951 C311.45619117 698.16201843 309.60807629 698.16331528 307.75996143 698.16462988 C290.43555865 698.17603244 273.11124058 698.16292705 255.7868517 698.14142841 C240.9259889 698.12355772 226.06525108 698.12666192 211.20439053 698.14510345 C193.94142299 698.16651588 176.67852967 698.17493383 159.41555071 698.1626544 C157.57428488 698.16138022 155.73301905 698.16012274 153.8917532 698.15888214 C152.98584652 698.15826504 152.07993984 698.15764794 151.14658144 698.15701213 C144.76674954 698.15356035 138.38696476 698.15938388 132.00714016 698.16880035 C124.23083589 698.18002585 116.45469311 698.17696873 108.67840731 698.15567738 C104.71179832 698.14517433 100.74545843 698.14103226 96.77885151 698.15427399 C93.14556692 698.16621943 89.51280013 698.15960052 85.87956232 698.13836378 C83.94726481 698.13180021 82.01493118 698.14481465 80.08267164 698.1585927 C71.85118771 698.08438341 66.5254469 696.97503459 60.05058193 691.61580658 C59.42796474 690.9171347 58.80534756 690.21846283 58.16386318 689.49861908 C57.21060146 688.47381439 57.21060146 688.47381439 56.23808193 687.42830658 C50.31417502 677.99734169 50.98627825 667.08480495 50.97245693 656.35018158 C50.96279617 654.57717913 50.95270229 652.80417899 50.94219875 651.03118134 C50.92431466 647.32788809 50.91866987 643.62480397 50.92045498 639.92147064 C50.92075975 635.20520134 50.87977786 630.49028798 50.82813835 625.77433968 C50.79458265 622.11599974 50.78870319 618.45798132 50.79028416 614.79950333 C50.78677415 613.06215357 50.77367594 611.32479275 50.75028706 609.58759689 C50.61171877 598.23565416 51.26778664 588.51398477 59.295928 579.60424042 C64.61025811 574.53564664 70.52204717 572.25961932 77.77909756 572.3599472 C78.48357021 572.38508392 79.18804287 572.41022064 79.91386318 572.43611908 C80.64540615 572.44965424 81.37694912 572.46318939 82.13066006 572.4771347 C83.9128874 572.51208034 85.69472891 572.56587103 87.47636318 572.62361908 C87.42995693 571.41705658 87.38355068 570.21049408 87.33573818 568.96736908 C87.29819031 567.35281072 87.26179341 565.7382253 87.22636318 564.12361908 C87.19284756 563.3321347 87.15933193 562.54065033 87.12480068 561.72518158 C87.00716292 554.54927837 88.88827937 549.54042194 93.65995693 544.16268158 C94.40374599 543.53104095 95.14753506 542.89940033 95.91386318 542.24861908 C96.65507412 541.6015097 97.39628506 540.95440033 98.15995693 540.28768158 C102.4007779 537.24115589 105.94147884 536.38636329 111.12480068 536.49080658 C124.98499266 536.5342101 135.21589094 535.99109772 146.47636318 527.62361908 C147.0574081 527.21289154 147.63845303 526.802164 148.23710537 526.37899017 C161.85928958 516.69811838 173.83886777 504.9957804 182.47636318 490.62361908 C182.85244717 490.00035736 183.22853115 489.37709564 183.61601162 488.7349472 C196.64071843 466.70321347 201.46447653 442.85708438 203.47636318 417.62361908 C202.12091396 417.47666595 202.12091396 417.47666595 200.73808193 417.32674408 C194.87705079 416.06328826 190.96751336 411.69198867 187.53886318 406.93611908 C185.64382426 402.81162259 185.35559947 399.29330602 185.37870693 394.76424408 C185.38192959 393.64920502 185.38515224 392.53416595 185.38847256 391.38533783 C185.39685146 390.22647064 185.40523037 389.06760345 185.41386318 387.87361908 C185.4183749 386.69928314 185.42288662 385.5249472 185.42753506 384.31502533 C185.43931224 381.41783836 185.45575992 378.52075454 185.47636318 375.62361908 C184.14327114 375.37164764 184.14327114 375.37164764 182.78324795 375.11458588 C149.67617072 368.70553532 119.41159941 352.09391075 94.47636318 329.62361908 C93.63847256 328.90561127 92.80058193 328.18760345 91.93730068 327.44783783 C87.67349938 323.77583504 83.83507682 319.96343867 80.20683193 315.66268158 C78.43406521 313.57377812 76.58469866 311.57400173 74.72636318 309.56111908 C71.06021252 305.44752483 67.74853825 301.11407689 64.47636318 296.68611908 C63.98297451 296.02281586 63.48958584 295.35951263 62.98124599 294.67610931 C59.47636318 289.86960778 59.47636318 289.86960778 59.47636318 287.62361908 C57.82636318 287.62361908 56.17636318 287.62361908 54.47636318 287.62361908 C55.46636318 287.29361908 56.45636318 286.96361908 57.47636318 286.62361908 C56.98607632 285.82480316 56.98607632 285.82480316 56.48588467 285.00984955 C43.52114802 263.82218252 43.52114802 263.82218252 38.47636318 252.62361908 C38.07594814 251.73529388 37.6755331 250.84696869 37.26298428 249.93172455 C23.30421575 218.6251473 13.61528985 186.30887681 7.47636318 152.62361908 C7.29331631 151.64119232 7.11026943 150.65876556 6.92167568 149.6465683 C0.06735655 112.35137353 -0.740091 74.43317007 -0.52363682 36.62361908 C-2.50321039 36.66024017 -4.48278395 36.69686127 -6.46235752 36.73348236 C-11.28512201 36.47643581 -14.04641302 34.12253487 -17.27363682 30.74861908 C-21.25496424 25.21899765 -22.59737706 20.39383386 -21.52363682 13.62361908 C-17.85984814 4.09776852 -9.84342014 -0.16039159 0 0 Z " fill="#026DC2" transform="translate(470.52363681793213,163.37638092041016)"/>
<path d="M0 0 C0.5146582 0.43489746 1.02931641 0.86979492 1.55957031 1.31787109 C39.18556423 33.49893809 59.79156416 82.12237787 64.8190918 130.609375 C66.64036767 154.67676138 67.94949755 197.07575367 54 218 C54.92548174 220.83995869 55.9397918 223.45795554 57.125 226.1875 C72.98976598 264.70511575 71.08785299 307.6235493 55.625 345.9375 C39.41065561 384.25340748 7.97739379 412.89824445 -30.11523438 428.58886719 C-35.35428672 430.70393095 -40.5550154 432.51563477 -46 434 C-45.34 434.66 -44.68 435.32 -44 436 C-48.83444731 440.85996424 -53.67293889 445.71587543 -58.51416016 450.5690918 C-60.15798104 452.21791744 -61.80090029 453.86764251 -63.44287109 455.51831055 C-65.81366858 457.90134347 -68.18777291 460.28103996 -70.5625 462.66015625 C-71.28679199 463.38960953 -72.01108398 464.11906281 -72.75732422 464.87062073 C-76.78641646 468.90014764 -80.90606475 472.75800556 -85.23039246 476.46974182 C-87.9961755 478.86143717 -90.6458889 481.37410574 -93.3125 483.875 C-98.0536474 488.28101147 -102.89729683 492.48875173 -107.94921875 496.5390625 C-110.26553634 498.40753891 -112.55452051 500.29615179 -114.83203125 502.2109375 C-124.18995953 510.05682852 -133.79697884 517.39373367 -143.77685547 524.4296875 C-145.9639262 525.97451936 -148.1411772 527.53230114 -150.31640625 529.09375 C-166.9818031 541.02055208 -184.25540123 551.75487271 -202 562 C-202.82338867 562.47969238 -203.64677734 562.95938477 -204.49511719 563.45361328 C-218.83568256 571.77184045 -233.76130178 578.5011434 -249 585 C-249.85464844 585.3722168 -250.70929688 585.74443359 -251.58984375 586.12792969 C-273.22869215 595.53416787 -296.27356729 602.13212359 -319.0625 608.125 C-320.66460327 608.54954468 -320.66460327 608.54954468 -322.29907227 608.98266602 C-328.52386976 610.56541063 -334.58988375 611.5733081 -341 612 C-340.3951227 609.09409463 -339.78319151 607.67828417 -338.0625 605.125 C-334.36703072 599.52580412 -333.70140154 594.43569199 -333.70947266 587.8425293 C-333.70275543 587.04656342 -333.69603821 586.25059753 -333.68911743 585.43051147 C-333.67019469 582.81168288 -333.66621607 580.19311137 -333.6640625 577.57421875 C-333.65763031 575.74347328 -333.65090163 573.91272882 -333.64389038 572.08198547 C-333.63193172 568.24807351 -333.62820808 564.41425156 -333.62939453 560.58032227 C-333.62959757 555.68460115 -333.60230449 550.78946147 -333.56785011 545.89387798 C-333.54553452 542.11301561 -333.54155843 538.33229209 -333.54261398 534.55137062 C-333.5402647 532.74737356 -333.53147929 530.94337228 -333.51594925 529.13944054 C-333.17021618 515.98184967 -333.17021618 515.98184967 -338 504 C-338.36976959 503.43605026 -338.73953918 502.87210052 -339.12051392 502.2910614 C-342.81444939 497.32166417 -347.92516115 494.16619943 -354 493 C-356.4138176 492.77882441 -358.83114597 492.59427758 -361.25 492.4375 C-362.51328125 492.35371094 -363.7765625 492.26992188 -365.078125 492.18359375 C-366.04234375 492.12300781 -367.0065625 492.06242188 -368 492 C-368.02578125 490.94941406 -368.0515625 489.89882813 -368.078125 488.81640625 C-368.41753889 479.31847411 -369.06875052 471.78124936 -375.3125 464.1875 C-381.63599031 459.040473 -387.24740539 456.83879815 -395.4296875 456.96484375 C-409.04220936 456.96590293 -418.89924235 456.07600985 -430 448 C-430.54479004 447.62697754 -431.08958008 447.25395508 -431.65087891 446.86962891 C-459.29652472 427.91284839 -476.85672333 399.00968397 -483.5390625 366.36669922 C-485.35027108 356.60809424 -486.54576311 346.9450166 -486 337 C-485.40832031 336.76925781 -484.81664062 336.53851562 -484.20703125 336.30078125 C-476.45381716 333.10084134 -472.21688653 329.42652 -468.86254883 321.69458008 C-467.26525752 316.70468364 -467.31896672 311.63821756 -467.25 306.4375 C-467.22035156 305.33341797 -467.19070313 304.22933594 -467.16015625 303.09179688 C-467.09009557 300.39446071 -467.03708532 297.69795673 -467 295 C-466.4330542 294.86013672 -465.8661084 294.72027344 -465.28198242 294.57617188 C-432.31540806 286.32374839 -403.48332542 271.49940979 -378 249 C-376.73349609 247.9171875 -376.73349609 247.9171875 -375.44140625 246.8125 C-370.48844135 242.53607837 -366.20897265 237.99815502 -362 233 C-361.08512004 231.95676375 -360.16829245 230.91523372 -359.25 229.875 C-358.22904939 228.70843596 -357.20822008 227.54176575 -356.1875 226.375 C-355.66244873 225.78348145 -355.13739746 225.19196289 -354.59643555 224.58251953 C-351.95545894 221.54159223 -349.66406196 218.58170142 -347.70703125 215.0546875 C-342.49084087 205.86503184 -342.49084087 205.86503184 -337.84179688 204.25048828 C-332.72249748 203.26608709 -327.57226378 203.16874227 -322.37255859 203.08203125 C-289.37521233 201.94114749 -253.35320185 179.95282155 -230 158 C-229.34580078 157.38817871 -228.69160156 156.77635742 -228.01757812 156.14599609 C-207.80518611 137.05187462 -192.75410537 115.14072538 -181 90 C-180.47921875 88.91074219 -179.9584375 87.82148438 -179.421875 86.69921875 C-168.64872831 63.02664643 -156.54461616 26.53795646 -164.90234375 0.6484375 C-170.61902056 -13.14482541 -179.33299972 -22.89970803 -193 -29 C-195.98318831 -30.13974199 -198.93342282 -31.09510837 -202 -32 C-202 -32.99 -202 -33.98 -202 -35 C-188.80147022 -39.40818257 -175.69218537 -43.45223043 -162 -46 C-160.82179688 -46.22558594 -159.64359375 -46.45117188 -158.4296875 -46.68359375 C-102.20331836 -55.80308315 -42.86235333 -36.35956016 0 0 Z " fill="#B0E0FE" transform="translate(1222,244)"/>
<path d="M0 0 C1.09859093 -0.00021904 1.09859093 -0.00021904 2.21937561 -0.0004425 C4.62170452 0.0002499 7.02395429 0.00801057 9.42626953 0.01586914 C11.09921222 0.01773571 12.77215545 0.01915849 14.44509888 0.02015686 C18.83448818 0.0239632 23.22384406 0.03377731 27.61322021 0.04486084 C32.09777372 0.05511554 36.58233266 0.05966316 41.06689453 0.06469727 C49.85597232 0.07540136 58.64502301 0.09245504 67.43408203 0.11352539 C67.47895752 1.32371338 67.52383301 2.53390137 67.57006836 3.78076172 C68.99967358 41.71710771 71.14655859 78.80777173 78.43408203 116.11352539 C78.63759277 117.15750488 78.84110352 118.20148438 79.05078125 119.27709961 C84.42185697 146.1139732 92.88549513 171.90232099 103.43408203 197.11352539 C103.78825195 197.98283691 104.14242188 198.85214844 104.50732422 199.74780273 C109.31190001 211.53933127 115.42527787 222.24310145 122.23242188 232.99560547 C123.43408203 235.11352539 123.43408203 235.11352539 124.47436523 237.75317383 C125.63495346 240.60755361 127.21332447 241.99989157 129.43408203 244.11352539 C130.69403065 245.77816842 131.92149373 247.4677236 133.12158203 249.17602539 C139.27867004 257.74788212 145.79455763 265.82213122 153.43408203 273.11352539 C158.43408203 278.11352539 158.43408203 278.11352539 160.06298828 279.84790039 C181.05776337 301.76311447 210.59691615 316.6955621 239.43408203 325.11352539 C240.13549316 325.32090332 240.8369043 325.52828125 241.55957031 325.74194336 C245.50736497 326.90468148 249.46409766 328.02848143 253.43408203 329.11352539 C253.45595581 330.18666992 253.45595581 330.18666992 253.47827148 331.28149414 C253.55327416 334.55934975 253.64976158 337.83624456 253.74658203 341.11352539 C253.76914062 342.23887695 253.79169922 343.36422852 253.81494141 344.52368164 C254.05347141 351.93979624 254.39296483 358.39156106 259.26611328 364.35571289 C263.16833559 367.57292971 266.37877629 369.9760816 271.43408203 371.11352539 C272.67510773 404.27648988 259.61809718 438.40574147 237.17626953 462.68383789 C230.13127767 470.08691443 222.69369158 476.51662581 214.08398438 482.03051758 C212.5414955 483.04301842 211.05688222 484.14218626 209.57861328 485.24633789 C201.03313055 490.94332638 192.778986 490.87322217 182.72216797 490.76416016 C174.68541254 490.73002491 169.30791061 491.71886376 163.19189453 497.07836914 C162.65306641 497.7293457 162.11423828 498.38032227 161.55908203 499.05102539 C161.00478516 499.69942383 160.45048828 500.34782227 159.87939453 501.01586914 C156.25797656 506.27181901 156.04385344 511.2290385 155.80908203 517.42602539 C155.77041016 518.26198242 155.73173828 519.09793945 155.69189453 519.95922852 C155.59813044 522.01031798 155.51503959 524.06189054 155.43408203 526.11352539 C154.39509766 526.12770508 153.35611328 526.14188477 152.28564453 526.15649414 C143.01284257 526.41586543 134.41396639 526.8521693 127.63720703 534.01196289 C126.11059608 535.98446516 124.77479559 538.01209347 123.43408203 540.11352539 C122.67095703 541.00040039 121.90783203 541.88727539 121.12158203 542.80102539 C118.48503373 547.97647205 118.60425839 553.37858203 118.43408203 559.11352539 C86.54581251 553.25692438 55.18262924 538.72420942 26.43408203 524.11352539 C25.58507324 523.68620117 24.73606445 523.25887695 23.86132812 522.81860352 C8.88583505 515.25265982 -5.99054108 507.06151402 -19.53613281 497.1262207 C-21.48253538 495.91674318 -21.48253538 495.91674318 -23.49998856 496.3795681 C-25.82225472 497.20459347 -26.92297265 498.10256249 -28.65057373 499.84414673 C-29.23350189 500.42439606 -29.81643005 501.00464539 -30.41702271 501.60247803 C-31.04462494 502.24243713 -31.67222717 502.88239624 -32.31884766 503.54174805 C-32.98933136 504.21339996 -33.65981506 504.88505188 -34.35061646 505.57705688 C-36.57004644 507.80368529 -38.77876595 510.04064244 -40.98779297 512.27758789 C-42.53159886 513.8295325 -44.07614505 515.38074102 -45.62139893 516.9312439 C-49.69528161 521.02226731 -53.76052944 525.12176047 -57.8236084 529.22351074 C-64.31042868 535.76942631 -70.80976695 542.30290494 -77.30991364 548.83558273 C-79.57258398 551.11213226 -81.83134183 553.39250636 -84.08953857 555.67349243 C-85.49140637 557.08539557 -86.89335921 558.49721428 -88.29541016 559.90893555 C-88.91491547 560.53674927 -89.53442078 561.16456299 -90.17269897 561.81140137 C-93.91083904 565.56816783 -97.78377837 569.10218535 -101.79395866 572.56657028 C-103.78291191 574.30296534 -105.66739659 576.11261493 -107.51586914 577.99755859 C-108.179832 578.67128006 -108.84379486 579.34500153 -109.52787781 580.03913879 C-110.21461075 580.74044418 -110.90134369 581.44174957 -111.60888672 582.16430664 C-113.10925171 583.68216757 -114.6099113 585.19973735 -116.11083984 586.71704102 C-118.44447404 589.08174759 -120.77567013 591.44871709 -123.10180664 593.82080078 C-125.36827359 596.12955168 -127.64404713 598.42878671 -129.92138672 600.72680664 C-130.61419235 601.43823318 -131.30699799 602.14965973 -132.02079773 602.88264465 C-136.43861793 607.32378076 -139.60216738 609.61024699 -145.87841797 610.67602539 C-149.76040212 610.08385832 -150.44653105 609.67010227 -153.20654297 607.15649414 C-153.90432861 606.52155029 -154.60211426 605.88660645 -155.32104492 605.23242188 C-159.27454502 601.50078214 -163.15774175 597.70605199 -167.00341797 593.86352539 C-167.81746094 593.06172852 -168.63150391 592.25993164 -169.47021484 591.43383789 C-170.24300781 590.66297852 -171.01580078 589.89211914 -171.81201172 589.09790039 C-172.5099585 588.4040625 -173.20790527 587.71022461 -173.92700195 586.99536133 C-176.23643391 584.34362567 -176.55052197 582.27672303 -176.87841797 578.80102539 C-176.45540391 573.80945953 -174.73542373 571.05057961 -170.98898315 567.70555115 C-170.07936325 566.94348106 -170.07936325 566.94348106 -169.15136719 566.16601562 C-163.95985354 561.67325514 -159.16096103 556.80566479 -154.33621597 551.92842293 C-152.66599199 550.24059816 -150.9920679 548.55652232 -149.31710815 546.87339783 C-144.56172116 542.09371924 -139.81224934 537.30819287 -135.06689453 532.51855469 C-132.15061978 529.57557892 -129.22955713 526.63742744 -126.30544662 523.70223808 C-125.19433568 522.5849098 -124.08512705 521.4656865 -122.97784805 520.34456062 C-121.43893199 518.78653831 -119.89405508 517.23467234 -118.34765625 515.68408203 C-117.47021759 514.79918594 -116.59277893 513.91428986 -115.68875122 513.00257874 C-113.56591797 511.11352539 -113.56591797 511.11352539 -111.56591797 511.11352539 C-111.56591797 510.45352539 -111.56591797 509.79352539 -111.56591797 509.11352539 C-110.14331055 507.71092224 -110.14331055 507.71092224 -108.14794922 506.06445312 C-103.26777054 501.91168088 -98.76813873 497.44210668 -94.25341797 492.89868164 C-93.3990918 492.04294052 -92.54476562 491.1871994 -91.66455078 490.30552673 C-88.96262935 487.59805158 -86.26422438 484.88710285 -83.56591797 482.17602539 C-81.7237022 480.32878864 -79.88125654 478.48178112 -78.03857422 476.63500977 C-73.54502736 472.13049536 -69.05435476 467.62313134 -64.56591797 463.11352539 C-65.55591797 463.77352539 -66.54591797 464.43352539 -67.56591797 465.11352539 C-85.6808881 457.4776187 -98.97693344 426.08734194 -106.04638672 408.94555664 C-113.63392029 389.97910125 -118.61328716 369.37171502 -118.80419922 348.87524414 C-118.81399307 348.00491547 -118.82378693 347.13458679 -118.83387756 346.23788452 C-119.2286448 302.01068914 -112.24667497 257.26666362 -84.56591797 221.11352539 C-84.01419922 220.38262695 -83.46248047 219.65172852 -82.89404297 218.89868164 C-81.14426188 216.61513706 -79.35796842 214.36400735 -77.56591797 212.11352539 C-76.94587891 211.30657227 -76.32583984 210.49961914 -75.68701172 209.66821289 C-65.84787519 197.15925373 -54.26061635 185.70430026 -41.56591797 176.11352539 C-40.69386719 175.45078613 -40.69386719 175.45078613 -39.80419922 174.7746582 C-32.29941123 169.09190895 -24.75904964 163.77730804 -16.56591797 159.11352539 C-13.92591797 162.41352539 -11.28591797 165.71352539 -8.56591797 169.11352539 C-9.34966797 167.93790039 -10.13341797 166.76227539 -10.94091797 165.55102539 C-11.48748047 164.72731445 -12.03404297 163.90360352 -12.59716797 163.05493164 C-14.0213104 160.92719503 -15.45803133 158.812118 -16.90966797 156.70336914 C-39.47249789 123.7503428 -55.45536659 81.54218655 -52.56591797 41.11352539 C-51.77606489 37.03788352 -50.54106925 33.74903822 -48.56591797 30.11352539 C-48.15341797 29.28208008 -47.74091797 28.45063477 -47.31591797 27.59399414 C-40.37993512 14.76636678 -29.74276684 6.72811648 -16.27685547 1.91040039 C-10.83236389 0.31000229 -5.65938664 -0.00952759 0 0 Z " fill="#B0E0FE" transform="translate(402.56591796875,209.886474609375)"/>
<path d="M0 0 C0.82430644 -0.00666801 1.64861288 -0.01333602 2.49789831 -0.02020609 C5.25435506 -0.03642198 8.00938696 -0.01708224 10.76580715 0.00215912 C12.76413185 -0.00217075 14.76245281 -0.00868753 16.76076406 -0.01720095 C22.24769667 -0.03419969 27.73417321 -0.02000588 33.22108185 -0.00068617 C39.14003048 0.01473275 45.05892293 0.00134105 50.9778738 -0.00843048 C61.90108109 -0.0221236 72.82412754 -0.01324848 83.74732098 0.00698569 C93.83785986 0.02554533 103.92834682 0.03396418 114.01890278 0.0324173 C114.68832883 0.03232562 115.35775488 0.03223395 116.04746657 0.03213949 C118.76489988 0.03174633 121.48233317 0.03129671 124.19976645 0.0307681 C149.68830825 0.02589758 175.17675795 0.04855569 200.66527112 0.08472433 C223.31041006 0.11672101 245.95547034 0.12876723 268.60063076 0.12264252 C270.05481889 0.12225567 271.50900702 0.12186922 272.96319515 0.12148315 C273.6821184 0.1212918 274.40104164 0.12110046 275.14175044 0.12090331 C278.76071681 0.11994897 282.3796832 0.1190346 285.9986496 0.11816406 C287.06960062 0.11790337 287.06960062 0.11790337 288.16218701 0.11763741 C307.08518155 0.11328245 326.00816759 0.12329601 344.9311561 0.13800192 C345.60428196 0.13852206 346.27740782 0.1390422 346.97093144 0.13957811 C347.97877691 0.14035712 347.97877691 0.14035712 349.0069829 0.14115188 C350.01298335 0.14192849 350.01298335 0.14192849 351.03930703 0.14272078 C352.38996414 0.14376887 353.74062125 0.14482909 355.09127835 0.1459015 C364.50792156 0.15328259 373.92455276 0.15537023 383.3411985 0.1539075 C395.4755454 0.152062 407.60981513 0.16045276 419.74413807 0.18554896 C425.59608491 0.19742104 431.44793314 0.20452601 437.29989147 0.1987114 C442.65452703 0.19354807 448.00895408 0.20219789 453.36355393 0.221986 C455.30285549 0.22673436 457.2421773 0.22641486 459.18147589 0.22057563 C461.81408882 0.21341348 464.44600718 0.22464202 467.0785675 0.24050903 C467.83439482 0.23405723 468.59022214 0.22760543 469.36895332 0.22095811 C475.19503695 0.28702972 480.01359123 1.4208609 484.43730068 5.37752533 C484.90394131 5.97436127 485.37058193 6.5711972 485.85136318 7.18611908 C486.57452724 8.08524017 486.57452724 8.08524017 487.31230068 9.00252533 C490.65135396 13.65254919 490.07581647 19.12518551 489.47636318 24.62361908 C487.84900041 29.16272063 485.22411249 32.43981535 481.22636318 35.12361908 C477.47636318 36.62361908 477.47636318 36.62361908 468.47636318 36.62361908 C468.47636318 43.88361908 468.47636318 51.14361908 468.47636318 58.62361908 C321.29636318 58.62361908 174.11636318 58.62361908 22.47636318 58.62361908 C24.83104035 106.89450099 27.68476652 153.97484304 40.47636318 200.62361908 C40.75061123 201.63762787 41.02485928 202.65163666 41.30741787 203.69637299 C48.8796362 231.28475986 60.37201656 259.50050776 77.47636318 282.62361908 C78.17366543 283.5771225 78.17366543 283.5771225 78.88505459 284.54988861 C85.77414302 293.93303996 92.99562325 302.83302295 101.09599209 311.19637299 C102.39498676 312.53947926 103.6765371 313.8993945 104.95683193 315.26033783 C133.58339358 345.0076784 175.10019995 366.22591417 215.47636318 373.62361908 C217.15665615 373.94266205 217.15665615 373.94266205 218.87089443 374.26815033 C229.74562601 376.20857098 240.50372668 376.79292101 251.53886318 376.74861908 C252.71102383 376.74668549 253.88318447 376.74475189 255.09086514 376.7427597 C264.57846137 376.69598117 274.01537208 376.31618836 283.47636318 375.62361908 C283.56375309 379.99849239 283.61688718 384.37313986 283.66386318 388.74861908 C283.70156826 390.60486908 283.70156826 390.60486908 283.74003506 392.49861908 C283.74970303 393.6974472 283.75937099 394.89627533 283.76933193 396.13143158 C283.78504238 397.23116302 283.80075283 398.33089447 283.81693935 399.46395111 C283.15065986 405.64530537 280.0830304 409.64513375 275.47636318 413.62361908 C272.20222908 415.83762606 269.54141294 417.62361908 265.47636318 417.62361908 C267.34869242 440.87043862 271.23435547 461.60055062 281.47636318 482.62361908 C281.94687099 483.60459564 282.41737881 484.5855722 282.90214443 485.59627533 C292.24197063 503.88128719 307.37275197 518.60571139 324.47636318 529.62361908 C325.35808193 530.2552597 326.23980068 530.88690033 327.14823818 531.53768158 C335.06221324 536.47806246 343.33117576 536.31067977 352.40531826 536.31136322 C361.13978437 536.34322846 368.81097877 537.61781422 375.90605068 543.02986908 C381.21181932 548.4148283 383.59780084 555.16089771 383.56425381 562.57479095 C383.5558749 563.31277924 383.54749599 564.05076752 383.53886318 564.81111908 C383.5320956 565.93550385 383.5320956 565.93550385 383.52519131 567.08260345 C383.51342672 568.92964291 383.49549184 570.77664121 383.47636318 572.62361908 C384.85308193 572.57141205 384.85308193 572.57141205 386.25761318 572.51815033 C397.11669981 572.27861165 403.6521621 573.1903947 411.71464443 580.65096283 C417.13958761 586.72545575 418.62487866 593.48315809 418.65336514 601.42464447 C418.65993633 602.21856598 418.66650753 603.01248749 418.67327785 603.83046722 C418.6930027 606.46073759 418.70467469 609.09095074 418.71464443 611.72127533 C418.71871996 612.62174528 418.72279549 613.52221523 418.72699451 614.44997215 C418.74785672 619.22066137 418.762155 623.99132185 418.7715292 628.76204681 C418.78256415 633.67229486 418.81692975 638.58208605 418.8567009 643.49217319 C418.88294849 647.28164212 418.89122848 651.07100383 418.89481068 654.86055565 C418.8996595 656.66931921 418.91122449 658.47807853 418.92984867 660.2867527 C419.13581567 681.62387054 419.13581567 681.62387054 411.22636318 690.49861908 C403.78524345 697.82922714 395.98693356 698.20220934 386.07804775 698.13155365 C384.71977874 698.13616738 383.36151473 698.14252346 382.00326109 698.15046263 C378.28552602 698.16711462 374.56820325 698.15892867 370.85046697 698.14651775 C366.83539246 698.13745254 362.82038793 698.15144427 358.80532742 698.16243744 C350.94563128 698.18021158 343.08608805 698.17638762 335.22638595 698.16478688 C328.83790227 698.15574848 322.44946141 698.15453031 316.06097317 698.15888214 C315.15127302 698.15949507 314.24157288 698.16010801 313.30430606 698.16073951 C311.45619117 698.16201843 309.60807629 698.16331528 307.75996143 698.16462988 C290.43555865 698.17603244 273.11124058 698.16292705 255.7868517 698.14142841 C240.9259889 698.12355772 226.06525108 698.12666192 211.20439053 698.14510345 C193.94142299 698.16651588 176.67852967 698.17493383 159.41555071 698.1626544 C157.57428488 698.16138022 155.73301905 698.16012274 153.8917532 698.15888214 C152.98584652 698.15826504 152.07993984 698.15764794 151.14658144 698.15701213 C144.76674954 698.15356035 138.38696476 698.15938388 132.00714016 698.16880035 C124.23083589 698.18002585 116.45469311 698.17696873 108.67840731 698.15567738 C104.71179832 698.14517433 100.74545843 698.14103226 96.77885151 698.15427399 C93.14556692 698.16621943 89.51280013 698.15960052 85.87956232 698.13836378 C83.94726481 698.13180021 82.01493118 698.14481465 80.08267164 698.1585927 C71.85118771 698.08438341 66.5254469 696.97503459 60.05058193 691.61580658 C59.42796474 690.9171347 58.80534756 690.21846283 58.16386318 689.49861908 C57.21060146 688.47381439 57.21060146 688.47381439 56.23808193 687.42830658 C50.31417502 677.99734169 50.98627825 667.08480495 50.97245693 656.35018158 C50.96279617 654.57717913 50.95270229 652.80417899 50.94219875 651.03118134 C50.92431466 647.32788809 50.91866987 643.62480397 50.92045498 639.92147064 C50.92075975 635.20520134 50.87977786 630.49028798 50.82813835 625.77433968 C50.79458265 622.11599974 50.78870319 618.45798132 50.79028416 614.79950333 C50.78677415 613.06215357 50.77367594 611.32479275 50.75028706 609.58759689 C50.61171877 598.23565416 51.26778664 588.51398477 59.295928 579.60424042 C64.61025811 574.53564664 70.52204717 572.25961932 77.77909756 572.3599472 C78.48357021 572.38508392 79.18804287 572.41022064 79.91386318 572.43611908 C80.64540615 572.44965424 81.37694912 572.46318939 82.13066006 572.4771347 C83.9128874 572.51208034 85.69472891 572.56587103 87.47636318 572.62361908 C87.42995693 571.41705658 87.38355068 570.21049408 87.33573818 568.96736908 C87.29819031 567.35281072 87.26179341 565.7382253 87.22636318 564.12361908 C87.19284756 563.3321347 87.15933193 562.54065033 87.12480068 561.72518158 C87.00716292 554.54927837 88.88827937 549.54042194 93.65995693 544.16268158 C94.40374599 543.53104095 95.14753506 542.89940033 95.91386318 542.24861908 C96.65507412 541.6015097 97.39628506 540.95440033 98.15995693 540.28768158 C102.4007779 537.24115589 105.94147884 536.38636329 111.12480068 536.49080658 C124.98499266 536.5342101 135.21589094 535.99109772 146.47636318 527.62361908 C147.0574081 527.21289154 147.63845303 526.802164 148.23710537 526.37899017 C161.85928958 516.69811838 173.83886777 504.9957804 182.47636318 490.62361908 C182.85244717 490.00035736 183.22853115 489.37709564 183.61601162 488.7349472 C196.64071843 466.70321347 201.46447653 442.85708438 203.47636318 417.62361908 C202.12091396 417.47666595 202.12091396 417.47666595 200.73808193 417.32674408 C194.87705079 416.06328826 190.96751336 411.69198867 187.53886318 406.93611908 C185.64382426 402.81162259 185.35559947 399.29330602 185.37870693 394.76424408 C185.38192959 393.64920502 185.38515224 392.53416595 185.38847256 391.38533783 C185.39685146 390.22647064 185.40523037 389.06760345 185.41386318 387.87361908 C185.4183749 386.69928314 185.42288662 385.5249472 185.42753506 384.31502533 C185.43931224 381.41783836 185.45575992 378.52075454 185.47636318 375.62361908 C184.14327114 375.37164764 184.14327114 375.37164764 182.78324795 375.11458588 C149.67617072 368.70553532 119.41159941 352.09391075 94.47636318 329.62361908 C93.63847256 328.90561127 92.80058193 328.18760345 91.93730068 327.44783783 C87.67349938 323.77583504 83.83507682 319.96343867 80.20683193 315.66268158 C78.43406521 313.57377812 76.58469866 311.57400173 74.72636318 309.56111908 C71.06021252 305.44752483 67.74853825 301.11407689 64.47636318 296.68611908 C63.98297451 296.02281586 63.48958584 295.35951263 62.98124599 294.67610931 C59.47636318 289.86960778 59.47636318 289.86960778 59.47636318 287.62361908 C57.82636318 287.62361908 56.17636318 287.62361908 54.47636318 287.62361908 C55.46636318 287.29361908 56.45636318 286.96361908 57.47636318 286.62361908 C56.98607632 285.82480316 56.98607632 285.82480316 56.48588467 285.00984955 C43.52114802 263.82218252 43.52114802 263.82218252 38.47636318 252.62361908 C38.07594814 251.73529388 37.6755331 250.84696869 37.26298428 249.93172455 C23.30421575 218.6251473 13.61528985 186.30887681 7.47636318 152.62361908 C7.29331631 151.64119232 7.11026943 150.65876556 6.92167568 149.6465683 C0.06735655 112.35137353 -0.740091 74.43317007 -0.52363682 36.62361908 C-2.50321039 36.66024017 -4.48278395 36.69686127 -6.46235752 36.73348236 C-11.28512201 36.47643581 -14.04641302 34.12253487 -17.27363682 30.74861908 C-21.25496424 25.21899765 -22.59737706 20.39383386 -21.52363682 13.62361908 C-17.85984814 4.09776852 -9.84342014 -0.16039159 0 0 Z " fill="#0055A5" transform="translate(470.52363681793213,163.37638092041016)"/>
<path d="M0 0 C2.50325826 0.01070913 5.00579678 0.00005503 7.5090332 -0.01269531 C20.0110261 -0.0247566 31.84193158 1.25539773 43.94848633 4.51074219 C45.15637817 4.83389404 45.15637817 4.83389404 46.38867188 5.16357422 C84.87669443 15.80798334 118.25972384 41.56935526 138.63598633 75.83105469 C150.47304253 96.78455337 158.8109172 119.95385114 159.57348633 144.26074219 C159.59926758 144.93443848 159.62504883 145.60813477 159.65161133 146.30224609 C161.11940888 189.33623545 146.59189217 229.25660938 117.63598633 261.07324219 C90.27557259 290.28444186 51.19024864 308.07408095 11.20629883 309.47949219 C-26.04662194 310.31127062 -62.02186759 299.43149794 -91.42651367 276.26074219 C-91.98032715 275.82648926 -92.53414062 275.39223633 -93.10473633 274.94482422 C-122.90057854 251.31363902 -143.89459978 215.9085428 -149.12573242 178.02246094 C-149.22499023 177.11109375 -149.32424805 176.19972656 -149.42651367 175.26074219 C-149.53608398 174.2771875 -149.6456543 173.29363281 -149.75854492 172.28027344 C-153.55276973 131.5555938 -143.72893587 90.62708618 -117.86401367 58.38574219 C-116.39678977 56.66714077 -114.91791689 54.9584033 -113.42651367 53.26074219 C-112.72010742 52.43316406 -112.01370117 51.60558594 -111.28588867 50.75292969 C-89.7226822 26.00953809 -60.58167774 8.99427253 -28.42651367 2.26074219 C-27.60070801 2.08099854 -26.77490234 1.90125488 -25.92407227 1.71606445 C-17.27345625 0.04577031 -8.77466137 -0.0445806 0 0 Z " fill="#026DC2" transform="translate(1130.426513671875,373.7392578125)"/>
<path d="M0 0 C0.33 0 0.66 0 1 0 C1 4.95 1 9.9 1 15 C2.50744593 14.99907821 4.01489185 14.99815641 5.56801796 14.99720669 C41.38829559 14.97552757 77.2085723 14.95904884 113.02885512 14.94893467 C117.44208832 14.94768403 121.85532151 14.9463897 126.26855469 14.94506836 C127.1471137 14.94480605 128.02567271 14.94454374 128.93085472 14.94427348 C143.13805738 14.93992757 157.34525597 14.93204596 171.55245622 14.9228472 C186.14098366 14.91348065 200.72950897 14.90793803 215.3180393 14.90591151 C224.31280605 14.90454251 233.30756131 14.90022575 242.30232452 14.89208353 C248.47857399 14.88677902 254.65481755 14.88520411 260.83106913 14.88649862 C264.38917956 14.88713623 267.94726998 14.88619035 271.50537682 14.88079453 C275.37595708 14.87496819 279.24651179 14.87702717 283.11709595 14.87974548 C284.7776709 14.87537622 284.7776709 14.87537622 286.47179282 14.87091869 C314.40005558 14.92360251 314.40005558 14.92360251 324.23828125 24.02734375 C329.66322443 30.10183667 331.14851547 36.85953901 331.17700195 44.80102539 C331.18357315 45.5949469 331.19014435 46.38886841 331.19691467 47.20684814 C331.21663952 49.83711851 331.22831151 52.46733166 331.23828125 55.09765625 C331.24235678 55.9981262 331.2464323 56.89859615 331.25063133 57.82635307 C331.27149354 62.59704229 331.28579182 67.36770277 331.29516602 72.13842773 C331.30620096 77.04867578 331.34056657 81.95846697 331.38033772 86.86855412 C331.40658531 90.65802304 331.4148653 94.44738475 331.41844749 98.23693657 C331.42329632 100.04570013 331.43486131 101.85445945 331.45348549 103.66313362 C331.65945249 125.00025146 331.65945249 125.00025146 323.75 133.875 C316.30888027 141.20560806 308.51057038 141.57859026 298.60168457 141.50793457 C297.24341556 141.5125483 295.88515155 141.51890438 294.52689791 141.52684355 C290.80916284 141.54349554 287.09184006 141.53530959 283.37410378 141.52289867 C279.35902928 141.51383346 275.34402475 141.52782519 271.32896423 141.53881836 C263.4692681 141.55659251 255.60972487 141.55276854 247.75002277 141.5411678 C241.36153909 141.5321294 234.97309822 141.53091123 228.58460999 141.53526306 C227.67490984 141.53587599 226.76520969 141.53648893 225.82794288 141.53712043 C223.97982799 141.53839935 222.13171311 141.5396962 220.28359824 141.5410108 C202.95919547 141.55241336 185.6348774 141.53930797 168.31048852 141.51780933 C153.44962572 141.49993864 138.5888879 141.50304284 123.72802734 141.52148438 C106.46505981 141.5428968 89.20216649 141.55131475 71.93918753 141.53903532 C70.0979217 141.53776114 68.25665586 141.53650366 66.41539001 141.53526306 C65.50948334 141.53464596 64.60357666 141.53402886 63.67021826 141.53339306 C57.29038636 141.52994128 50.91060158 141.5357648 44.53077698 141.54518127 C36.75447271 141.55640677 28.97832993 141.55334965 21.20204413 141.5320583 C17.23543514 141.52155525 13.26909525 141.51741318 9.30248833 141.53065491 C5.66920374 141.54260035 2.03643695 141.53598144 -1.59680086 141.5147447 C-3.52909837 141.50818113 -5.461432 141.52119557 -7.39369154 141.53497362 C-15.62517548 141.46076433 -20.95091628 140.35141551 -27.42578125 134.9921875 C-28.35970703 133.94417969 -28.35970703 133.94417969 -29.3125 132.875 C-30.26576172 131.85019531 -30.26576172 131.85019531 -31.23828125 130.8046875 C-37.16218816 121.37372261 -36.49008493 110.46118587 -36.50390625 99.7265625 C-36.51356701 97.95356005 -36.52366089 96.18055991 -36.53416443 94.40756226 C-36.55204852 90.70426901 -36.55769331 87.00118489 -36.5559082 83.29785156 C-36.55560344 78.58158226 -36.59658532 73.8666689 -36.64822483 69.1507206 C-36.68178053 65.49238066 -36.68765999 61.83436224 -36.68607903 58.17588425 C-36.68958903 56.43853449 -36.70268724 54.70117367 -36.72607613 52.96397781 C-36.86464442 41.61203508 -36.20857655 31.89036569 -28.18043518 22.98062134 C-22.94308022 17.98544335 -17.0680993 15.64478995 -9.90063477 15.72973633 C-9.12905029 15.75704834 -8.35746582 15.78436035 -7.5625 15.8125 C-5.066875 15.874375 -2.57125 15.93625 0 16 C0 10.72 0 5.44 0 0 Z " fill="#0055A5" transform="translate(558,720)"/>
<path d="M0 0 C0.95830215 -0.00686325 1.91660431 -0.0137265 2.90394592 -0.02079773 C6.06697465 -0.0390772 9.22950799 -0.03522689 12.39257812 -0.02954102 C14.59305991 -0.03410189 16.79354027 -0.03940718 18.99401855 -0.04542542 C23.60398143 -0.05435851 28.21377108 -0.05193061 32.82373047 -0.04199219 C38.7321257 -0.03049587 44.63992387 -0.05072357 50.54824066 -0.07990932 C55.09157103 -0.09825108 59.63475775 -0.09798299 64.17811584 -0.0922718 C66.35662169 -0.09211838 68.53513713 -0.09818033 70.71360779 -0.11056328 C73.75867243 -0.12543477 76.80262646 -0.11482437 79.84765625 -0.09765625 C81.19749352 -0.1121582 81.19749352 -0.1121582 82.57460022 -0.12695312 C86.61878708 -0.07918858 88.86594679 0.06983981 92.39733887 2.18540955 C95.39143875 5.46341325 96.67008182 8.08125176 96.69125366 12.52719116 C96.70404861 13.74669212 96.70404861 13.74669212 96.71710205 14.99082947 C96.71619568 15.87404373 96.71528931 16.757258 96.71435547 17.66723633 C96.72107269 18.60427902 96.72778992 19.54132172 96.73471069 20.50675964 C96.75371341 23.6053904 96.75761603 26.70380483 96.75976562 29.80249023 C96.76619191 31.9571644 96.77292014 34.11183769 96.77993774 36.26651001 C96.79191616 40.78405785 96.79561798 45.30152919 96.79443359 49.8190918 C96.79423036 55.60520515 96.82153472 61.39082757 96.85597801 67.17682457 C96.87822534 71.62753549 96.8822718 76.07812786 96.88121414 80.5288887 C96.88357328 82.66191932 96.89241434 84.79495306 96.90787888 86.92792892 C96.9274948 89.9129948 96.92171781 92.89699673 96.90966797 95.88208008 C96.92090698 96.76124588 96.932146 97.64041168 96.94372559 98.54621887 C96.88809729 103.97471929 96.07567449 107.12118633 92.42382812 111.40405273 C89.26372455 113.51078845 88.26470288 113.72293331 84.61132812 113.77905273 C83.77988281 113.80741211 82.9484375 113.83577148 82.09179688 113.86499023 C76.23693709 112.85346248 72.06295181 108.28598964 68.02539062 104.20092773 C67.30565567 103.47694794 67.30565567 103.47694794 66.57138062 102.73834229 C65.05904756 101.21492795 63.55386898 99.68466818 62.04882812 98.15405273 C61.0167436 97.11192281 59.98419559 96.07025169 58.95117188 95.02905273 C56.43668217 92.49266295 53.92855374 89.95008948 51.42382812 87.40405273 C47.97981025 89.02489927 45.81711294 90.82941518 43.17382812 93.59155273 C40.46055552 96.41870357 37.68203871 99.07077814 34.71118164 101.62109375 C30.71767661 105.10248249 26.94606569 108.75274024 23.21679688 112.51342773 C22.54572906 113.18595581 21.87466125 113.85848389 21.18325806 114.5513916 C19.74064583 115.99778057 18.29918883 117.44532254 16.85879517 118.8939209 C14.57323526 121.19236026 12.28446484 123.48755982 9.99487305 125.78198242 C5.13503351 130.65319451 0.27913848 135.52832678 -4.57617188 140.40405273 C-10.20690604 146.058463 -15.83928623 151.71121309 -21.47592163 157.35974121 C-23.72015467 159.61041072 -25.9613311 161.86409304 -28.20239258 164.11791992 C-29.59115881 165.51032193 -30.98006747 166.90258191 -32.36914062 168.29467773 C-32.98236176 168.91306519 -33.59558289 169.53145264 -34.22738647 170.1685791 C-37.23201389 173.17356648 -40.28932054 176.05897399 -43.50732422 178.83520508 C-47.82954994 182.5733603 -51.85978042 186.56134015 -55.88476562 190.61499023 C-56.67287628 191.40456116 -57.46098694 192.19413208 -58.27297974 193.00762939 C-59.97095956 194.70939238 -61.66778397 196.41230886 -63.36355591 198.11627197 C-66.05238955 200.81795544 -68.74441002 203.51642727 -71.43725586 206.21411133 C-77.15304456 211.941287 -82.86492285 217.67235091 -88.57617188 223.40405273 C-95.19815911 230.04975426 -101.8218386 236.69374987 -108.44973755 243.33355713 C-111.09282733 245.98309633 -113.73287014 248.63564569 -116.37280273 251.28833008 C-118.00424521 252.92340747 -119.63582959 254.55834328 -121.26757812 256.19311523 C-121.99300812 256.92371155 -122.71843811 257.65430786 -123.46585083 258.40704346 C-127.46098114 262.4025823 -131.56195739 266.20250879 -135.84070778 269.89247704 C-137.81888911 271.61545756 -139.68953614 273.41526243 -141.52612305 275.28808594 C-142.19008591 275.9618074 -142.85404877 276.63552887 -143.53813171 277.32966614 C-144.22486465 278.03097153 -144.9115976 278.73227692 -145.61914062 279.45483398 C-147.11950561 280.97269492 -148.6201652 282.4902647 -150.12109375 284.00756836 C-152.45472794 286.37227493 -154.78592403 288.73924443 -157.11206055 291.11132812 C-159.3785275 293.42007902 -161.65430103 295.71931406 -163.93164062 298.01733398 C-164.62444626 298.72876053 -165.31725189 299.44018707 -166.03105164 300.173172 C-170.44887184 304.61430811 -173.61242129 306.90077433 -179.88867188 307.96655273 C-183.77065603 307.37438566 -184.45678496 306.96062961 -187.21679688 304.44702148 C-187.91458252 303.81207764 -188.61236816 303.17713379 -189.33129883 302.52294922 C-193.28479893 298.79130948 -197.16799566 294.99657934 -201.01367188 291.15405273 C-201.82771484 290.35225586 -202.64175781 289.55045898 -203.48046875 288.72436523 C-204.25326172 287.95350586 -205.02605469 287.18264648 -205.82226562 286.38842773 C-206.5202124 285.69458984 -207.21815918 285.00075195 -207.93725586 284.28588867 C-210.24668781 281.63415301 -210.56077587 279.56725037 -210.88867188 276.09155273 C-210.46565782 271.09998687 -208.74567764 268.34110695 -204.99923706 264.99607849 C-204.39282379 264.48803177 -203.78641052 263.97998505 -203.16162109 263.45654297 C-197.97010744 258.96378248 -193.17121493 254.09619213 -188.34646988 249.21895027 C-186.6762459 247.53112551 -185.0023218 245.84704967 -183.32736206 244.16392517 C-178.57197506 239.38424658 -173.82250325 234.59872021 -169.07714844 229.80908203 C-166.16087368 226.86610627 -163.23981104 223.92795478 -160.31570053 220.99276543 C-159.20458959 219.87543714 -158.09538096 218.75621385 -156.98810196 217.63508797 C-155.4491859 216.07706565 -153.90430898 214.52519968 -152.35791016 212.97460938 C-151.4804715 212.08971329 -150.60303284 211.2048172 -149.69900513 210.29310608 C-147.57617188 208.40405273 -147.57617188 208.40405273 -145.57617188 208.40405273 C-145.57617188 207.74405273 -145.57617188 207.08405273 -145.57617188 206.40405273 C-144.14743614 204.99587917 -144.14743614 204.99587917 -142.14730835 203.34507751 C-137.33011979 199.24493676 -132.8905219 194.83724032 -128.43798828 190.34765625 C-127.5622113 189.46881271 -126.68643433 188.58996918 -125.78411865 187.68449402 C-123.89625265 185.78951157 -122.00930541 183.89366434 -120.12382889 181.99630928 C-117.14343167 178.99748231 -114.15857039 176.00312502 -111.17294312 173.00950623 C-102.68978754 164.50229474 -94.21270651 155.98904481 -85.73974609 147.47167969 C-81.04747998 142.75490127 -76.35165419 138.04169607 -71.65195215 133.33232635 C-68.68121347 130.35503865 -65.71504028 127.37329796 -62.75214696 124.38820374 C-60.48475492 122.10637968 -58.21087999 119.83103148 -55.93798828 117.5546875 C-55.11618073 116.72411835 -54.29437317 115.89354919 -53.44766235 115.03781128 C-52.69920044 114.29065353 -51.95073853 113.54349579 -51.17959595 112.7736969 C-50.52813913 112.11909768 -49.87668232 111.46449846 -49.20548439 110.7900629 C-47.57617188 109.40405273 -47.57617188 109.40405273 -45.57617188 109.40405273 C-45.57617188 108.74405273 -45.57617188 108.08405273 -45.57617188 107.40405273 C-44.23815918 106.08604431 -44.23815918 106.08604431 -42.30859375 104.50537109 C-36.51640852 99.57548863 -31.21767488 94.17004064 -25.85742188 88.78295898 C-24.74806354 87.6717315 -23.6384812 86.56072761 -22.52868652 85.44993591 C-19.63314572 82.55060903 -16.7406228 79.64829001 -13.84875488 76.74530029 C-10.88734323 73.77358967 -7.92303633 70.80477007 -4.95898438 67.83569336 C0.83809622 62.02794453 6.63198632 56.217026 12.42382812 50.40405273 C10.54939003 46.31954435 7.81126 43.58727003 4.61132812 40.50170898 C3.44193966 39.35274015 2.27267254 38.2036478 1.10351562 37.05444336 C-0.73741059 35.2570094 -2.58073572 33.46212195 -4.42675781 31.66992188 C-6.21221542 29.93284226 -7.98828765 28.18657421 -9.76367188 26.43920898 C-10.59185425 25.64366356 -10.59185425 25.64366356 -11.43676758 24.83204651 C-15.60173296 20.72123253 -17.37046521 17.70796734 -17.88867188 11.90405273 C-17.54787825 8.08716408 -16.9640549 6.36832132 -14.57617188 3.40405273 C-9.97413247 -0.28569962 -5.63234289 -0.02817542 0 0 Z " fill="#026CC2" transform="translate(436.576171875,512.595947265625)"/>
<path d="M0 0 C1.09859093 -0.00021904 1.09859093 -0.00021904 2.21937561 -0.0004425 C4.62170452 0.0002499 7.02395429 0.00801057 9.42626953 0.01586914 C11.09921222 0.01773571 12.77215545 0.01915849 14.44509888 0.02015686 C18.83448818 0.0239632 23.22384406 0.03377731 27.61322021 0.04486084 C32.09777372 0.05511554 36.58233266 0.05966316 41.06689453 0.06469727 C49.85597232 0.07540136 58.64502301 0.09245504 67.43408203 0.11352539 C67.50139526 1.92880737 67.50139526 1.92880737 67.57006836 3.78076172 C68.99967358 41.71710771 71.14655859 78.80777173 78.43408203 116.11352539 C78.63759277 117.15750488 78.84110352 118.20148438 79.05078125 119.27709961 C84.42185697 146.1139732 92.88549513 171.90232099 103.43408203 197.11352539 C103.78825195 197.98283691 104.14242187 198.85214844 104.50732422 199.74780273 C109.31190001 211.53933127 115.42527787 222.24310145 122.23242188 232.99560547 C123.53990424 235.3000365 124.50182934 237.63626542 125.43408203 240.11352539 C119.68495446 241.04808088 114.90232143 241.08155957 109.18408203 240.05102539 C108.02453003 239.84630615 108.02453003 239.84630615 106.84155273 239.63745117 C57.74789009 230.41239113 12.61926259 200.21081301 -15.56591797 159.11352539 C-37.61238458 126.05102079 -59.77449271 78.30977104 -51.88232422 37.58618164 C-50.96547062 34.9345345 -49.90424834 32.57688972 -48.56591797 30.11352539 C-48.15341797 29.28208008 -47.74091797 28.45063477 -47.31591797 27.59399414 C-40.37993512 14.76636678 -29.74276684 6.72811648 -16.27685547 1.91040039 C-10.83236389 0.31000229 -5.65938664 -0.00952759 0 0 Z " fill="#026CC1" transform="translate(402.56591796875,209.886474609375)"/>
<path d="M0 0 C20.13 0 40.26 0 61 0 C61.33 3.63 61.66 7.26 62 11 C62.33 11 62.66 11 63 11 C63.14695312 12.21171875 63.29390625 13.4234375 63.4453125 14.671875 C67.97861184 49.55612335 82.33709039 81.72643942 110.51171875 103.81640625 C113.90711053 106.37874533 117.42436887 108.69662832 121 111 C121.88171875 111.63164063 122.7634375 112.26328125 123.671875 112.9140625 C131.58585006 117.85444338 139.85481258 117.68706069 148.92895508 117.68774414 C157.66342119 117.71960938 165.33461559 118.99419515 172.4296875 124.40625 C180.65272795 132.75202239 180 141.49727671 180 153 C82.65 153 -14.7 153 -115 153 C-116.19077628 132.75680321 -116.19077628 132.75680321 -112 128 C-107.16533441 122.98527238 -102.54365402 118.32098796 -95.28369141 117.80810547 C-94.31608887 117.82760254 -93.34848633 117.84709961 -92.3515625 117.8671875 C-78.49137052 117.91059102 -68.26047225 117.36747864 -57 109 C-56.41895508 108.58927246 -55.83791016 108.17854492 -55.23925781 107.75537109 C-41.6170736 98.0744993 -29.63749542 86.37216132 -21 72 C-20.62391602 71.37673828 -20.24783203 70.75347656 -19.86035156 70.11132812 C-6.89481207 48.17967792 -2.52246946 25.22469464 0 0 Z " fill="#026DC2" transform="translate(674,582)"/>
<path d="M0 0 C0.82430644 -0.00666801 1.64861288 -0.01333602 2.49789831 -0.02020609 C5.25435506 -0.03642198 8.00938696 -0.01708224 10.76580715 0.00215912 C12.76413185 -0.00217075 14.76245281 -0.00868753 16.76076406 -0.01720095 C22.24769667 -0.03419969 27.73417321 -0.02000588 33.22108185 -0.00068617 C39.14003048 0.01473275 45.05892293 0.00134105 50.9778738 -0.00843048 C61.90108109 -0.0221236 72.82412754 -0.01324848 83.74732098 0.00698569 C93.83785986 0.02554533 103.92834682 0.03396418 114.01890278 0.0324173 C114.68832883 0.03232562 115.35775488 0.03223395 116.04746657 0.03213949 C118.76489988 0.03174633 121.48233317 0.03129671 124.19976645 0.0307681 C149.68830825 0.02589758 175.17675795 0.04855569 200.66527112 0.08472433 C223.31041006 0.11672101 245.95547034 0.12876723 268.60063076 0.12264252 C270.05481889 0.12225567 271.50900702 0.12186922 272.96319515 0.12148315 C273.6821184 0.1212918 274.40104164 0.12110046 275.14175044 0.12090331 C278.76071681 0.11994897 282.3796832 0.1190346 285.9986496 0.11816406 C287.06960062 0.11790337 287.06960062 0.11790337 288.16218701 0.11763741 C307.08518155 0.11328245 326.00816759 0.12329601 344.9311561 0.13800192 C345.60428196 0.13852206 346.27740782 0.1390422 346.97093144 0.13957811 C347.97877691 0.14035712 347.97877691 0.14035712 349.0069829 0.14115188 C350.01298335 0.14192849 350.01298335 0.14192849 351.03930703 0.14272078 C352.38996414 0.14376887 353.74062125 0.14482909 355.09127835 0.1459015 C364.50792156 0.15328259 373.92455276 0.15537023 383.3411985 0.1539075 C395.4755454 0.152062 407.60981513 0.16045276 419.74413807 0.18554896 C425.59608491 0.19742104 431.44793314 0.20452601 437.29989147 0.1987114 C442.65452703 0.19354807 448.00895408 0.20219789 453.36355393 0.221986 C455.30285549 0.22673436 457.2421773 0.22641486 459.18147589 0.22057563 C461.81408882 0.21341348 464.44600718 0.22464202 467.0785675 0.24050903 C467.83439482 0.23405723 468.59022214 0.22760543 469.36895332 0.22095811 C475.19503695 0.28702972 480.01359123 1.4208609 484.43730068 5.37752533 C484.90394131 5.97436127 485.37058193 6.5711972 485.85136318 7.18611908 C486.57452724 8.08524017 486.57452724 8.08524017 487.31230068 9.00252533 C490.65135396 13.65254919 490.07581647 19.12518551 489.47636318 24.62361908 C487.51726971 30.08799639 484.55907463 32.9343639 479.49032868 35.7601803 C476.04166959 37.2387091 472.74732435 37.17126822 469.04174614 37.12419033 C468.2149172 37.1297045 467.38808826 37.13521866 466.53620389 37.14089993 C463.76533702 37.15449635 460.99536699 37.1395972 458.22451687 37.12482452 C456.21809465 37.12871733 454.21167519 37.1343576 452.20526224 37.14159542 C446.6913985 37.15637079 441.17781974 37.14615635 435.66396511 37.13185871 C429.71775483 37.12076478 423.77158505 37.13268626 417.82537746 37.14170074 C406.85026698 37.15483957 395.87524357 37.14984439 384.90013859 37.13562546 C374.7618836 37.12257527 364.62366145 37.11737741 354.48539829 37.11994362 C353.47677938 37.12018424 353.47677938 37.12018424 352.44778433 37.12042973 C349.71827457 37.12109331 346.98876483 37.12179572 344.2592551 37.12255507 C318.65386513 37.12957934 293.04853299 37.11408676 267.44315774 37.08793161 C244.69078034 37.06481386 221.93846648 37.05942932 199.18607998 37.069664 C193.35940682 37.07226598 187.53273365 37.07485098 181.70606041 37.07726192 C180.98874338 37.07755937 180.27142636 37.07785682 179.53237246 37.07816328 C160.5236518 37.08577652 141.51493635 37.07936754 122.50621802 37.06856591 C120.46111028 37.06741809 118.41600254 37.06627491 116.3708948 37.06513908 C115.01421064 37.06438383 113.65752648 37.06361819 112.30084233 37.06284207 C102.16789115 37.05718172 92.03495643 37.05851504 81.9020052 37.0630703 C70.38206504 37.06817545 58.86218584 37.06203724 47.34226053 37.042176 C41.46208822 37.03228868 35.58201619 37.02721447 29.70183849 37.03506851 C24.32254797 37.04210666 18.94346014 37.03536439 13.56419642 37.01746488 C11.61478672 37.01340829 9.66535866 37.01444044 7.71595573 37.02098375 C5.07210592 37.02910074 2.42894455 37.01886226 -0.21486092 37.00393581 C-1.35778422 37.01404229 -1.35778422 37.01404229 -2.52379689 37.02435294 C-7.26789768 36.97233433 -10.49814101 36.13660589 -14.52363682 33.62361908 C-19.1148466 28.82371794 -21.53096676 24.92215364 -21.96113682 18.31111908 C-21.81569043 13.16916152 -20.11486816 9.3046312 -16.52363682 5.62361908 C-11.07458904 1.42199675 -6.83099753 -0.11130629 0 0 Z " fill="#026CC1" transform="translate(470.52363681793213,163.37638092041016)"/>
<path d="M0 0 C3.39043246 3.60306124 5.51162412 7.67653761 7.609375 12.109375 C7.93675156 12.78964752 8.26412811 13.46992004 8.60142517 14.17080688 C9.29662122 15.61709229 9.9891836 17.06464619 10.67929077 18.5133667 C11.75796502 20.76663835 12.85486991 23.01021535 13.95629883 25.25244141 C19.99692618 37.61469078 19.99692618 37.61469078 22.08984375 43.8515625 C24.36158108 51.00847644 24.36158108 51.00847644 29.75732422 55.89013672 C34.82134889 57.46322698 40.02497381 57.59995779 45.29003906 57.81201172 C52.34917069 58.1697066 59.37514278 58.91138903 66.40594482 59.62338257 C68.97300705 59.87238175 71.54118255 60.08571532 74.11181641 60.29418945 C75.72046413 60.44258718 77.32902942 60.59188187 78.9375 60.7421875 C80.04573624 60.82032433 80.04573624 60.82032433 81.17636108 60.90003967 C85.00549015 61.28779148 86.94439874 61.95610116 89.99389648 64.36376953 C92 67 92 67 92.16015625 70.4375 C90.77868682 74.67958795 88.65080573 77.06525923 85.4375 80 C84.93669922 80.48210937 84.43589844 80.96421875 83.91992188 81.4609375 C81.06711342 84.18063888 78.11620205 86.7792565 75.140625 89.36328125 C69.97778575 93.85490817 65.04597623 98.58384586 60.09179688 103.30273438 C57.1606778 106.08055778 54.2686899 108.78642598 51.10546875 111.30078125 C48.7825028 113.00220078 48.7825028 113.00220078 47 116 C46.90892107 117.99504016 46.90892107 117.99504016 47.26391602 120.1328125 C47.3739798 120.93106445 47.48404358 121.72931641 47.59744263 122.55175781 C48.22208726 126.35067307 48.96387217 130.1123089 49.77734375 133.875 C49.94875381 134.68437012 50.12016388 135.49374023 50.29676819 136.32763672 C50.83962824 138.88597282 51.38849484 141.44297641 51.9375 144 C52.30182084 145.7134591 52.66575615 147.42700022 53.02929688 149.140625 C53.70205128 152.30518177 54.37601402 155.46946712 55.05444336 158.6328125 C55.20702606 159.34711426 55.35960876 160.06141602 55.51681519 160.79736328 C55.85527236 162.34024746 56.20764079 163.88011521 56.57034302 165.41748047 C56.75539398 166.20783691 56.94044495 166.99819336 57.13110352 167.8125 C57.38694969 168.87791016 57.38694969 168.87791016 57.64796448 169.96484375 C58.33707668 173.94867753 57.92787136 177.48610462 55.8125 180.9375 C53.12837336 182.51095355 51.07515288 182.2172015 48 182 C45.38891602 180.93701172 45.38891602 180.93701172 42.75390625 179.4296875 C41.26685181 178.58881592 41.26685181 178.58881592 39.74975586 177.73095703 C38.69796143 177.11849121 37.64616699 176.50602539 36.5625 175.875 C35.46881104 175.25351074 34.37512207 174.63202148 33.24829102 173.99169922 C27.60000675 170.75772866 22.03042701 167.4221744 16.5234375 163.953125 C15.49919678 163.31133301 14.47495605 162.66954102 13.41967773 162.00830078 C11.47329666 160.77912488 9.53726862 159.53335489 7.61352539 158.26904297 C1.34906584 154.21696834 1.34906584 154.21696834 -5.86157227 153.36865234 C-10.93225091 154.86571536 -15.27281869 157.92108232 -19.6875 160.75 C-21.89980975 162.12438081 -24.11337461 163.49674314 -26.328125 164.8671875 C-27.43736328 165.5590918 -28.54660156 166.25099609 -29.68945312 166.96386719 C-34.70690838 170.04982418 -39.81278471 172.97175868 -44.9375 175.875 C-45.8246167 176.37999023 -46.7117334 176.88498047 -47.62573242 177.40527344 C-56.50592205 182.44849616 -56.50592205 182.44849616 -62 182 C-63.98934909 180.49260306 -64.88075 179.60261099 -65.36987305 177.13090515 C-65.23454282 170.84551287 -64.1737703 164.95990983 -62.8125 158.83203125 C-62.59053955 157.79358566 -62.3685791 156.75514008 -62.13989258 155.68522644 C-61.43524007 152.39238463 -60.71868763 149.1023047 -60 145.8125 C-59.28239934 142.51177775 -58.56757303 139.21054865 -57.86010742 135.90763855 C-57.42112395 133.85952374 -56.97624033 131.8126621 -56.5246582 129.76728821 C-54.95081031 122.9396594 -54.95081031 122.9396594 -55 116 C-56.38389138 113.78160565 -56.38389138 113.78160565 -58.4375 111.94140625 C-59.16839844 111.22533203 -59.89929688 110.50925781 -60.65234375 109.77148438 C-61.42707031 109.04251953 -62.20179688 108.31355469 -63 107.5625 C-64.11568359 106.47485352 -64.11568359 106.47485352 -65.25390625 105.36523438 C-69.3852454 101.36681658 -73.63615772 97.53332147 -77.98193359 93.77075195 C-81.66963973 90.53497496 -85.2381275 87.17234706 -88.8125 83.8125 C-89.56208984 83.11447266 -90.31167969 82.41644531 -91.08398438 81.69726562 C-92.16583008 80.68116211 -92.16583008 80.68116211 -93.26953125 79.64453125 C-93.91510986 79.03971924 -94.56068848 78.43490723 -95.22583008 77.81176758 C-97.04531125 75.95372853 -98.60758301 74.19938899 -100 72 C-99.89490328 66.00948718 -99.89490328 66.00948718 -97.5546875 63.36962891 C-93.61390003 61.25687874 -89.59514788 61.0803728 -85.1875 60.6484375 C-84.22279785 60.54407379 -83.2580957 60.43971008 -82.26416016 60.33218384 C-79.17723037 60.0012679 -76.08878543 59.68806885 -73 59.375 C-70.9517027 59.15737853 -68.90352373 58.93864023 -66.85546875 58.71875 C-48.45011912 56.76532392 -48.45011912 56.76532392 -40.20703125 56.52587891 C-37.00372153 55.76261241 -36.02967952 54.61439184 -34 52 C-32.35704965 48.97573417 -30.97416476 45.8543183 -29.59375 42.703125 C-29.18717163 41.79552429 -28.78059326 40.88792358 -28.36169434 39.95281982 C-27.06581209 37.05564801 -25.78251265 34.15311162 -24.5 31.25 C-23.21494483 28.3623657 -21.92730842 25.475901 -20.63830566 22.59002686 C-19.8384867 20.79707094 -19.04136959 19.00290641 -18.24743652 17.20733643 C-9.41676193 -2.69050341 -9.41676193 -2.69050341 0 0 Z " fill="#58B2F6" transform="translate(709,260)"/>
<path d="M0 0 C1.14655288 -0.0083016 1.14655288 -0.0083016 2.31626844 -0.0167709 C4.87365347 -0.03036771 7.4300609 -0.01541404 9.98742676 -0.00050354 C11.822397 -0.00428708 13.65736438 -0.00978741 15.49232483 -0.01687622 C20.47373191 -0.03084354 25.45479408 -0.01965204 30.43618202 -0.00316501 C35.64821268 0.0106805 40.86022322 0.00422598 46.07226562 0.0007019 C54.82512982 -0.00200061 63.57785691 0.01147897 72.33068848 0.03465271 C82.45148143 0.06126267 92.57204514 0.06300968 102.69286108 0.05126435 C112.4270709 0.04048668 122.16119777 0.04667356 131.895401 0.06081963 C136.03884338 0.06657951 140.18222506 0.06649671 144.32566833 0.06175423 C149.20454135 0.05698336 154.08316321 0.06709075 158.96198845 0.08870888 C160.75304759 0.09427541 162.54413088 0.09474327 164.33519173 0.08975601 C166.77916016 0.08380396 169.22236053 0.09630633 171.66625977 0.11352539 C172.37589229 0.10751535 173.08552482 0.1015053 173.81666136 0.09531313 C179.44163879 0.16743356 182.46480046 1.84046818 186.58312988 5.50120544 C190.03124942 9.44191348 189.52525478 13.9008646 189.57141113 18.86058044 C189.57948288 19.68318359 189.58755463 20.50578674 189.59587097 21.35331726 C189.60969709 23.09497479 189.62042583 24.83665925 189.6282959 26.57835388 C189.63980597 28.35317463 189.66024248 30.12796102 189.68981934 31.90257263 C189.73264557 34.47214697 189.74868632 37.0406928 189.75891113 39.61058044 C189.77641922 40.3962439 189.79392731 41.18190735 189.81196594 41.99137878 C189.79084206 47.41087154 188.83796392 51.28871854 185.33312988 55.50120544 C180.34976395 58.91411475 176.63413669 60.08840623 170.55982971 60.01586914 C169.80811963 60.02281467 169.05640955 60.0297602 168.28192037 60.0369162 C165.77923281 60.05511864 163.27750046 60.04494129 160.77478027 60.03465271 C158.97393589 60.04171463 157.17309745 60.0504608 155.37226868 60.0607605 C150.49203885 60.0832337 145.61213366 60.08031957 140.73187184 60.07143903 C136.6538287 60.06632346 132.57584624 60.07362634 128.49780935 60.0809111 C118.87556064 60.09790358 109.25347053 60.09435084 99.63122559 60.07762146 C89.71257789 60.06069948 79.79437027 60.07653727 69.87577063 60.10884434 C61.35155043 60.1355552 52.82746709 60.14281222 44.30320925 60.13432926 C39.2157279 60.12940458 34.12851133 60.13159093 29.04106331 60.15211678 C24.25642132 60.1704974 19.47241147 60.16448606 14.68780327 60.13991737 C12.93508595 60.13491709 11.18232026 60.13837891 9.42964172 60.15106583 C-6.54635163 60.25753315 -6.54635163 60.25753315 -12.34603882 55.84323025 C-16.9894317 51.12533143 -17.12385221 46.03925829 -17.10046387 39.81370544 C-17.10570572 38.99297546 -17.11094757 38.17224548 -17.11634827 37.3266449 C-17.12274567 35.5987104 -17.12146114 33.87073222 -17.11291504 32.14280701 C-17.10439493 29.50887661 -17.13321211 26.87711006 -17.16491699 24.24339294 C-17.16652907 22.55849776 -17.16595134 20.87359875 -17.16296387 19.18870544 C-17.17419785 18.40729187 -17.18543182 17.6258783 -17.19700623 16.82078552 C-17.11613352 10.43292715 -15.09623601 6.90188056 -10.50345612 2.36334133 C-6.95207275 0.03196184 -4.10783557 -0.05560031 0 0 Z " fill="#016DC2" transform="translate(619.6668701171875,765.4987945556641)"/>
<path d="M0 0 C9.11904592 -0.06968864 18.23799934 -0.12290666 27.35725403 -0.15543652 C31.59226934 -0.1710538 35.82710168 -0.19221954 40.06201172 -0.22631836 C44.15337915 -0.25905307 48.24457122 -0.2768826 52.33605957 -0.28463173 C53.89248411 -0.29015002 55.44889968 -0.30092569 57.00524902 -0.31719017 C66.30462286 -0.41045632 73.7786961 -0.36484029 81.8125 4.8125 C85.86762044 8.86762044 87.44168992 13.13455576 87.5 18.8125 C86.57166401 57.03572519 67.68641093 95.34716527 42 123 C41.43941895 123.60440918 40.87883789 124.20881836 40.30126953 124.83154297 C20.61202946 145.80451507 -6.84720689 164.89271521 -36 169 C-34.55779998 163.53337516 -32.74867509 158.27063174 -30.64111328 153.03027344 C-11.0131386 104.18081536 -4.46242471 52.04762288 0 0 Z " fill="#B1E1FE" transform="translate(939,244)"/>
<path d="M0 0 C1.62380376 0.00934075 3.24762174 0.01645089 4.8714447 0.0214386 C9.11815191 0.04040953 13.36398615 0.08942233 17.61035156 0.1449585 C21.954307 0.19636686 26.29840531 0.21899842 30.64257812 0.24414062 C39.14623123 0.29755289 47.64917849 0.38274254 56.15234375 0.48828125 C56.23274902 1.45950928 56.3131543 2.4307373 56.39599609 3.43139648 C56.70247587 7.12386461 57.01283589 10.81599903 57.32421875 14.50805664 C57.45707117 16.08935178 57.58894718 17.67072933 57.71972656 19.25219727 C61.66252501 66.88423538 70.67571593 113.45629505 88.8671875 157.76953125 C90.58612384 161.97061982 92.04587188 166.08768456 93.15234375 170.48828125 C65.06470589 164.47483751 41.81187279 150.22149988 21.15234375 130.48828125 C20.28609375 129.67488281 19.41984375 128.86148438 18.52734375 128.0234375 C-8.98948773 101.49549215 -29.93589944 58.98727102 -31.34765625 20.48828125 C-31.17988911 14.11312994 -30.32889353 10.06657129 -25.84765625 5.48828125 C-18.22047273 -0.91279607 -9.36588702 -0.1590771 0 0 Z " fill="#CEEDFE" transform="translate(414.84765625,243.51171875)"/>
<path d="M0 0 C4.84313514 2.56526499 8.51762438 6.42196751 10.96484375 11.31640625 C11.851033 18.50687848 11.57941408 23.91181924 7.12109375 29.7265625 C6.40953125 30.58121094 5.69796875 31.43585938 4.96484375 32.31640625 C3.99449216 33.52215033 3.0258931 34.72930591 2.05859375 35.9375 C-0.16886087 38.70616416 -2.41429621 41.45897983 -4.671875 44.203125 C-7.67992618 47.86691938 -10.62120744 51.57757255 -13.53515625 55.31640625 C-17.49389162 60.38921592 -21.52611143 65.39624651 -25.59765625 70.37890625 C-30.32366203 76.16495071 -34.91184061 82.03127794 -39.44140625 87.97265625 C-42.93753801 92.51762754 -46.58897287 96.93673423 -50.21875 101.375 C-53.56122121 105.47247647 -56.82921126 109.61120567 -60.03515625 113.81640625 C-64.29080164 119.39633675 -68.6842449 124.84967967 -73.13085938 130.27832031 C-75.83890104 133.59046357 -78.51850548 136.91787658 -81.1328125 140.3046875 C-81.62273682 140.93834229 -82.11266113 141.57199707 -82.61743164 142.22485352 C-83.53195705 143.41277588 -84.44167761 144.60442027 -85.34545898 145.80053711 C-89.45931877 151.13997259 -93.39091475 154.75305531 -100.03515625 156.31640625 C-107.04250023 157.10755799 -110.41750032 155.36810937 -116.03515625 151.31640625 C-118.2429763 149.47039787 -120.27368492 147.48983036 -122.29589844 145.44384766 C-122.86610214 144.87890091 -123.43630585 144.31395416 -124.02378845 143.73188782 C-125.88409208 141.8846592 -127.73335526 140.02682845 -129.58203125 138.16796875 C-130.88337226 136.86865178 -132.18515805 135.56978016 -133.48736572 134.27133179 C-136.20529983 131.55780388 -138.91777646 128.8389672 -141.62646484 126.11621094 C-145.08842782 122.63714028 -148.56370993 119.17173643 -152.04319382 115.71019936 C-154.73044661 113.03381582 -157.41047797 110.35029253 -160.08841705 107.66459274 C-161.36677515 106.38424222 -162.64734114 105.10609203 -163.93019867 103.83024979 C-165.7248468 102.04326971 -167.50951755 100.24686648 -169.29199219 98.44775391 C-169.8167363 97.92908249 -170.34148041 97.41041107 -170.88212585 96.87602234 C-175.80544569 91.86776974 -179.60745243 86.67706221 -179.59765625 79.37890625 C-179.37811095 73.5316831 -178.0627323 69.59056859 -174.03515625 65.31640625 C-168.94377471 61.16017642 -164.67026978 60.83564842 -158.1953125 60.6875 C-149.33251156 62.45129598 -143.14745946 69.80382035 -137.06640625 75.9921875 C-136.14549194 76.91734665 -135.22457764 77.8425058 -134.27575684 78.79570007 C-131.84917746 81.23363382 -129.43175124 83.68044416 -127.01623535 86.1293335 C-124.54111687 88.63535781 -122.05728825 91.13271747 -119.57421875 93.63085938 C-114.7193932 98.51768258 -109.8741997 103.41395604 -105.03515625 108.31640625 C-101.21308139 105.34947717 -98.4225448 102.46240313 -95.53515625 98.56640625 C-91.70928095 93.46912505 -87.76822504 88.49099875 -83.72265625 83.56640625 C-79.16580839 78.00656752 -74.74643337 72.36223473 -70.41015625 66.62890625 C-66.11512917 60.95541847 -61.69241704 55.44639531 -57.05371094 50.05126953 C-53.34094899 45.72061138 -49.8109223 41.26618363 -46.30688477 36.76586914 C-42.16796558 31.4588664 -37.93484696 26.23209689 -33.67602539 21.02099609 C-30.60269417 17.2583929 -27.58248768 13.46247791 -24.59765625 9.62890625 C-18.16537662 1.5682014 -10.66889344 -3.58360144 0 0 Z " fill="#FDFEFE" transform="translate(1222.03515625,451.68359375)"/>
<path d="M0 0 C0.71614583 1.953125 1.43229167 3.90625 2.1484375 5.859375 C2.9495057 7.98265353 2.9495057 7.98265353 3.96948242 9.84277344 C5.0473257 12.09906892 5.70219534 14.23989812 6.33984375 16.65625 C10.22181931 30.87532954 15.10435827 44.39538985 20.64453125 58.03515625 C22.37489302 62.31888103 23.87525039 66.52050588 25 71 C-8.3450844 63.86095932 -40.58094785 43.60186032 -61 16 C-61.75 13.1875 -61.75 13.1875 -62 11 C-42.58639999 4.20480216 -20.68010422 -1.13488377 0 0 Z " fill="#B1E1FE" transform="translate(483,343)"/>
<path d="M0 0 C2.475 0.495 2.475 0.495 5 1 C5.36351562 2.18335938 5.72703125 3.36671875 6.1015625 4.5859375 C11.66271929 22.47817739 11.66271929 22.47817739 25 35 C28.57512539 36.47139971 32.2224225 37.56428487 35.9375 38.625 C37.82609507 39.16423523 39.71056386 39.71820956 41.58984375 40.2890625 C42.41347412 40.52318848 43.23710449 40.75731445 44.08569336 40.99853516 C46 42 46 42 46.77563477 44.10693359 C46.84967529 44.73164551 46.92371582 45.35635742 47 46 C45.453125 46.5878125 45.453125 46.5878125 43.875 47.1875 C43.14796875 47.46722656 42.4209375 47.74695313 41.671875 48.03515625 C39.70216229 48.7464414 37.70782907 49.3904071 35.703125 49.99609375 C25.43515155 53.23566179 17.47445135 57.86975585 12.1875 67.5625 C9.13230472 74.4476008 7.10506868 81.78006232 5 89 C3.35 88.67 1.7 88.34 0 88 C-0.31453125 86.9378125 -0.6290625 85.875625 -0.953125 84.78125 C-5.74341288 67.80926036 -5.74341288 67.80926036 -17.75 55.5 C-20.85922025 53.85020966 -23.99473766 52.63186972 -27.328125 51.53125 C-28.09543945 51.27666016 -28.86275391 51.02207031 -29.65332031 50.75976562 C-31.20321691 50.25796806 -32.7600328 49.77700593 -34.32324219 49.31835938 C-36.5 48.625 -36.5 48.625 -40 47 C-41 44.3125 -41 44.3125 -41 42 C-40.42556152 41.80889648 -39.85112305 41.61779297 -39.25927734 41.42089844 C-36.62801957 40.53974784 -34.00157491 39.64500814 -31.375 38.75 C-30.47136719 38.44964844 -29.56773437 38.14929688 -28.63671875 37.83984375 C-19.85452877 34.82697565 -13.29378199 30.7843199 -8 23 C-6.18236207 19.09660382 -4.84943226 15.10482585 -3.5625 11 C-3.21251953 9.93910156 -2.86253906 8.87820313 -2.50195312 7.78515625 C-1.65032295 5.19526721 -0.81696858 2.60098733 0 0 Z " fill="#44A6F1" transform="translate(918,505)"/>
<path d="M0 0 C4.33535115 2.3096957 7.14863393 5.45729622 9 10 C9.71951251 14.60153351 9.43337657 18.11657853 7.375 22.3125 C4.15252727 25.9589823 1.55562546 28.63491065 -3.43359375 29.34765625 C-10.38753134 29.58530939 -13.62993189 28.10672721 -18.8125 23.5 C-21.70492671 19.83870036 -21.64322108 16.15029772 -21.421875 11.625 C-20.8232371 7.90014194 -19.54926582 5.75596305 -17 3 C-11.58844689 -0.85213472 -6.4513121 -1.0666852 0 0 Z " fill="#8DCDFD" transform="translate(1185,819)"/>
<path d="M0 0 C3.39416909 2.21358854 6.13539619 4.18020045 7.875 7.875 C8.63883943 12.78230804 8.55646415 17.18927289 6.6875 21.8125 C2.83456656 26.19687254 -0.4551397 28.56089879 -6.3125 29.25 C-11.2657585 28.76279425 -14.36802897 27.09042566 -18.125 23.875 C-21.14671976 19.53127785 -21.60052005 16.10572051 -21.125 10.875 C-19.77702171 5.7281738 -16.54894627 2.57176239 -12.25 -0.4375 C-7.91419652 -1.84025995 -4.2474362 -1.52907703 0 0 Z " fill="#8DCDFD" transform="translate(1237.125,820.125)"/>
<path d="M0 0 C3.85815752 2.09375621 6.33282852 4.9522278 8 9 C8.73285105 13.68683808 8.44402628 17.14366361 6.25 21.375 C2.30514682 25.97732871 -0.64117466 27.76411747 -6.75 28.375 C-11.60363766 28.30349153 -14.62742277 26.39042155 -18 23 C-20.93658291 18.64248987 -21.65166741 15.2133393 -21 10 C-16.06409212 0.67661844 -9.99155621 -2.25269749 0 0 Z " fill="#8DCDFD" transform="translate(1132,819)"/>
<path d="M0 0 C0.66 0.33 1.32 0.66 2 1 C1.42006287 1.57771652 0.84012573 2.15543304 0.24261475 2.75065613 C-5.23306699 8.20626728 -10.70631339 13.66430478 -16.17686844 19.12505627 C-18.98914181 21.93212005 -21.80233406 24.73824968 -24.61767578 27.54223633 C-27.33663923 30.25030242 -30.05312393 32.9608326 -32.76793671 35.67305946 C-33.80202827 36.7053091 -34.83699687 37.73668094 -35.8728714 38.76714134 C-37.32808953 40.21505809 -38.78010485 41.66611773 -40.23144531 43.11791992 C-41.47054657 44.35369026 -41.47054657 44.35369026 -42.73468018 45.61442566 C-45.06278443 47.98372173 -45.06278443 47.98372173 -47.11053467 50.74263 C-49 53 -49 53 -52 54 C-50.43056316 50.21698773 -48.06898723 47.82743453 -45.18310547 44.95605469 C-44.69513489 44.46779205 -44.20716431 43.97952942 -43.70440674 43.47647095 C-42.09669725 41.87015038 -40.48202899 40.27102287 -38.8671875 38.671875 C-37.74859765 37.55701683 -36.63044971 36.44171513 -35.51272583 35.32598877 C-32.57440675 32.39529391 -29.63013045 29.47065578 -26.68457031 26.54724121 C-23.67801738 23.56117275 -20.67714118 20.56941141 -17.67578125 17.578125 C-11.78939314 11.71316544 -5.896699 5.85459268 0 0 Z " fill="#EAF9FD" transform="translate(358,725)"/>
<path d="M0 0 C-1.48298314 3.57191639 -3.4524558 5.50306904 -6.375 8 C-12.53387783 13.3935202 -18.25916511 19.17038932 -24 25 C-24.66 24.67 -25.32 24.34 -26 24 C-22.62501264 20.57568181 -19.24358951 17.15790288 -15.85595703 13.74609375 C-14.70375906 12.58382014 -13.55336008 11.41976033 -12.40478516 10.25390625 C-10.75629586 8.58123721 -9.10150495 6.91503765 -7.4453125 5.25 C-6.6733403 4.46254395 -6.6733403 4.46254395 -5.88577271 3.65917969 C-2.22774341 0 -2.22774341 0 0 0 Z " fill="#075CBB" transform="translate(275,737)"/>
<path d="M0 0 C0.66 0.33 1.32 0.66 2 1 C-0.11905463 3.17277714 -2.24472878 5.33826908 -4.375 7.5 C-4.97828125 8.12003906 -5.5815625 8.74007812 -6.203125 9.37890625 C-6.78320312 9.96542969 -7.36328125 10.55195312 -7.9609375 11.15625 C-8.49509277 11.70087891 -9.02924805 12.24550781 -9.57958984 12.80664062 C-11 14 -11 14 -13 14 C-13 13.01 -13 12.02 -13 11 C-12.34 10.608125 -11.68 10.21625 -11 9.8125 C-6.68229344 7.20388562 -3.47212506 3.62720756 0 0 Z " fill="#0257BB" transform="translate(286,794)"/>
<path d="M0 0 C0.33 0.66 0.66 1.32 1 2 C-2.3810038 6.13621084 -5.66590534 9.81316569 -10 13 C-10.66 12.67 -11.32 12.34 -12 12 C-8.04 8.04 -4.08 4.08 0 0 Z " fill="#0E66C1" transform="translate(378,633)"/>
<path d="M0 0 C0.99 0.33 1.98 0.66 3 1 C-3.15034169 8.48291572 -3.15034169 8.48291572 -7 11 C-5.22054913 6.95579349 -2.60470327 3.53921513 0 0 Z " fill="#085FBD" transform="translate(1163,563)"/>
<path d="M0 0 C0 4.22023957 -1.85196466 6.668279 -4.5625 9.8125 C-6 11 -6 11 -8 11 C-6.63629701 8.00779732 -5.05091917 5.70973471 -2.875 3.25 C-2.33617187 2.63640625 -1.79734375 2.0228125 -1.2421875 1.390625 C-0.62730469 0.70226562 -0.62730469 0.70226562 0 0 Z " fill="#075FBC" transform="translate(1182,540)"/>
<path d="M0 0 C0.99 0.33 1.98 0.66 3 1 C-0.16952847 4.26008643 -3.39937989 7.22237877 -7 10 C-5.33248852 6.05860922 -2.77289351 3.2107188 0 0 Z " fill="#085FBC" transform="translate(1209,506)"/>
<path d="M0 0 C0 3.58912412 -0.66436554 4.10857029 -3 6.6875 C-3.556875 7.31011719 -4.11375 7.93273437 -4.6875 8.57421875 C-5.120625 9.04472656 -5.55375 9.51523437 -6 10 C-6.33 9.01 -6.66 8.02 -7 7 C-4.69 4.69 -2.38 2.38 0 0 Z " fill="#045FBC" transform="translate(645,666)"/>
<path d="M0 0 C-1.34710422 4.04131267 -3.38428334 4.90288434 -7 7 C-7.99 7 -8.98 7 -10 7 C-8.71372289 5.82739389 -7.42080217 4.6620717 -6.125 3.5 C-5.04605469 2.52546875 -5.04605469 2.52546875 -3.9453125 1.53125 C-2 0 -2 0 0 0 Z " fill="#C0E8FE" transform="translate(944,559)"/>
<path d="M0 0 C0.66 0.33 1.32 0.66 2 1 C0.88200014 2.33920838 -0.24461897 3.67122556 -1.375 5 C-2.00148438 5.7425 -2.62796875 6.485 -3.2734375 7.25 C-4.12808594 8.11625 -4.12808594 8.11625 -5 9 C-5.66 9 -6.32 9 -7 9 C-5.44499019 5.18315774 -2.96404505 2.80804268 0 0 Z " fill="#065EBD" transform="translate(1028,415)"/>
<path d="M0 0 C2.18092036 2.07858979 3.96390469 4.21856618 5.6875 6.6875 C6.12449219 7.31011719 6.56148437 7.93273437 7.01171875 8.57421875 C7.33785156 9.04472656 7.66398438 9.51523437 8 10 C7.01 10 6.02 10 5 10 C3.61328125 8.3203125 3.61328125 8.3203125 2.3125 6.125 C1.87550781 5.40570312 1.43851563 4.68640625 0.98828125 3.9453125 C0 2 0 2 0 0 Z " fill="#BFE9F9" transform="translate(656,567)"/>
</svg>
