<?xml version="1.0" encoding="UTF-8"?>
<svg version="1.1" xmlns="http://www.w3.org/2000/svg" width="1536" height="1024">
<path d="M0 0 C506.88 0 1013.76 0 1536 0 C1536 337.92 1536 675.84 1536 1024 C1029.12 1024 522.24 1024 0 1024 C0 686.08 0 348.16 0 0 Z " fill="#D2EFFE" transform="translate(0,0)"/>
<path d="M0 0 C2.08814354 -0.00379256 4.17628455 -0.00930026 6.26441956 -0.01637268 C11.88411745 -0.03021972 17.5035055 -0.01923483 23.12318587 -0.00266147 C29.03161409 0.01129073 34.94002617 0.00471766 40.84846497 0.00120544 C50.76295914 -0.00148805 60.67733166 0.01190684 70.59179688 0.03515625 C82.02481926 0.06178249 93.45763866 0.06350279 104.89068145 0.05176789 C115.93195686 0.04095972 126.97315944 0.04719959 138.01442909 0.06132317 C142.6946925 0.06705441 147.37490211 0.06702299 152.05516624 0.06225777 C157.57195684 0.05745775 163.08852731 0.0677141 168.60527611 0.08921242 C170.61993671 0.09473864 172.63461864 0.09528431 174.64928055 0.09025955 C198.79230109 0.0376304 220.01324499 4.7985609 237.89770508 22.18920898 C249.46472344 33.95180495 257.72786547 49.88464131 257.7948761 66.62069702 C257.8020314 67.85118774 257.80918671 69.08167847 257.81655884 70.34945679 C257.81939881 71.70538305 257.82211058 73.06130958 257.82470703 74.41723633 C257.83097695 75.85174726 257.83762422 77.28625658 257.84461975 78.72076416 C257.86561225 83.42638021 257.87602254 88.13199638 257.88598633 92.83764648 C257.89003668 94.46341595 257.89415368 96.08918525 257.89833641 97.71495438 C257.91738316 105.36039427 257.93161126 113.00582458 257.93994838 120.65128362 C257.9496976 129.44435634 257.97595844 138.23717576 258.01644927 147.03015935 C258.04674433 153.84572688 258.06143014 160.6612224 258.06472939 167.47685587 C258.06706604 171.53788107 258.07584271 175.59863558 258.10119057 179.65958786 C258.1247099 183.48957105 258.12861043 187.31910996 258.11842918 191.14914703 C258.11793933 192.54256557 258.12409398 193.93600777 258.13798523 195.32935715 C258.32148164 214.85307975 251.94901769 232.22015394 239.11254883 247.00952148 C225.60402987 260.66789723 207.09065954 269.39365597 187.78175354 269.6219635 C185.89535608 269.62483993 184.00894518 269.62225508 182.12255859 269.61523438 C180.5702076 269.61545341 180.5702076 269.61545341 178.98649597 269.61567688 C175.58317939 269.61498305 172.17991829 269.60721551 168.77661133 269.59936523 C166.41007009 269.59749917 164.04352846 269.59607616 161.67698669 269.59507751 C155.46114019 269.59126716 149.24531722 269.58144955 143.02947998 269.57037354 C136.68152179 269.56012753 130.33355979 269.55557306 123.9855957 269.55053711 C111.53962185 269.53982593 99.09366542 269.52276733 86.64770508 269.50170898 C86.64922396 270.39953222 86.65074284 271.29735546 86.65230775 272.22238547 C86.74185749 325.45742571 86.81047024 378.69245795 86.8519664 431.92755846 C86.85696911 438.32231123 86.86214641 444.71706386 86.86743164 451.11181641 C86.8690055 453.02140318 86.8690055 453.02140318 86.87061116 454.96956747 C86.88800724 475.57151082 86.91954057 496.17340943 86.95631626 516.77532626 C86.99374781 537.92131795 87.01594562 559.06728624 87.02405906 580.21330971 C87.02954222 593.25716668 87.04684842 606.30089719 87.07937095 619.34471523 C87.10054613 628.2943872 87.1068983 637.24399398 87.10171059 646.19368917 C87.09915351 651.35398814 87.10302018 656.51406641 87.12452698 661.67432594 C87.14410583 666.40675891 87.14490208 671.13882445 87.13130066 675.87127494 C87.12962159 677.57544108 87.13459928 679.2796309 87.14723781 680.98375101 C87.28259297 700.37573012 82.96846923 717.7539878 69.08911133 732.22045898 C61.48845722 739.32251018 53.47557488 744.11188223 43.64770508 747.50170898 C42.70843253 747.84718895 41.76915998 748.19266891 40.80142462 748.54861796 C35.08765788 750.14848478 29.15009716 749.77805527 23.26631737 749.75897789 C21.89092696 749.76167262 20.51553805 749.76524121 19.14015192 749.76960236 C15.35384974 749.77905962 11.56764379 749.77605995 7.78133689 749.77104682 C3.66458395 749.76778144 -0.45214837 749.77606169 -4.56889474 749.78286517 C-11.7864723 749.79317727 -19.00402302 749.79600686 -26.22160721 749.79395294 C-36.95460534 749.79090608 -47.68757372 749.79921998 -58.42056608 749.80970219 C-78.70475177 749.82905854 -98.98892736 749.83467104 -119.27312119 749.83581631 C-134.93693866 749.83673493 -150.60075215 749.8408492 -166.26456833 749.84721756 C-170.77127754 749.84901262 -175.27798676 749.85079224 -179.78469598 749.85256732 C-180.90504039 749.85300941 -182.02538479 749.85345151 -183.17967902 749.853907 C-214.6995872 749.86621804 -246.21949399 749.87410787 -277.73940468 749.87322044 C-279.52249922 749.87317371 -279.52249922 749.87317371 -281.34161588 749.87312603 C-287.3667622 749.87295981 -293.39190853 749.87276173 -299.41705485 749.87255661 C-301.21201717 749.87249678 -301.21201717 749.87249678 -303.04324135 749.87243573 C-305.4631435 749.87235486 -307.88304564 749.87227126 -310.30294779 749.87218495 C-347.95206202 749.87095946 -385.60114022 749.88597117 -423.25024414 749.91333008 C-465.53728032 749.94404653 -507.82429284 749.96126282 -550.11134088 749.95940363 C-554.61993623 749.95925437 -559.12853157 749.95915696 -563.63712692 749.959095 C-564.74727791 749.95907169 -565.85742889 749.95904838 -567.00122082 749.95902437 C-584.87246448 749.9589628 -602.74367688 749.97173883 -620.61491125 749.98895953 C-638.57458208 750.00590756 -656.53420714 750.00789637 -674.49388154 749.99474089 C-685.16469007 749.98734607 -695.83535967 749.9910256 -706.50615351 750.01062557 C-713.63536049 750.02261439 -720.76446671 750.0200467 -727.89366904 750.00568457 C-731.95483727 749.99791229 -736.01573639 749.9963964 -740.07688577 750.01259927 C-743.77712384 750.02723273 -747.47687051 750.02319664 -751.17708725 750.00475154 C-753.12309511 749.99972647 -755.06912418 750.01417471 -757.01507741 750.0295971 C-773.9262612 749.89341163 -788.48632965 743.44660243 -800.48510742 731.62280273 C-812.31788034 719.22335649 -817.5153996 704.08490054 -817.486516 687.1348877 C-817.48886823 686.19511159 -817.49122046 685.25533548 -817.49364397 684.2870813 C-817.50032081 681.12619039 -817.49987614 677.96534072 -817.49946594 674.80444336 C-817.50276538 672.51997789 -817.50649112 670.235513 -817.51060742 667.95104885 C-817.52062636 661.66375921 -817.52434405 655.37647911 -817.52699673 649.08918262 C-817.53049934 643.00762603 -817.53864666 636.92607711 -817.54654067 630.84452494 C-817.56737416 614.55112408 -817.57785316 598.25772141 -817.58667028 581.96431034 C-817.59087837 574.25465229 -817.59610014 566.54499502 -817.6013548 558.83533763 C-817.61924409 532.43864302 -817.6342396 506.04194818 -817.641675 479.64524841 C-817.64214975 477.98838816 -817.64262564 476.33152791 -817.64310266 474.67466766 C-817.64333903 473.85302396 -817.64357541 473.03138026 -817.64381895 472.18483826 C-817.64502013 468.0220699 -817.64623559 463.85930155 -817.64746094 459.6965332 C-817.64770109 458.87042345 -817.64794124 458.0443137 -817.64818866 457.19317032 C-817.65608046 430.41260008 -817.67951029 403.63207415 -817.71201688 376.85152325 C-817.74633058 348.53041924 -817.76602755 320.20934115 -817.76931924 291.88821602 C-817.76973677 288.77793502 -817.77021633 285.66765403 -817.77074242 282.55737305 C-817.77086561 281.79154745 -817.7709888 281.02572186 -817.77111572 280.23668943 C-817.77344581 267.92319115 -817.78909501 255.60974441 -817.80958426 243.29626448 C-817.8298608 230.91396522 -817.83531092 218.53172774 -817.82581363 206.14941496 C-817.8210633 199.44394 -817.82317914 192.73865239 -817.84257507 186.03318977 C-817.8601898 179.89043076 -817.85922231 173.74796088 -817.84367778 167.60519886 C-817.8412992 165.38710529 -817.84563818 163.16899178 -817.85750643 160.95092869 C-817.96202027 140.12228794 -814.57313664 122.39860516 -799.81616211 106.68676758 C-785.17591861 92.02191036 -768.45393911 89.99890647 -748.66891921 89.95921063 C-746.70497424 89.96476946 -744.74102885 89.97036259 -742.77708975 89.97770501 C-739.26850847 89.98635222 -735.76000808 89.97164073 -732.25144613 89.95999599 C-726.11292978 89.94278968 -719.97454607 89.94025188 -713.83601189 89.94751167 C-704.70837728 89.95823913 -695.58087276 89.9459902 -686.45325253 89.92913995 C-671.09658178 89.90143592 -655.73995229 89.89220676 -640.38325882 89.89359283 C-625.18338996 89.89490407 -609.98356167 89.8879512 -594.78370285 89.87001801 C-593.83779035 89.86890662 -592.89187786 89.86779523 -591.91730135 89.86665016 C-587.11327595 89.86096289 -582.30925074 89.85512852 -577.50522558 89.84923753 C-543.49917454 89.80780165 -509.49313363 89.78480912 -475.48706055 89.77270508 C-442.45547333 89.76090558 -409.42390855 89.74072574 -376.39233398 89.70922852 C-375.37373516 89.70826056 -374.35513634 89.70729261 -373.30567089 89.70629533 C-363.07626327 89.69656532 -352.84685581 89.68666524 -342.61744848 89.67664057 C-321.77990918 89.65622395 -300.94236888 89.63694229 -280.10482788 89.61834717 C-279.14680101 89.61749084 -278.18877413 89.61663451 -277.20171614 89.61575223 C-213.25192146 89.558721 -149.30210866 89.52814454 -85.35229492 89.50170898 C-85.34294922 88.66623535 -85.33360352 87.83076172 -85.32397461 86.9699707 C-85.27931996 83.79730151 -85.21743131 80.62551145 -85.14477539 77.45336914 C-85.10347808 75.43454762 -85.08112243 73.41536646 -85.05932617 71.39624023 C-84.58459961 52.12234202 -77.8887744 34.85303437 -64.20385742 21.15405273 C-45.38485609 3.64980355 -24.73010076 -0.12957622 0 0 Z " fill="#CAEBFE" transform="translate(1130.352294921875,109.498291015625)"/>
<path d="M0 0 C2.08814354 -0.00379256 4.17628455 -0.00930026 6.26441956 -0.01637268 C11.88411745 -0.03021972 17.5035055 -0.01923483 23.12318587 -0.00266147 C29.03161409 0.01129073 34.94002617 0.00471766 40.84846497 0.00120544 C50.76295914 -0.00148805 60.67733166 0.01190684 70.59179688 0.03515625 C82.02481926 0.06178249 93.45763866 0.06350279 104.89068145 0.05176789 C115.93195686 0.04095972 126.97315944 0.04719959 138.01442909 0.06132317 C142.6946925 0.06705441 147.37490211 0.06702299 152.05516624 0.06225777 C157.57195684 0.05745775 163.08852731 0.0677141 168.60527611 0.08921242 C170.61993671 0.09473864 172.63461864 0.09528431 174.64928055 0.09025955 C198.79230109 0.0376304 220.01324499 4.7985609 237.89770508 22.18920898 C249.46472344 33.95180495 257.72786547 49.88464131 257.7948761 66.62069702 C257.8020314 67.85118774 257.80918671 69.08167847 257.81655884 70.34945679 C257.81939881 71.70538305 257.82211058 73.06130958 257.82470703 74.41723633 C257.83097695 75.85174726 257.83762422 77.28625658 257.84461975 78.72076416 C257.86561225 83.42638021 257.87602254 88.13199638 257.88598633 92.83764648 C257.89003668 94.46341595 257.89415368 96.08918525 257.89833641 97.71495438 C257.91738316 105.36039427 257.93161126 113.00582458 257.93994838 120.65128362 C257.9496976 129.44435634 257.97595844 138.23717576 258.01644927 147.03015935 C258.04674433 153.84572688 258.06143014 160.6612224 258.06472939 167.47685587 C258.06706604 171.53788107 258.07584271 175.59863558 258.10119057 179.65958786 C258.1247099 183.48957105 258.12861043 187.31910996 258.11842918 191.14914703 C258.11793933 192.54256557 258.12409398 193.93600777 258.13798523 195.32935715 C258.32148164 214.85307975 251.94901769 232.22015394 239.11254883 247.00952148 C225.60402987 260.66789723 207.09065954 269.39365597 187.78175354 269.6219635 C185.89535608 269.62483993 184.00894518 269.62225508 182.12255859 269.61523438 C180.5702076 269.61545341 180.5702076 269.61545341 178.98649597 269.61567688 C175.58317939 269.61498305 172.17991829 269.60721551 168.77661133 269.59936523 C166.41007009 269.59749917 164.04352846 269.59607616 161.67698669 269.59507751 C155.46114019 269.59126716 149.24531722 269.58144955 143.02947998 269.57037354 C136.68152179 269.56012753 130.33355979 269.55557306 123.9855957 269.55053711 C111.53962185 269.53982593 99.09366542 269.52276733 86.64770508 269.50170898 C86.64922396 270.39953222 86.65074284 271.29735546 86.65230775 272.22238547 C86.74185749 325.45742571 86.81047024 378.69245795 86.8519664 431.92755846 C86.85696911 438.32231123 86.86214641 444.71706386 86.86743164 451.11181641 C86.8690055 453.02140318 86.8690055 453.02140318 86.87061116 454.96956747 C86.88800724 475.57151082 86.91954057 496.17340943 86.95631626 516.77532626 C86.99374781 537.92131795 87.01594562 559.06728624 87.02405906 580.21330971 C87.02954222 593.25716668 87.04684842 606.30089719 87.07937095 619.34471523 C87.10054613 628.2943872 87.1068983 637.24399398 87.10171059 646.19368917 C87.09915351 651.35398814 87.10302018 656.51406641 87.12452698 661.67432594 C87.14410583 666.40675891 87.14490208 671.13882445 87.13130066 675.87127494 C87.12962159 677.57544108 87.13459928 679.2796309 87.14723781 680.98375101 C87.28259297 700.37573012 82.96846923 717.7539878 69.08911133 732.22045898 C61.48845722 739.32251018 53.47557488 744.11188223 43.64770508 747.50170898 C42.70843253 747.84718895 41.76915998 748.19266891 40.80142462 748.54861796 C35.08765788 750.14848478 29.15009716 749.77805527 23.26631737 749.75897789 C21.89092696 749.76167262 20.51553805 749.76524121 19.14015192 749.76960236 C15.35384974 749.77905962 11.56764379 749.77605995 7.78133689 749.77104682 C3.66458395 749.76778144 -0.45214837 749.77606169 -4.56889474 749.78286517 C-11.7864723 749.79317727 -19.00402302 749.79600686 -26.22160721 749.79395294 C-36.95460534 749.79090608 -47.68757372 749.79921998 -58.42056608 749.80970219 C-78.70475177 749.82905854 -98.98892736 749.83467104 -119.27312119 749.83581631 C-134.93693866 749.83673493 -150.60075215 749.8408492 -166.26456833 749.84721756 C-170.77127754 749.84901262 -175.27798676 749.85079224 -179.78469598 749.85256732 C-180.90504039 749.85300941 -182.02538479 749.85345151 -183.17967902 749.853907 C-214.6995872 749.86621804 -246.21949399 749.87410787 -277.73940468 749.87322044 C-279.52249922 749.87317371 -279.52249922 749.87317371 -281.34161588 749.87312603 C-287.3667622 749.87295981 -293.39190853 749.87276173 -299.41705485 749.87255661 C-301.21201717 749.87249678 -301.21201717 749.87249678 -303.04324135 749.87243573 C-305.4631435 749.87235486 -307.88304564 749.87227126 -310.30294779 749.87218495 C-347.95206202 749.87095946 -385.60114022 749.88597117 -423.25024414 749.91333008 C-465.53728032 749.94404653 -507.82429284 749.96126282 -550.11134088 749.95940363 C-554.61993623 749.95925437 -559.12853157 749.95915696 -563.63712692 749.959095 C-564.74727791 749.95907169 -565.85742889 749.95904838 -567.00122082 749.95902437 C-584.87246448 749.9589628 -602.74367688 749.97173883 -620.61491125 749.98895953 C-638.57458208 750.00590756 -656.53420714 750.00789637 -674.49388154 749.99474089 C-685.16469007 749.98734607 -695.83535967 749.9910256 -706.50615351 750.01062557 C-713.63536049 750.02261439 -720.76446671 750.0200467 -727.89366904 750.00568457 C-731.95483727 749.99791229 -736.01573639 749.9963964 -740.07688577 750.01259927 C-743.77712384 750.02723273 -747.47687051 750.02319664 -751.17708725 750.00475154 C-753.12309511 749.99972647 -755.06912418 750.01417471 -757.01507741 750.0295971 C-773.9262612 749.89341163 -788.48632965 743.44660243 -800.48510742 731.62280273 C-812.31788034 719.22335649 -817.5153996 704.08490054 -817.486516 687.1348877 C-817.48886823 686.19511159 -817.49122046 685.25533548 -817.49364397 684.2870813 C-817.50032081 681.12619039 -817.49987614 677.96534072 -817.49946594 674.80444336 C-817.50276538 672.51997789 -817.50649112 670.235513 -817.51060742 667.95104885 C-817.52062636 661.66375921 -817.52434405 655.37647911 -817.52699673 649.08918262 C-817.53049934 643.00762603 -817.53864666 636.92607711 -817.54654067 630.84452494 C-817.56737416 614.55112408 -817.57785316 598.25772141 -817.58667028 581.96431034 C-817.59087837 574.25465229 -817.59610014 566.54499502 -817.6013548 558.83533763 C-817.61924409 532.43864302 -817.6342396 506.04194818 -817.641675 479.64524841 C-817.64214975 477.98838816 -817.64262564 476.33152791 -817.64310266 474.67466766 C-817.64333903 473.85302396 -817.64357541 473.03138026 -817.64381895 472.18483826 C-817.64502013 468.0220699 -817.64623559 463.85930155 -817.64746094 459.6965332 C-817.64770109 458.87042345 -817.64794124 458.0443137 -817.64818866 457.19317032 C-817.65608046 430.41260008 -817.67951029 403.63207415 -817.71201688 376.85152325 C-817.74633058 348.53041924 -817.76602755 320.20934115 -817.76931924 291.88821602 C-817.76973677 288.77793502 -817.77021633 285.66765403 -817.77074242 282.55737305 C-817.77086561 281.79154745 -817.7709888 281.02572186 -817.77111572 280.23668943 C-817.77344581 267.92319115 -817.78909501 255.60974441 -817.80958426 243.29626448 C-817.8298608 230.91396522 -817.83531092 218.53172774 -817.82581363 206.14941496 C-817.8210633 199.44394 -817.82317914 192.73865239 -817.84257507 186.03318977 C-817.8601898 179.89043076 -817.85922231 173.74796088 -817.84367778 167.60519886 C-817.8412992 165.38710529 -817.84563818 163.16899178 -817.85750643 160.95092869 C-817.96202027 140.12228794 -814.57313664 122.39860516 -799.81616211 106.68676758 C-785.17591861 92.02191036 -768.45393911 89.99890647 -748.66891921 89.95921063 C-746.70497424 89.96476946 -744.74102885 89.97036259 -742.77708975 89.97770501 C-739.26850847 89.98635222 -735.76000808 89.97164073 -732.25144613 89.95999599 C-726.11292978 89.94278968 -719.97454607 89.94025188 -713.83601189 89.94751167 C-704.70837728 89.95823913 -695.58087276 89.9459902 -686.45325253 89.92913995 C-671.09658178 89.90143592 -655.73995229 89.89220676 -640.38325882 89.89359283 C-625.18338996 89.89490407 -609.98356167 89.8879512 -594.78370285 89.87001801 C-593.83779035 89.86890662 -592.89187786 89.86779523 -591.91730135 89.86665016 C-587.11327595 89.86096289 -582.30925074 89.85512852 -577.50522558 89.84923753 C-543.49917454 89.80780165 -509.49313363 89.78480912 -475.48706055 89.77270508 C-442.45547333 89.76090558 -409.42390855 89.74072574 -376.39233398 89.70922852 C-375.37373516 89.70826056 -374.35513634 89.70729261 -373.30567089 89.70629533 C-363.07626327 89.69656532 -352.84685581 89.68666524 -342.61744848 89.67664057 C-321.77990918 89.65622395 -300.94236888 89.63694229 -280.10482788 89.61834717 C-279.14680101 89.61749084 -278.18877413 89.61663451 -277.20171614 89.61575223 C-213.25192146 89.558721 -149.30210866 89.52814454 -85.35229492 89.50170898 C-85.34294922 88.66623535 -85.33360352 87.83076172 -85.32397461 86.9699707 C-85.27931996 83.79730151 -85.21743131 80.62551145 -85.14477539 77.45336914 C-85.10347808 75.43454762 -85.08112243 73.41536646 -85.05932617 71.39624023 C-84.58459961 52.12234202 -77.8887744 34.85303437 -64.20385742 21.15405273 C-45.38485609 3.64980355 -24.73010076 -0.12957622 0 0 Z M-767.35229492 145.50170898 C-768.66381928 149.43628205 -768.49362073 153.18327086 -768.486516 157.28467941 C-768.48886823 158.19776556 -768.49122046 159.11085171 -768.49364397 160.05160713 C-768.50035015 163.13970214 -768.49987526 166.22775524 -768.49946594 169.31585693 C-768.50276355 171.5408501 -768.5064889 173.76584267 -768.51060742 175.99083447 C-768.5206471 182.12739288 -768.52434737 188.26394151 -768.52699673 194.40050697 C-768.53049408 200.33195346 -768.53864075 206.26339312 -768.54654067 212.19483497 C-768.56739443 228.0900776 -768.57785606 243.98532209 -768.58667028 259.8805752 C-768.59087518 267.39786333 -768.59609736 274.91515066 -768.6013548 282.43243812 C-768.61924519 308.1573533 -768.63424218 333.88226871 -768.641675 359.60718918 C-768.64214975 361.22248593 -768.64262564 362.83778267 -768.64310266 364.45307942 C-768.64333903 365.2541323 -768.64357541 366.05518518 -768.64381895 366.88051239 C-768.64502016 370.93914042 -768.64623561 374.99776845 -768.64746094 379.05639648 C-768.64770109 379.86184757 -768.64794124 380.66729865 -768.64818866 381.49715734 C-768.6560838 407.61917856 -768.67951995 433.74115441 -768.71201688 459.86315581 C-768.74629993 487.47120709 -768.76602469 515.07923181 -768.76931924 542.68730474 C-768.76973679 545.71690322 -768.77021635 548.74650169 -768.77074242 551.77610016 C-768.77086561 552.52208996 -768.7709888 553.26807975 -768.77111572 554.0366753 C-768.77344958 566.05138532 -768.78911976 578.06604271 -768.80958426 590.08073396 C-768.82982089 602.15298121 -768.83532982 614.22516512 -768.82581363 626.29742619 C-768.82105073 632.83997755 -768.82324715 639.38239153 -768.84257507 645.92492294 C-768.86010622 651.91076902 -768.85929098 657.89631774 -768.84367778 663.88216653 C-768.84128639 666.05110047 -768.84570384 668.22005445 -768.85750643 670.38895759 C-768.87253074 673.33146097 -768.86301814 676.27289777 -768.84727955 679.21537399 C-768.85750176 680.06247389 -768.86772396 680.90957379 -768.87825593 681.78234339 C-768.81125412 687.50031722 -767.84416196 690.90268796 -764.35229492 695.50170898 C-759.55979031 699.61482731 -754.77988316 700.07569186 -748.66665745 699.9939003 C-747.38572926 700.00082336 -747.38572926 700.00082336 -746.07892373 700.00788629 C-743.21583946 700.01847876 -740.35365399 700.0005262 -737.49061584 699.98272705 C-735.41804733 699.98447136 -733.34547968 699.98797368 -731.27291673 699.99308372 C-725.57643085 700.0020351 -719.88024533 699.98601756 -714.18379772 699.96597147 C-708.04139581 699.94871336 -701.89901113 699.95454202 -695.7565918 699.95758057 C-685.11402379 699.95967896 -674.4715637 699.9472581 -663.82902718 699.92462921 C-652.66766966 699.90095802 -641.50635123 699.88556481 -630.3449688 699.88121796 C-629.65089024 699.880943 -628.95681168 699.88066804 -628.24170043 699.88038475 C-624.71680068 699.87903141 -621.19190089 699.87782588 -617.66700106 699.87667724 C-592.70261603 699.86827645 -567.73828205 699.84132941 -542.77392578 699.8034668 C-518.52197542 699.76672713 -494.27003903 699.73839363 -470.01806641 699.72143555 C-469.27046508 699.72090944 -468.52286375 699.72038334 -467.75260783 699.71984129 C-460.24486191 699.71456719 -452.73711589 699.70946394 -445.22936976 699.70448585 C-429.93533736 699.6943411 -414.64130586 699.68305609 -399.34727478 699.67108154 C-398.64408586 699.67053238 -397.94089694 699.66998322 -397.21639926 699.66941742 C-350.26167614 699.63261713 -303.30698298 699.56915339 -256.35229492 699.50170898 C-256.1748877 697.67337524 -256.1748877 697.67337524 -255.99389648 695.80810547 C-255.82730076 694.18379718 -255.66028631 692.5595318 -255.49291992 690.93530273 C-255.41638184 690.13491577 -255.33984375 689.33452881 -255.26098633 688.5098877 C-254.49311086 681.20202436 -252.51559875 675.16408633 -249.35229492 668.50170898 C-248.93206055 667.57100586 -248.51182617 666.64030273 -248.07885742 665.68139648 C-240.18400364 649.66351395 -225.09572322 637.06909367 -208.38005066 631.15983582 C-197.72115291 627.70039222 -187.74667551 627.04158983 -176.64526367 627.06811523 C-174.94956761 627.06354055 -173.25387338 627.05823122 -171.55818176 627.05223083 C-168.02064437 627.04334839 -164.4833333 627.04566592 -160.94580078 627.05566406 C-156.45434681 627.06713299 -151.96368157 627.04694928 -147.47233105 627.01774693 C-143.97430105 626.99923202 -140.47645464 626.99970773 -136.97838783 627.00538445 C-135.32449553 627.00553588 -133.67058931 626.99964222 -132.01674461 626.98709297 C-118.24500712 626.89730447 -105.48704087 628.65519363 -93.10229492 635.18920898 C-92.44028076 635.53242187 -91.7782666 635.87563477 -91.09619141 636.22924805 C-73.783835 645.52464203 -62.76526586 660.89392842 -57.03979492 679.50170898 C-55.53363303 685.09691369 -54.79540387 690.48932403 -54.52807617 696.27124023 C-54.59745516 698.47300437 -54.59745516 698.47300437 -53.35229492 699.50170898 C-50.83902227 699.61804354 -48.3528511 699.66970321 -45.83837891 699.67871094 C-45.05129044 699.68528214 -44.26420197 699.69185333 -43.45326233 699.69862366 C-40.83497023 699.71841461 -38.2167358 699.73003573 -35.59838867 699.73999023 C-34.70462084 699.74406576 -33.810853 699.74814129 -32.8900013 699.75234032 C-28.15404616 699.77323171 -23.41812021 699.7875167 -18.68212891 699.796875 C-13.79852918 699.8079099 -8.91538884 699.84226698 -4.03195095 699.8820467 C-0.27172526 699.90825647 3.4883921 699.916571 7.2487011 699.92015648 C9.04795348 699.92501588 10.84720123 699.93661142 12.64636421 699.95519447 C15.17394831 699.97966559 17.70035989 699.97860603 20.22802734 699.97167969 C20.96445465 699.98448975 21.70088196 699.9972998 22.45962524 700.01049805 C27.71423557 699.95833738 32.53535087 698.93956673 36.64770508 695.50170898 C42.06292032 688.89053267 41.1949815 681.24005153 41.12872314 673.11976624 C41.13046822 671.53392351 41.13397198 669.94808191 41.13907981 668.36224645 C41.1480161 664.01111092 41.13203477 659.66036986 41.11196756 655.30928457 C41.09468752 650.61474913 41.10053966 645.92023579 41.10357666 641.22567749 C41.10567367 633.09425146 41.09312777 624.96295386 41.07062531 616.83156013 C41.0381118 605.07496337 41.02769895 593.31842868 41.02267334 581.56179183 C41.01391968 562.48728566 40.98730213 543.41284792 40.94946289 524.33837891 C40.91274467 505.80973656 40.88443197 487.2811128 40.86743164 468.75244141 C40.86638075 467.61026116 40.86532985 466.46808092 40.86424711 465.29128916 C40.85902695 459.56128443 40.85397212 453.83127956 40.8489995 448.10127461 C40.80753524 400.56803877 40.73708483 353.03487722 40.64770508 305.50170898 C36.79340952 307.29924875 34.13425319 309.64975354 31.02270508 312.56420898 C26.28612089 316.98967705 24.28184967 318.85512681 17.62036133 318.79467773 C15.64770508 318.50170898 15.64770508 318.50170898 13.21020508 316.62670898 C11.01577365 313.64228224 10.5170033 311.9731366 10.44238281 308.32739258 C10.42243759 307.46665131 10.40249237 306.60591003 10.38194275 305.71908569 C10.36523026 304.78883575 10.34851776 303.85858582 10.33129883 302.90014648 C10.31051773 301.94854645 10.28973663 300.99694641 10.26832581 300.01651001 C10.20282375 296.96998466 10.14394228 293.92337155 10.08520508 290.87670898 C10.04202048 288.81419983 9.99840622 286.75169962 9.9543457 284.68920898 C9.84714168 279.62679944 9.74587606 274.56430143 9.64770508 269.50170898 C8.83205078 269.48188965 8.01639648 269.46207031 7.17602539 269.44165039 C4.08937523 269.36258392 1.0030514 269.27587225 -2.08325195 269.18432617 C-4.05168435 269.12815325 -6.02035254 269.08044428 -7.98901367 269.03295898 C-30.16950799 268.35741093 -49.98900679 262.3242918 -65.73901367 246.03295898 C-76.61222463 233.47984616 -83.34693812 218.06851835 -83.55761719 201.39477539 C-83.56751678 200.71114929 -83.57741638 200.02752319 -83.58761597 199.32318115 C-83.61898255 197.08324543 -83.64388911 194.84328857 -83.66870117 192.60327148 C-83.68929221 191.04242428 -83.71028922 189.48158238 -83.73167419 187.92074585 C-83.78667297 183.82733477 -83.83617942 179.73387524 -83.88452148 175.64038086 C-83.93489933 171.45739466 -83.99050011 167.2744782 -84.0456543 163.09155273 C-84.1529641 154.89499724 -84.25446855 146.69838312 -84.35229492 138.50170898 C-148.59176522 138.38175613 -212.83124879 138.27045652 -277.07080078 138.20530701 C-278.02126917 138.20434061 -278.97173755 138.20337421 -279.95100801 138.20237852 C-300.6062722 138.18142913 -321.26153758 138.16203772 -341.91680473 138.14425168 C-352.04585511 138.13552017 -362.17490517 138.12644432 -372.30395508 138.1171875 C-373.31192782 138.11627219 -374.31990057 138.11535687 -375.35841794 138.11441382 C-408.04126637 138.08457394 -440.72403018 138.03198703 -473.40682733 137.96762844 C-506.98716016 137.90162239 -540.56744616 137.85851603 -574.14784276 137.84430405 C-578.88870275 137.84228691 -583.62956258 137.84000745 -588.37042236 137.83756828 C-589.30350955 137.83709632 -590.23659674 137.83662436 -591.1979593 137.8361381 C-606.22998931 137.82785975 -621.26187467 137.79537641 -636.29384565 137.75388475 C-651.39889126 137.71270636 -666.50379318 137.69692496 -681.60889298 137.70719934 C-690.58787223 137.71253136 -699.56632639 137.69825946 -708.54521102 137.65612618 C-714.54052662 137.62991049 -720.53549771 137.6290391 -726.53083694 137.64888629 C-729.94883217 137.65947247 -733.36583332 137.65893447 -736.78372264 137.62752671 C-740.46542396 137.59956295 -744.14452834 137.61449128 -747.82618713 137.64037418 C-749.41906273 137.61279054 -749.41906273 137.61279054 -751.04411763 137.58464965 C-758.38515546 137.70182688 -762.69642403 139.71128975 -767.35229492 145.50170898 Z " fill="#0371CC" transform="translate(1130.352294921875,109.498291015625)"/>
<path d="M0 0 C1.17038285 -0.00445668 1.17038285 -0.00445668 2.3644098 -0.0090034 C4.98744731 -0.01769741 7.61043921 -0.01919926 10.23348999 -0.02069092 C12.11093239 -0.0253187 13.98837385 -0.03034331 15.86581421 -0.03573608 C20.97351562 -0.0488684 26.08120388 -0.055307 31.18891954 -0.05974674 C34.38057031 -0.06267693 37.57221747 -0.0667817 40.76386642 -0.07125092 C50.75114698 -0.0849298 60.73841932 -0.09459379 70.7257086 -0.09845281 C82.25138355 -0.10293068 93.77693973 -0.12046439 105.30257857 -0.1494534 C114.21226259 -0.17108395 123.12191325 -0.18115787 132.03162324 -0.18249393 C137.35220997 -0.18354123 142.67268511 -0.18943289 147.99324417 -0.20731354 C153.0017453 -0.22381726 158.01005128 -0.2259385 163.01856995 -0.21717453 C164.85311278 -0.21640531 166.68766619 -0.22073161 168.52218246 -0.23063278 C190.82110879 -0.34388733 190.82110879 -0.34388733 198.85356903 7.31759071 C205.9328768 15.60477127 206.12389837 24.53849506 206.02597046 34.92803955 C206.02947745 36.50272722 206.03514253 38.07741132 206.04278564 39.65208435 C206.05695803 43.90213225 206.04004829 48.15152729 206.01650047 52.40151262 C205.99630043 56.86204233 206.00227565 61.32254734 206.00460815 65.78311157 C206.00455469 73.26951788 205.98486098 80.75567088 205.95272827 88.24200439 C205.91581333 96.88425988 205.90705762 105.52618413 205.91402578 114.16850817 C205.92034052 122.5022194 205.90956027 130.83581766 205.89006042 139.16950607 C205.88190838 142.70759065 205.87917281 146.24561731 205.88075256 149.78371048 C205.88163439 153.9518993 205.86733556 158.11977555 205.84152603 162.28788185 C205.8343921 163.81321891 205.83226718 165.33858928 205.83564377 166.86393929 C205.85352045 176.84671904 205.79016304 185.55017417 198.41073608 193.14044189 C191.86871343 198.22868174 185.40829989 199.4416042 177.27125549 199.41459656 C176.48012102 199.41983324 175.68898655 199.42506992 174.8738783 199.43046528 C172.23791889 199.44539907 169.60215472 199.44616896 166.96615601 199.44683838 C165.07003962 199.45446427 163.17392632 199.4628925 161.27781677 199.47206116 C156.13722191 199.49396935 150.99668652 199.5028 145.85605025 199.5078876 C142.64158346 199.51153521 139.42713216 199.51777736 136.21267128 199.52488899 C124.99051863 199.54936972 113.76841212 199.56243263 102.54623413 199.565979 C92.0982504 199.56961423 81.65056042 199.59951236 71.20266646 199.64138359 C62.22154144 199.67611027 53.24051368 199.69152785 44.25932199 199.69222504 C38.90012125 199.69301697 33.54122 199.70171748 28.18208885 199.7302227 C23.13976907 199.7564443 18.09799625 199.75858559 13.05563927 199.74256706 C11.21021835 199.7407559 9.36476567 199.74741311 7.51941299 199.76338577 C-12.25898318 199.92407755 -12.25898318 199.92407755 -20.47858906 192.41426754 C-28.4031873 184.29438796 -28.02418848 174.38304245 -27.97744751 163.76348877 C-27.98151753 162.20880261 -27.98686183 160.65411936 -27.99337769 159.09944153 C-28.00700591 154.89489403 -28.0017713 150.6905684 -27.99224043 146.48601723 C-27.98462047 142.07618253 -27.99169592 137.66636624 -27.99639893 133.25653076 C-28.00184969 125.85240281 -27.99468273 118.44836477 -27.9803772 111.04425049 C-27.96405198 102.49634517 -27.96934097 93.94865457 -27.98585641 85.40075445 C-27.99949067 78.04849335 -28.00138147 70.69629671 -27.99354041 63.34402704 C-27.98887454 58.95861958 -27.98820905 54.57331289 -27.99814987 50.18791199 C-28.00684555 46.06410153 -28.00075041 41.94056665 -27.9834671 37.81678581 C-27.9795161 36.30756525 -27.98061245 34.7983213 -27.9872551 33.28911018 C-28.0284499 22.97507902 -27.59432873 14.62380037 -20.33926392 6.67950439 C-14.4154896 1.46975645 -7.67977572 -0.00908841 0 0 Z " fill="#0371CC" transform="translate(884.5892639160156,386.85955810546875)"/>
<path d="M0 0 C0 125.4 0 250.8 0 380 C-2.15913806 377.12114926 -4.05900762 374.35728282 -5.9375 371.3125 C-9.08018448 366.36079127 -12.33920236 361.50255639 -15.6875 356.6875 C-16.13150146 356.0375708 -16.57550293 355.3876416 -17.03295898 354.71801758 C-25.60722081 342.49588846 -35.95437433 331.73071426 -46.53857422 321.25561523 C-48.40014334 319.41260736 -50.25328056 317.56141545 -52.10546875 315.70898438 C-53.30681668 314.5125437 -54.50862255 313.31656265 -55.7109375 312.12109375 C-56.52671768 311.3069828 -56.52671768 311.3069828 -57.35897827 310.47642517 C-59.94502266 307.9220239 -62.55532323 305.51633287 -65.39306641 303.24243164 C-66.25335449 302.5024292 -67.11364258 301.76242676 -68 301 C-68 300.34 -68 299.68 -68 299 C-68.66 299 -69.32 299 -70 299 C-70 298.34 -70 297.68 -70 297 C-70.5671875 296.76410156 -71.134375 296.52820313 -71.71875 296.28515625 C-91.3800302 285.20885285 -104.7749121 253.58145521 -111 233 C-115.96260578 214.91184764 -118.40042973 197.03461749 -118.3125 178.3125 C-118.31100952 177.52319092 -118.30951904 176.73388184 -118.3079834 175.9206543 C-118.26933424 164.50934607 -117.76612288 153.44636135 -115.453125 142.23779297 C-114.97254493 139.864411 -114.56094708 137.48508798 -114.15625 135.09765625 C-106.05804223 88.95806137 -80.13061253 44.02563362 -41.60717773 16.57055664 C-30.49752665 9.07526108 -13.76388761 0 0 0 Z " fill="#B7E3FE" transform="translate(311,290)"/>
<path d="M0 0 C3.90869858 1.56347943 7.39909242 3.20695881 11.0859375 5.1953125 C11.94705894 5.65807587 11.94705894 5.65807587 12.82557678 6.13018799 C14.67683899 7.12578544 16.5260334 8.12514659 18.375 9.125 C20.91498779 10.49549088 23.45553785 11.86493762 25.99609375 13.234375 C26.61353958 13.56758759 27.23098541 13.90080017 27.86714172 14.24411011 C31.13884232 16.0073654 34.41919213 17.75013874 37.72265625 19.453125 C50.11183225 25.84326596 60.89185408 33.34654576 71 43 C71.66257812 43.5878125 72.32515625 44.175625 73.0078125 44.78125 C98.69444442 68.49198716 111.24062583 109.1396308 113 143 C113.17661052 148.31338352 113.24481922 153.62179107 113.25 158.9375 C113.25100708 159.66166107 113.25201416 160.38582214 113.25305176 161.13192749 C113.24244082 172.47517231 112.57377437 183.47760616 110.44433594 194.63769531 C109.99598218 197.02136069 109.60781975 199.40946065 109.2265625 201.8046875 C99.74875462 258.11734315 62.45210304 315.61634852 18 351 C17.40074707 351.48146484 16.80149414 351.96292969 16.18408203 352.45898438 C14.29339917 353.97775353 12.39755893 355.4898337 10.5 357 C9.90050537 357.48114258 9.30101074 357.96228516 8.68334961 358.45800781 C6.13104823 360.47426412 4.11176364 361.96274545 1 363 C0.67 243.21 0.34 123.42 0 0 Z " fill="#B7E4FE" transform="translate(1218,413)"/>
<path d="M0 0 C1.28416252 -0.00384115 2.56832505 -0.00768229 3.89140159 -0.01163983 C5.32477309 -0.01085954 6.75814454 -0.00998075 8.19151592 -0.00901413 C9.70775624 -0.01159696 11.22399587 -0.01460989 12.74023455 -0.01801753 C16.9176554 -0.02610034 21.09505907 -0.02787781 25.27248681 -0.028615 C29.77361808 -0.03046332 34.2747404 -0.03800951 38.77586651 -0.04475021 C48.6228839 -0.05834292 58.46989722 -0.06435965 68.31692243 -0.06876087 C74.4627502 -0.07152158 80.6085764 -0.07575861 86.75440311 -0.08026505 C103.76282464 -0.09245869 120.77124491 -0.10275798 137.77967072 -0.10614014 C139.41312002 -0.10646949 139.41312002 -0.10646949 141.07956831 -0.10680549 C142.17117211 -0.10702377 143.26277592 -0.10724204 144.38745862 -0.10746694 C146.59954409 -0.10791041 148.81162955 -0.10835697 151.02371502 -0.10880661 C152.66962882 -0.10913875 152.66962882 -0.10913875 154.34879341 -0.10947761 C172.13398249 -0.11342676 189.91913063 -0.13088393 207.7043039 -0.15416613 C225.95412975 -0.17786423 244.20393504 -0.19034128 262.45377654 -0.19150805 C272.70442031 -0.19242566 282.95501074 -0.19819944 293.20563984 -0.21632767 C301.93325901 -0.23170783 310.66080835 -0.23686145 319.3884385 -0.22858956 C323.84281641 -0.22467572 328.29705359 -0.22564838 332.7514143 -0.23964691 C336.82817277 -0.25234183 340.90468414 -0.25122733 344.98144206 -0.2390562 C346.4572256 -0.23709153 347.93302639 -0.24021303 349.40878568 -0.24890056 C351.41360345 -0.2599565 353.41850241 -0.25073474 355.42332458 -0.24050903 C356.5373167 -0.24110612 357.65130881 -0.24170321 358.79905826 -0.24231839 C364.90925874 0.49402299 369.00160071 3.51440018 372.900424 8.13142776 C377.44374704 15.00079832 377.48863149 21.51845015 377.36697674 29.54011917 C377.3379806 31.62735408 377.34640231 33.71204557 377.35940838 35.79939651 C377.34641431 44.37695654 377.01647378 52.10937487 371.212924 58.94392776 C370.77593182 59.48662308 370.33893963 60.02931839 369.88870525 60.58845901 C362.58497544 66.25638294 353.9528197 65.55638112 345.17337322 65.51237869 C343.67073953 65.51583813 342.16810839 65.52060462 340.66548252 65.52656043 C336.54875989 65.53906076 332.43224644 65.53290447 328.31552315 65.52360177 C323.8710105 65.51680766 319.42653354 65.52729431 314.98202801 65.53554153 C306.2801346 65.54887718 297.57831885 65.54600187 288.87642241 65.53730361 C281.80382971 65.53052682 274.73125876 65.52961033 267.65866375 65.53287506 C266.65182596 65.53333476 265.64498817 65.53379446 264.60764015 65.53426809 C262.56223026 65.53522727 260.51682038 65.53619991 258.47141051 65.53718586 C239.29429459 65.54573926 220.1172217 65.5359064 200.94011283 65.51978476 C184.48740855 65.50638163 168.03476777 65.50870974 151.58206463 65.52254105 C132.47328744 65.53859773 113.36454796 65.54491529 94.25576496 65.53570426 C92.21790473 65.53474861 90.1800445 65.5338055 88.14218426 65.53287506 C86.63820845 65.53218082 86.63820845 65.53218082 85.10384929 65.53147256 C78.04024308 65.52888294 70.97666079 65.53325307 63.91305828 65.54031372 C55.30418352 65.54872989 46.69539081 65.5464461 38.08652544 65.53047149 C33.69465494 65.52259037 29.30292122 65.51949448 24.91105175 65.52941895 C20.88927082 65.53836962 16.86775324 65.53342691 12.84599614 65.51748629 C11.39253857 65.51414006 9.93905866 65.51582902 8.48561549 65.52311365 C-7.84358213 65.59866601 -7.84358213 65.59866601 -14.1230135 60.48299026 C-14.56902912 59.91322464 -15.01504475 59.34345901 -15.474576 58.75642776 C-15.93606037 58.19181839 -16.39754475 57.62720901 -16.8730135 57.04549026 C-19.97740712 52.20105436 -20.42952979 47.69986313 -20.47066975 42.04939651 C-20.47969822 41.27638702 -20.48872669 40.50337753 -20.49802876 39.70694351 C-20.51249391 38.07560957 -20.52140869 36.44421811 -20.52511311 34.81282425 C-20.53699107 32.33663308 -20.58619176 29.86295174 -20.63668537 27.38728714 C-20.78430121 13.05232038 -20.78430121 13.05232038 -16.48312092 7.5288887 C-11.27518886 2.26857406 -7.56371962 0.0084671 0 0 Z " fill="#55AEFD" transform="translate(430.0995759963989,293.8685722351074)"/>
<path d="M0 0 C0.80878601 -0.00511093 1.61757202 -0.01022186 2.4508667 -0.01548767 C5.11722267 -0.02935635 7.78331933 -0.02842882 10.44970703 -0.02612305 C12.30909318 -0.03001175 14.16847843 -0.03434679 16.02786255 -0.03910828 C19.92322673 -0.04656484 23.81850027 -0.0462835 27.71386719 -0.04101562 C32.69603627 -0.03522477 37.67783315 -0.05214546 42.65994072 -0.0753603 C46.49991003 -0.09012134 50.33979021 -0.09096606 54.17978287 -0.08785057 C56.01612205 -0.08836269 57.85246635 -0.09357984 59.68877792 -0.10366249 C62.26151163 -0.11605427 64.83352705 -0.1092188 67.40625 -0.09765625 C68.15868988 -0.10529999 68.91112976 -0.11294373 69.68637085 -0.12081909 C76.96284854 -0.04884995 82.81584189 2.38820602 88.14123535 7.43652344 C94.94503972 14.83108758 94.4244531 24.26984852 94.36376953 33.7121582 C94.36647017 35.20231376 94.37035732 36.6924676 94.37536621 38.18261719 C94.38123452 41.29257122 94.3727856 44.40206298 94.35400391 47.51196289 C94.33121521 51.47617906 94.34435281 55.43931163 94.36829376 59.40348816 C94.38282474 62.47668458 94.37811266 65.54962877 94.36778259 68.62283325 C94.36513539 70.08350761 94.36831356 71.5442057 94.37770081 73.00485229 C94.42660683 82.75073212 93.25733791 89.77048581 88.08251953 98.0871582 C82.53513988 103.48044397 76.52131835 104.8718247 68.98901367 104.82397461 C68.14398788 104.83419647 67.2989621 104.84441833 66.42832947 104.85494995 C63.65781678 104.88256356 60.88830901 104.88084285 58.11767578 104.8762207 C56.1776849 104.88400395 54.23769739 104.8926752 52.29771423 104.90219116 C48.24027435 104.91707671 44.18318264 104.91656132 40.12573242 104.90600586 C34.94277659 104.8944152 29.76124994 104.92829653 24.57853031 104.97469521 C20.57457744 105.00424986 16.57096578 105.00590277 12.56692314 104.99967575 C10.65685633 105.000698 8.74676937 105.01109485 6.83680916 105.03129959 C-11.71069886 105.20345999 -11.71069886 105.20345999 -17.5317688 100.18487549 C-24.90173772 91.57807621 -24.8996702 82.61729032 -24.79638672 71.8293457 C-24.79721718 70.24854367 -24.79968322 68.66774174 -24.80369568 67.08694458 C-24.80653905 63.79036148 -24.79199399 60.49446331 -24.7644043 57.19799805 C-24.73026695 52.99044228 -24.73637193 48.78410516 -24.75506687 44.5764904 C-24.76567479 41.31802352 -24.75666582 38.05983634 -24.74168205 34.80139542 C-24.73653131 33.25058957 -24.73694394 31.69975415 -24.74322701 30.14895248 C-24.76657534 20.92848165 -24.7187541 13.54884106 -18.42138672 6.2512207 C-17.86322266 5.80520508 -17.30505859 5.35918945 -16.72998047 4.8996582 C-16.17439453 4.43817383 -15.61880859 3.97668945 -15.04638672 3.5012207 C-10.18608368 0.32838254 -5.68373768 -0.01861362 0 0 Z " fill="#54AEFD" transform="translate(434.16748046875,396.725341796875)"/>
<path d="M0 0 C0.85769989 -0.00700928 1.71539978 -0.01401855 2.59909058 -0.02124023 C5.42259499 -0.03878527 8.24508963 -0.02720896 11.06860352 -0.01367188 C13.03866263 -0.01636804 15.00872045 -0.0202515 16.97877502 -0.02526855 C21.10365493 -0.03115909 25.22818784 -0.02261583 29.35302734 -0.00390625 C34.63012837 0.01886792 39.90641491 0.00576698 45.18348598 -0.01819611 C49.2508198 -0.03267885 53.31796187 -0.02803646 57.38530159 -0.01768494 C59.33048665 -0.01502372 61.27568933 -0.01826604 63.22085381 -0.02760315 C65.94457698 -0.03780787 68.66699831 -0.02221258 71.390625 0 C72.18824753 -0.00809692 72.98587006 -0.01619385 73.80766296 -0.02453613 C80.18941702 0.07146361 84.38361321 1.90956746 89.18579102 6.26367188 C89.6434082 6.82183594 90.10102539 7.38 90.57250977 7.95507812 C91.04301758 8.51066406 91.51352539 9.06625 91.99829102 9.63867188 C95.00068711 14.10973231 95.51683736 18.04022103 95.55053711 23.36816406 C95.55725433 24.0371875 95.56397156 24.70621094 95.57089233 25.39550781 C95.58982101 27.59773277 95.59379427 29.79965197 95.59594727 32.00195312 C95.60238021 33.54266482 95.60910894 35.0833753 95.61611938 36.62408447 C95.62808036 39.85195748 95.63180158 43.07972359 95.63061523 46.30761719 C95.63041244 50.4243161 95.65767808 54.54032159 95.69215965 58.65685654 C95.71450795 61.83981411 95.71845032 65.02260711 95.71739578 68.20563507 C95.71974123 69.72215406 95.72850468 71.23867831 95.74406052 72.75511932 C95.90881041 90.47891105 95.90881041 90.47891105 89.53915405 97.38275146 C83.86222625 102.77888589 77.87376976 103.81826078 70.19433594 103.79223633 C69.40812363 103.79734726 68.62191132 103.80245819 67.81187439 103.807724 C65.22549724 103.82156754 62.63938821 103.82066688 60.05297852 103.81835938 C58.24465334 103.82224981 56.43632908 103.8265852 54.62800598 103.8313446 C50.84116655 103.83879603 47.05442036 103.83852382 43.26757812 103.83325195 C38.43248168 103.82746555 33.59776932 103.84437348 28.76273632 103.86759663 C25.02820125 103.88238395 21.29375755 103.88319876 17.55919838 103.8800869 C15.77754266 103.88059782 13.99588151 103.88579229 12.21425438 103.89589882 C-7.66187062 103.99479902 -7.66187062 103.99479902 -15.04467773 98.93945312 C-15.56288086 98.38773438 -16.08108398 97.83601562 -16.61499023 97.26757812 C-17.14866211 96.72617187 -17.68233398 96.18476562 -18.23217773 95.62695312 C-21.99023881 90.36956199 -23.11573396 85.69911729 -23.12817383 79.30053711 C-23.13343079 78.61664917 -23.13868774 77.93276123 -23.144104 77.22814941 C-23.15720186 74.9897511 -23.148604 72.75207617 -23.13842773 70.51367188 C-23.14045119 68.94621139 -23.14336489 67.37875183 -23.14712524 65.81129456 C-23.15153454 62.53564438 -23.14516193 59.26024056 -23.13110352 55.98461914 C-23.11399807 51.79602456 -23.12386994 47.60800619 -23.14182091 43.41943264 C-23.15268455 40.18597608 -23.14920087 36.95265515 -23.14143753 33.71919441 C-23.13944338 32.17509962 -23.14186709 30.63099232 -23.14887619 29.08691216 C-23.15653516 26.92601977 -23.14482647 24.76604875 -23.12817383 22.60522461 C-23.12578705 21.37835434 -23.12340027 20.15148407 -23.12094116 18.88743591 C-22.25949633 11.26717205 -17.85181075 7.02924617 -12.11827087 2.40148926 C-7.85024503 0.0214083 -4.79491652 -0.04855153 0 0 Z " fill="#54AEFD" transform="translate(432.739990234375,659.482421875)"/>
<path d="M0 0 C0.83614838 -0.0065712 1.67229675 -0.0131424 2.53378296 -0.01991272 C5.30352876 -0.03963716 8.0732203 -0.05130761 10.84301758 -0.0612793 C11.79011408 -0.06535482 12.73721058 -0.06943035 13.71300697 -0.07362938 C18.72777717 -0.0944884 23.74252003 -0.10878976 28.75732422 -0.11816406 C33.92783087 -0.12921649 39.09790575 -0.16360346 44.26826 -0.20333576 C48.25151855 -0.22953003 52.23467476 -0.23785849 56.21801186 -0.24144554 C58.12332379 -0.24630574 60.02863133 -0.25790352 61.93385887 -0.27648354 C64.60729138 -0.30093055 67.27961406 -0.29989973 69.953125 -0.29296875 C70.73316391 -0.30577881 71.51320282 -0.31858887 72.31687927 -0.33178711 C78.76405867 -0.27118274 84.14224699 1.59616348 88.82348633 6.1418457 C89.26950195 6.79282227 89.71551758 7.44379883 90.17504883 8.11450195 C90.86727539 9.08709961 90.86727539 9.08709961 91.57348633 10.0793457 C94.2892954 14.72389815 95.05550112 18.46208112 95.09057617 23.84399414 C95.0972934 24.49351044 95.10401062 25.14302673 95.1109314 25.81222534 C95.12985473 27.94952144 95.13383307 30.08650239 95.13598633 32.22387695 C95.1424197 33.71974819 95.14914846 35.21561817 95.15615845 36.71148682 C95.16811813 39.84520379 95.17184078 42.97881065 95.1706543 46.11254883 C95.17045152 50.10818814 95.19771551 54.10311286 95.23219872 58.09858322 C95.25455275 61.18889541 95.25848921 64.27903818 95.25743484 67.36942291 C95.2597795 68.84128524 95.26853839 70.31315306 95.28409958 71.784935 C95.37729694 81.51256881 94.79050233 89.18893508 88.55004883 96.98950195 C82.42323653 101.86310264 77.00021263 103.77822858 69.21606445 103.69458008 C68.39869308 103.70158936 67.58132172 103.70859863 66.73918152 103.71582031 C64.0611992 103.73329768 61.38429022 103.7218146 58.70629883 103.70825195 C56.83117471 103.71094983 54.95605197 103.7148347 53.08093262 103.71984863 C49.16050838 103.72572978 45.24044991 103.71722547 41.32006836 103.69848633 C36.30990733 103.67569761 31.30060356 103.68882813 26.29047394 103.71277618 C22.42126069 103.72727165 18.55224868 103.72261102 14.68302917 103.71226501 C12.83635861 103.70960808 10.98966942 103.7128309 9.14302063 103.72218323 C6.5562034 103.73241094 3.97074961 103.71676218 1.3840332 103.69458008 C0.25380989 103.70672546 0.25380989 103.70672546 -0.89924622 103.71911621 C-7.24690275 103.61892984 -12.3980229 101.59488214 -17.22338867 97.4309082 C-17.6694043 96.87274414 -18.11541992 96.31458008 -18.57495117 95.73950195 C-19.03643555 95.18391602 -19.49791992 94.62833008 -19.97338867 94.0559082 C-22.95940786 89.48178327 -23.45737462 85.52529865 -23.49047852 80.11108398 C-23.49719574 79.41934082 -23.50391296 78.72759766 -23.51083374 78.01489258 C-23.52976289 75.73812591 -23.53373527 73.46165481 -23.53588867 71.18481445 C-23.54232002 69.59447104 -23.54904864 68.0041288 -23.55606079 66.41378784 C-23.56802074 63.08336648 -23.57174293 59.75304874 -23.57055664 56.42260742 C-23.5703535 52.16671738 -23.59765622 47.91149543 -23.63210106 43.65576363 C-23.65439926 40.37166322 -23.6583933 37.08772288 -23.65733719 33.80355453 C-23.65968873 32.23514376 -23.66848703 30.66672828 -23.68400192 29.09839249 C-23.70372294 26.89902947 -23.6978017 24.70109783 -23.68579102 22.50170898 C-23.69006607 20.62903854 -23.69006607 20.62903854 -23.69442749 18.71853638 C-22.8487218 12.66142971 -19.83387738 8.22926394 -15.13745117 4.30200195 C-14.46584961 3.72708008 -13.79424805 3.1521582 -13.10229492 2.55981445 C-9.05611748 -0.38134944 -4.78097542 0.01626959 0 0 Z " fill="#54AEFD" transform="translate(433.199951171875,528.822998046875)"/>
<path d="M0 0 C3.38012864 2.78819373 4.77104936 4.56204877 5.46701431 8.93313789 C5.65282493 12.75032718 5.67646614 16.55142626 5.64697266 20.37133789 C5.6537528 21.84193503 5.66265817 23.31252368 5.67352295 24.78309631 C5.69627426 28.76663344 5.68749817 32.74952151 5.67162752 36.73306966 C5.6589491 40.90543288 5.67071379 45.07774136 5.67855835 49.25010681 C5.68764828 56.25513669 5.67568331 63.25990277 5.65185547 70.26489258 C5.62463465 78.36079978 5.63346762 86.45607758 5.6609875 94.55196959 C5.68368373 101.50757991 5.68687651 108.46300087 5.67379415 115.41863626 C5.66600376 119.57098008 5.66494671 123.7230281 5.68147659 127.87535286 C5.69593019 131.77853655 5.68588455 135.68090921 5.65700531 139.58400536 C5.65039954 141.01545999 5.65228365 142.446983 5.66331863 143.87841034 C5.67700183 145.83375596 5.65679161 147.78925094 5.63491821 149.74452209 C5.63209052 151.38514665 5.63209052 151.38514665 5.6292057 153.05891514 C4.78652732 156.9978315 3.10417386 158.51501128 0 161 C-4.09893992 161.65325417 -6.15392446 161.49967942 -9.73828125 159.3828125 C-10.58777344 158.63773438 -11.43726563 157.89265625 -12.3125 157.125 C-13.25351563 156.30515625 -14.19453125 155.4853125 -15.1640625 154.640625 C-18.76492234 151.28775826 -22.2465501 147.83653318 -25.6875 144.3203125 C-28.21867189 141.78058936 -30.86540962 139.45223737 -33.58984375 137.125 C-37.72542324 133.47871922 -41.71572681 129.67367927 -45.72143555 125.88574219 C-46.34445557 125.29954102 -46.96747559 124.71333984 -47.609375 124.109375 C-48.16592773 123.58311523 -48.72248047 123.05685547 -49.29589844 122.51464844 C-50.13942871 121.76489746 -50.13942871 121.76489746 -51 121 C-51.5578418 120.44852295 -52.11568359 119.8970459 -52.69042969 119.32885742 C-56.11573557 117.35803925 -59.50026682 117.59840994 -63.34375 117.62890625 C-64.99870003 117.61152849 -66.65364791 117.59394406 -68.30859375 117.57617188 C-70.90905673 117.56608875 -73.50938153 117.56250614 -76.10986328 117.56420898 C-78.62574309 117.56064002 -81.14055939 117.53330794 -83.65625 117.50390625 C-84.82045471 117.51618004 -84.82045471 117.51618004 -86.00817871 117.52870178 C-89.5856773 117.47935544 -91.58932821 117.31840112 -94.45898438 115.09350586 C-96.99592307 111.64701516 -97.14044754 109.61343332 -97.19287109 105.36035156 C-97.20893402 104.17862366 -97.22499695 102.99689575 -97.24154663 101.77935791 C-97.28592801 96.36754828 -97.3275086 90.95588477 -97.35009766 85.54394531 C-97.36342275 82.68814967 -97.39124682 79.83307102 -97.43212891 76.97753906 C-97.49100328 72.86511197 -97.50876746 68.75345167 -97.5234375 64.640625 C-97.54610687 63.36544006 -97.56877625 62.09025513 -97.59213257 60.77642822 C-97.56853573 50.8879345 -97.56853573 50.8879345 -94.98828125 47.18237305 C-91.1712154 44.39472994 -88.21138865 44.2559858 -83.6640625 44.44140625 C-82.02604198 44.44735257 -80.38802113 44.45320915 -78.75 44.45898438 C-76.18685564 44.50485995 -73.62429618 44.56251736 -71.06152344 44.62573242 C-61.39687629 45.1958983 -61.39687629 45.1958983 -52.41040039 42.5222168 C-50.6770227 40.77547175 -49.34329087 39.05432647 -48 37 C-46.74550292 35.87730749 -45.47817641 34.76840508 -44.1875 33.6875 C-40.97666245 30.92381971 -37.97732835 28.01380404 -35 25 C-32.12442341 22.08946199 -29.24125906 19.27575978 -26.125 16.625 C-21.85654774 12.98631938 -17.9528477 9.0071999 -14.03564453 4.99853516 C-9.88814307 0.78066825 -6.11441 -1.75169584 0 0 Z " fill="#FEFEFE" transform="translate(1216,167)"/>
<path d="M0 0 C13.18316523 9.44969284 22.03185985 22.23285873 25.12109375 38.296875 C27.2419059 54.5391924 23.23718707 70.14130858 13.546875 83.328125 C4.16313734 94.67913975 -8.94040864 102.49702935 -23.71728516 103.96435547 C-40.83584979 105.14787028 -54.71112738 100.64159194 -67.80859375 89.4375 C-72.23703105 85.30058992 -75.5639516 81.00243228 -78.55859375 75.75 C-79.12513672 74.79867187 -79.12513672 74.79867187 -79.703125 73.828125 C-86.37240851 61.73848747 -87.56153438 46.59240719 -84.83203125 33.1796875 C-83.91145652 30.25330767 -82.84778094 27.53193024 -81.55859375 24.75 C-81.20796875 23.96625 -80.85734375 23.1825 -80.49609375 22.375 C-77.27530021 15.93341291 -72.57604598 10.85471227 -67.55859375 5.75 C-66.99269531 5.17121094 -66.42679688 4.59242188 -65.84375 3.99609375 C-48.21226554 -12.51456285 -19.59909045 -12.58368569 0 0 Z " fill="#0371CC" transform="translate(1005.55859375,618.25)"/>
<path d="M0 0 C1.26819077 -0.01260864 2.53638153 -0.02521729 3.84300232 -0.03820801 C5.22875523 -0.03104763 6.61450308 -0.0228435 8.00024414 -0.01367188 C9.42127244 -0.01636667 10.84229894 -0.02024898 12.26332092 -0.02526855 C15.24180657 -0.03116628 18.21981234 -0.02259395 21.19824219 -0.00390625 C25.01292425 0.01886372 28.82647942 0.00577587 32.64111996 -0.01819611 C35.57601885 -0.032665 38.51065154 -0.02804296 41.44555855 -0.01768494 C42.85175269 -0.01501954 44.25797112 -0.01828091 45.66413689 -0.02760315 C47.63155519 -0.03778222 49.59905836 -0.01951133 51.56640625 0 C52.68542831 0.00318237 53.80445038 0.00636475 54.9573822 0.00964355 C58.49994385 0.63215807 59.67526215 1.70323281 61.84790039 4.51757812 C64.33104888 15.16176384 59.4856433 25.21122382 55.53540039 34.83007812 C54.8683249 36.49759162 54.20325432 38.16590836 53.54003906 39.83496094 C52.104349 43.44054749 50.65646124 47.04094971 49.20239258 50.63916016 C46.6622927 56.94930724 44.21198415 63.29313331 41.76196289 69.63867188 C40.48288374 72.93431084 39.20199454 76.2292383 37.92007446 79.52377319 C37.08201231 81.68187918 36.24717855 83.84124171 35.4156189 86.00186157 C34.24466829 89.03789281 33.05807713 92.06735134 31.86743164 95.09570312 C31.52003937 96.00642075 31.17264709 96.91713837 30.81472778 97.85545349 C30.48254242 98.69173782 30.15035706 99.52802216 29.80810547 100.38964844 C29.52469803 101.11806946 29.24129059 101.84649048 28.94929504 102.59698486 C27.57682091 104.99028191 26.20912527 106.10647169 23.84790039 107.51757812 C21.04783251 107.78384225 18.51203162 107.89244689 15.72290039 107.83007812 C14.99458008 107.83330078 14.26625977 107.83652344 13.51586914 107.83984375 C8.1152615 107.78493924 8.1152615 107.78493924 5.84790039 105.51757812 C4.98686078 99.59581754 7.46359923 94.58332785 9.61743164 89.19726562 C10.0099411 88.19248672 10.40245056 87.18770782 10.80685425 86.15248108 C12.08184091 82.89534714 13.37094152 79.64400647 14.66040039 76.39257812 C15.53411651 74.16840872 16.40691786 71.94387975 17.27880859 69.71899414 C19.40830268 64.29086173 21.54859805 58.8670688 23.69226074 53.44451904 C25.32197652 49.31686402 26.94147223 45.18524107 28.55883789 41.05273438 C30.97939364 34.87073582 33.40850426 28.69216819 35.84790039 22.51757812 C34.59130615 22.50823242 33.33471191 22.49888672 32.04003906 22.48925781 C27.38245048 22.44941681 22.72552656 22.3836747 18.06835938 22.31005859 C16.0518446 22.28181473 14.03521841 22.26061724 12.01855469 22.24658203 C9.12124449 22.22519967 6.22527867 22.17857446 3.32836914 22.12695312 C2.42515427 22.12572449 1.52193939 22.12449585 0.59135437 22.12322998 C-5.63701514 21.97713394 -5.63701514 21.97713394 -8.21972656 19.67285156 C-9.50421958 16.70361764 -9.5493062 14.2449364 -9.52709961 11.01757812 C-9.53483398 9.89351563 -9.54256836 8.76945312 -9.55053711 7.61132812 C-8.7346744 1.27639411 -6.11453663 0.01740143 0 0 Z " fill="#FBFDFE" transform="translate(978.152099609375,435.482421875)"/>
<path d="M0 0 C1.31225555 -0.01265396 2.62451111 -0.02530792 3.97653198 -0.03834534 C5.42389311 -0.02702988 6.87125031 -0.01520243 8.31860352 -0.00291443 C9.84816314 -0.00805444 11.37771685 -0.01533635 12.90725708 -0.02459717 C17.05614791 -0.04310931 21.20439598 -0.03017417 25.35326004 -0.01050687 C29.69645176 0.00588267 34.03960287 -0.00293368 38.3828125 -0.00802612 C45.67629255 -0.01254675 52.96951612 0.00332074 60.26293945 0.03126526 C68.6933281 0.06331712 77.12325416 0.06330139 85.55367565 0.04605049 C93.6658171 0.03018279 101.77778906 0.0369205 109.8899231 0.0539875 C113.34120194 0.06085738 116.7923449 0.05982623 120.24362183 0.05244255 C124.3083908 0.04477733 128.37263379 0.05691309 132.43731308 0.08429146 C133.9284293 0.09117397 135.41959466 0.09127464 136.91070938 0.08407593 C138.94715118 0.0753779 140.98365489 0.09377952 143.02001953 0.11352539 C144.15931412 0.11633231 145.2986087 0.11913923 146.47242737 0.12203121 C150.17892462 0.73965158 151.85859245 2.01323594 154.51000977 4.62818909 C155.17407227 6.84693909 155.17407227 6.84693909 155.13500977 9.12818909 C155.14790039 9.88100159 155.16079102 10.63381409 155.17407227 11.40943909 C154.18097943 14.7275375 152.36191416 15.74277064 149.51000977 17.62818909 C146.47242737 18.13434696 146.47242737 18.13434696 143.02001953 18.14285278 C141.0516362 18.16193947 141.0516362 18.16193947 139.04348755 18.18141174 C137.59612856 18.1752298 136.14877134 18.16862381 134.70141602 18.16163635 C133.17185636 18.1686963 131.6423037 18.17744164 130.11276245 18.18774414 C125.96398022 18.21023827 121.81557947 18.20729868 117.66675949 18.19842267 C114.20240598 18.19331166 110.73812409 18.20060615 107.27377796 18.20789474 C99.10148162 18.22489342 90.92937201 18.2213278 82.75708008 18.2046051 C74.32664333 18.18767727 65.89672412 18.20352725 57.46634388 18.23582798 C50.2262708 18.26251694 42.9863589 18.26980198 35.74624157 18.2613129 C31.42284342 18.2563824 27.09975679 18.25860594 22.77639771 18.27910042 C18.71157219 18.29744726 14.64749184 18.29151184 10.58270645 18.26690102 C9.09157814 18.26189015 7.60039314 18.2653902 6.10931015 18.27804947 C4.07292285 18.29396993 2.03635486 18.27601456 0 18.25637817 C-1.13929459 18.25579186 -2.27858917 18.25520555 -3.45240784 18.25460148 C-7.46563293 17.42699136 -8.96937415 15.79395282 -11.48999023 12.62818909 C-12.11499023 9.12818909 -12.11499023 9.12818909 -11.48999023 5.62818909 C-7.92014772 1.14465109 -5.6883708 0.00292738 0 0 Z " fill="#54ADFC" transform="translate(599.489990234375,700.3718109130859)"/>
<path d="M0 0 C1.31225555 -0.01265396 2.62451111 -0.02530792 3.97653198 -0.03834534 C5.42389311 -0.02702988 6.87125031 -0.01520243 8.31860352 -0.00291443 C9.84816314 -0.00805444 11.37771685 -0.01533635 12.90725708 -0.02459717 C17.05614791 -0.04310931 21.20439598 -0.03017417 25.35326004 -0.01050687 C29.69645176 0.00588267 34.03960287 -0.00293368 38.3828125 -0.00802612 C45.67629255 -0.01254675 52.96951612 0.00332074 60.26293945 0.03126526 C68.6933281 0.06331712 77.12325416 0.06330139 85.55367565 0.04605049 C93.6658171 0.03018279 101.77778906 0.0369205 109.8899231 0.0539875 C113.34120194 0.06085738 116.7923449 0.05982623 120.24362183 0.05244255 C124.3083908 0.04477733 128.37263379 0.05691309 132.43731308 0.08429146 C133.9284293 0.09117397 135.41959466 0.09127464 136.91070938 0.08407593 C138.94715118 0.0753779 140.98365489 0.09377952 143.02001953 0.11352539 C144.15931412 0.11633231 145.2986087 0.11913923 146.47242737 0.12203121 C150.17441812 0.73890066 151.85558177 2.02457935 154.51000977 4.62818909 C155.37349023 7.37416423 155.1414169 9.8327775 154.51000977 12.62818909 C152.30260296 15.59677065 151.02403604 16.456847 147.51000977 17.62818909 C145.46666684 17.72811484 143.42019005 17.76754738 141.37442017 17.77536011 C139.44802452 17.78609306 139.44802452 17.78609306 137.48271179 17.79704285 C136.05642724 17.79988306 134.63014244 17.80259479 133.20385742 17.80519104 C131.70415591 17.81145638 130.20445595 17.81810325 128.70475769 17.82510376 C123.77787353 17.84613389 118.85098908 17.85650349 113.92407227 17.86647034 C112.22812254 17.87051794 110.53217299 17.87463487 108.8362236 17.87882042 C100.87043578 17.89786786 92.90465721 17.91210121 84.938851 17.92043239 C75.74098019 17.93021094 66.54334965 17.95654833 57.34556353 17.99693328 C50.23720138 18.02707446 43.1289082 18.04189926 36.02048337 18.0452134 C31.77419397 18.04756572 27.52816137 18.05654985 23.28194046 18.08167458 C19.28786448 18.10492626 15.29421496 18.10920047 11.30008888 18.09891319 C9.83474498 18.09841705 8.36938028 18.10476078 6.90410042 18.11846924 C4.90266704 18.1361453 2.90104908 18.12671067 0.89956665 18.11593628 C-0.22020254 18.11832463 -1.33997173 18.12071299 -2.49367332 18.12317371 C-6.17472025 17.51507327 -7.83605085 16.1979189 -10.48999023 13.62818909 C-11.93429878 10.73957199 -11.86687529 8.83171207 -11.48999023 5.62818909 C-7.9219822 1.14679852 -5.68405193 0.00292516 0 0 Z " fill="#56AEFC" transform="translate(599.489990234375,570.3718109130859)"/>
<path d="M0 0 C1.29267792 -0.00860046 2.58535583 -0.01720093 3.91720581 -0.02606201 C5.35293539 -0.0304971 6.7886654 -0.03479547 8.22439575 -0.03897095 C9.73394967 -0.04687309 11.24350171 -0.05514211 12.75305176 -0.06375122 C17.71239421 -0.08995253 22.67174503 -0.1052743 27.63113403 -0.11953735 C29.33822764 -0.12489731 31.0453212 -0.13027482 32.7524147 -0.13566971 C39.85196895 -0.15729327 46.95152094 -0.17603115 54.05109978 -0.1872921 C64.22815269 -0.20354064 74.40482439 -0.2367461 84.58173358 -0.29369295 C91.73680248 -0.33236743 98.89176928 -0.35192166 106.04693997 -0.35721266 C110.32123988 -0.36086881 114.59513305 -0.37291794 118.86931992 -0.4053154 C122.8897238 -0.43535351 126.90947387 -0.44172349 130.92996597 -0.42993164 C132.40499558 -0.42971056 133.88005516 -0.43804413 135.35498047 -0.45558548 C137.3695016 -0.47823934 139.38431863 -0.4670094 141.39892578 -0.45410156 C142.52606932 -0.45741171 143.65321285 -0.46072186 144.81451225 -0.46413231 C148.81321174 0.35637897 150.31407056 2.00276655 152.82644653 5.15390015 C153.45144653 8.65390015 153.45144653 8.65390015 152.82644653 12.15390015 C150.30488311 15.32147812 148.8013891 16.95303152 144.78607082 17.78031254 C143.64547742 17.78089885 142.50488401 17.78148516 141.32972717 17.78208923 C140.01602646 17.79474319 138.70232574 17.80739716 137.34881592 17.82043457 C135.89986788 17.80911917 134.45092376 17.79729173 133.00198364 17.78500366 C131.47080151 17.79014363 129.93962528 17.79742549 128.40846252 17.8066864 C124.25550695 17.82519763 120.10319352 17.81226461 115.95026469 17.7925961 C111.60393576 17.77620877 107.25764747 17.78502247 102.91130066 17.79011536 C95.61362449 17.79463575 88.31620469 17.77876875 81.01858521 17.75082397 C72.58022432 17.71876022 64.1423255 17.71879256 55.70393175 17.73603874 C47.58644751 17.7518982 39.46913277 17.74517483 31.35165596 17.72810173 C27.89675958 17.72122725 24.4419989 17.72226768 20.98710442 17.72964668 C16.91987605 17.73730376 12.8531741 17.72520285 8.78603554 17.69779778 C7.29288674 17.69090716 5.79968883 17.69082326 4.30654144 17.69801331 C2.26974988 17.70669161 0.23289635 17.68833382 -1.80381775 17.66856384 C-3.51414232 17.66435346 -3.51414232 17.66435346 -5.2590189 17.66005802 C-8.81225114 17.04297957 -9.9594189 15.9379897 -12.17355347 13.15390015 C-13.59397167 10.31306373 -13.48807619 8.29912737 -13.17355347 5.15390015 C-9.3915034 0.32852592 -5.86903656 0.02903439 0 0 Z " fill="#54ADFC" transform="translate(601.1735534667969,438.8460998535156)"/>
<path d="M0 0 C8.28453784 1.62441918 13.22930605 10.05125703 17.6953125 16.65625 C25.24325696 28.34188799 29.883086 41.18115949 33.1875 54.625 C33.43371094 55.57890625 33.67992187 56.5328125 33.93359375 57.515625 C39.85324945 85.4400698 33.52543495 118.45078975 18.04394531 142.39355469 C15.60133479 145.95372629 12.95619914 149.31493511 10.1875 152.625 C9.35025391 153.64980469 9.35025391 153.64980469 8.49609375 154.6953125 C6.19711194 157.2764148 4.58180653 158.53463809 1.1875 159.3125 C-2.95710126 158.36269555 -4.95932533 156.74990559 -7.8125 153.625 C-8.51482803 149.52616755 -8.06615487 147.9933591 -5.6875 144.5390625 C-4.73799325 143.43505518 -3.77907544 142.33909465 -2.8125 141.25 C14.26433937 120.71483908 20.3901097 93.65583629 17.98095703 67.37158203 C15.72338189 48.31662363 8.11873623 30.6568678 -4.4375 16.125 C-7.78084517 12.11564981 -7.78084517 12.11564981 -8.0625 7.75 C-6.26311264 3.25153161 -4.84608192 1.07690709 0 0 Z " fill="#FBFDFD" transform="translate(1284.8125,168.375)"/>
<path d="M0 0 C1.84271484 -0.02513672 1.84271484 -0.02513672 3.72265625 -0.05078125 C6.9375 0.3125 6.9375 0.3125 8.61419773 1.57427216 C10.24537063 3.71690443 10.31638268 4.81498346 10.32518005 7.48742676 C10.33508469 8.33704483 10.34498932 9.1866629 10.35519409 10.06202698 C10.35069244 10.99095261 10.3461908 11.91987823 10.34155273 12.87695312 C10.34841599 13.85768295 10.35527924 14.83841278 10.36235046 15.84886169 C10.38068273 19.0973042 10.37677208 22.34526676 10.37109375 25.59375 C10.37565216 27.84672199 10.3809567 30.09969258 10.38697815 32.35266113 C10.39592168 37.07712448 10.39347159 41.8014189 10.38354492 46.52587891 C10.37204841 52.58922138 10.39227133 58.65198209 10.42146206 64.71524811 C10.43978027 69.36830365 10.43954043 74.02121862 10.43382454 78.67430115 C10.43367082 80.91028154 10.43975696 83.14627116 10.45211601 85.38221741 C10.46694291 88.50453542 10.4564101 91.62576369 10.43920898 94.74804688 C10.44887695 95.6769725 10.45854492 96.60589813 10.46850586 97.56297302 C10.39642455 103.79042168 10.39642455 103.79042168 8.1153717 106.38537598 C4.97642325 107.72163216 2.27396941 107.7089446 -1.125 107.6875 C-2.35347656 107.69523438 -3.58195313 107.70296875 -4.84765625 107.7109375 C-8.0625 107.3125 -8.0625 107.3125 -9.74214172 106.25639343 C-11.75826729 103.28815873 -11.45505081 100.27441386 -11.40307617 96.81176758 C-11.40373329 95.6699427 -11.40373329 95.6699427 -11.40440369 94.50505066 C-11.40231353 91.98878334 -11.37897235 89.47318218 -11.35546875 86.95703125 C-11.34987359 85.21254338 -11.34560311 83.46805079 -11.34260559 81.72355652 C-11.33115049 77.13179513 -11.30167765 72.54031836 -11.26849365 67.94866943 C-11.23780707 63.26334483 -11.22410328 58.57797425 -11.20898438 53.89257812 C-11.17680854 44.69909369 -11.12560418 35.50582051 -11.0625 26.3125 C-11.9803125 26.89 -12.898125 27.4675 -13.84375 28.0625 C-15.08277402 28.81342365 -16.32238948 29.56337201 -17.5625 30.3125 C-18.16320312 30.6940625 -18.76390625 31.075625 -19.3828125 31.46875 C-24.15554332 34.312079 -27.51868932 34.79457049 -33.0625 34.3125 C-34.98434327 32.39065673 -34.32460059 29.11960692 -34.375 26.5625 C-34.41238281 25.33015625 -34.44976563 24.0978125 -34.48828125 22.828125 C-33.96615526 18.51699298 -33.21029146 17.2883332 -30.0625 14.3125 C-26.98805876 12.0926206 -23.79863452 10.09938373 -20.5625 8.125 C-19.28052734 7.32545898 -19.28052734 7.32545898 -17.97265625 6.50976562 C-7.5133679 0.02370148 -7.5133679 0.02370148 0 0 Z " fill="#FDFEFE" transform="translate(941.0625,435.6875)"/>
<path d="M0 0 C225.06 0 450.12 0 682 0 C682 15.84 682 31.68 682 48 C346.885 48.495 346.885 48.495 5 49 C6 47 6 47 9 46 C10.53914914 45.90940817 12.08195804 45.87551065 13.62377089 45.8758015 C14.58086838 45.87355421 15.53796586 45.87130692 16.5240663 45.86899152 C17.57986629 45.87161854 18.63566627 45.87424555 19.7234602 45.87695217 C20.84631348 45.87579833 21.96916677 45.87464448 23.12604591 45.87345567 C26.92764763 45.87078698 30.72920788 45.87531328 34.5308075 45.87974548 C37.26813984 45.87986607 40.00547094 45.87847738 42.74280292 45.87715632 C48.71437717 45.87507899 54.68594147 45.87673246 60.65751457 45.88079453 C69.53709018 45.88681797 78.41665948 45.88713141 87.29623676 45.88625254 C102.23152208 45.88493713 117.16680298 45.88828577 132.10208702 45.89426994 C146.89515899 45.90018198 161.68822912 45.90403488 176.48130226 45.90512276 C177.85971481 45.90522587 177.85971481 45.90522587 179.26597407 45.90533106 C183.93259697 45.90566938 188.59921987 45.90597077 193.26584277 45.90625793 C226.34072261 45.90835972 259.41560004 45.91510092 292.49047852 45.92456055 C324.62719714 45.93374126 356.7639151 45.9408267 388.90063477 45.94506836 C390.3858815 45.94526565 390.3858815 45.94526565 391.90113322 45.94546692 C401.84454851 45.94678542 411.7879638 45.94806123 421.73137909 45.94930578 C441.98822188 45.95184216 462.24506462 45.95466342 482.50190735 45.95765686 C483.43333463 45.95779415 484.36476192 45.95793144 485.32441428 45.95807289 C547.54961054 45.96727738 609.77480539 45.98319974 672 46 C672 31.15 672 16.3 672 1 C450.24 1 228.48 1 0 1 C0 0.67 0 0.34 0 0 Z " fill="#0063C6" transform="translate(364,200)"/>
<path d="M0 0 C11.40011901 8.06305886 17.13893239 23.58020515 19.49609375 36.84765625 C22.06674795 55.67645145 20.19450607 77.3254477 8.5625 92.9375 C7.40135017 94.31432776 6.21544614 95.67085957 5 97 C4.24009766 97.84111328 4.24009766 97.84111328 3.46484375 98.69921875 C0.68836891 101.40165426 -0.783862 101.99633664 -4.6875 102.0625 C-8 101 -8 101 -9.9375 99.3125 C-11.34576221 96.24745871 -11.3415636 94.36741527 -11 91 C-9.66132895 88.61155913 -8.33637256 86.51727325 -6.75 84.3125 C2.76732165 70.35759722 5.1900258 54.55961594 2.68359375 37.89648438 C0.86530632 29.53765818 -2.84330032 21.18840758 -8.8125 15 C-11.40440095 11.44539299 -11.74652649 9.37343565 -11.484375 5.0625 C-11 3 -11 3 -8.875 0.375 C-5.26610626 -1.35099266 -3.77524581 -1.25841527 0 0 Z " fill="#FAFCFD" transform="translate(1259,197)"/>
<path d="M0 0 C225.06 0 450.12 0 682 0 C682 15.84 682 31.68 682 48 C679.03 48 676.06 48 673 48 C673 32.49 673 16.98 673 1 C450.91 1 228.82 1 0 1 C0 0.67 0 0.34 0 0 Z " fill="#0047BB" transform="translate(364,200)"/>
<path d="M0 0 C3.86920067 2.28993509 6.06284398 4.81318797 8.0625 8.8125 C8.23046875 10.8359375 8.23046875 10.8359375 8.25 13.1875 C8.26417969 13.95835937 8.27835937 14.72921875 8.29296875 15.5234375 C8.03355568 18.09998088 7.45590154 19.63675673 6.0625 21.8125 C5.0725 22.4725 4.0825 23.1325 3.0625 23.8125 C3.495625 24.16699219 3.92875 24.52148438 4.375 24.88671875 C8.43208941 28.76537136 9.56300124 31.73924432 9.75 37.375 C9.55415897 41.25176218 9.36881062 44.28698188 7 47.4375 C0.77179903 52.47306675 -4.15145765 53.38161616 -12.0625 53.1640625 C-17.44439089 52.50595084 -20.47858921 50.27141079 -24.3125 46.4375 C-26.12805091 43.50468699 -26.62016877 41.22381077 -26.9375 37.8125 C-23.3075 37.8125 -19.6775 37.8125 -15.9375 37.8125 C-15.2775 39.1325 -14.6175 40.4525 -13.9375 41.8125 C-10.92425805 43.31912097 -8.25463623 42.99020373 -4.9375 42.8125 C-2.69425164 41.00056994 -2.69425164 41.00056994 -2.7421875 38.4296875 C-2.76539063 37.52476562 -2.78859375 36.61984375 -2.8125 35.6875 C-2.85375 34.07875 -2.895 32.47 -2.9375 30.8125 C-8.8775 29.8225 -8.8775 29.8225 -14.9375 28.8125 C-14.9375 26.1725 -14.9375 23.5325 -14.9375 20.8125 C-14.22722656 20.69132813 -13.51695312 20.57015625 -12.78515625 20.4453125 C-11.86605469 20.27773438 -10.94695312 20.11015625 -10 19.9375 C-8.62521484 19.69386719 -8.62521484 19.69386719 -7.22265625 19.4453125 C-6.46855469 19.23648438 -5.71445312 19.02765625 -4.9375 18.8125 C-3.79397084 16.52544169 -3.83415561 15.21985238 -3.875 12.6875 C-3.895625 11.40875 -3.91625 10.13 -3.9375 8.8125 C-6.98580387 8.52492416 -9.90236127 8.34681987 -12.9375 8.8125 C-13.411875 9.6375 -13.88625 10.4625 -14.375 11.3125 C-14.890625 12.1375 -15.40625 12.9625 -15.9375 13.8125 C-19.30231178 14.27983497 -22.56047567 14.09761462 -25.9375 13.8125 C-26.42465502 9.72039784 -26.13705376 8.11183063 -23.8125 4.625 C-17.52434919 -2.0299596 -8.49842304 -3.20522421 0 0 Z " fill="#FAFCFE" transform="translate(476.9375,685.1875)"/>
<path d="M0 0 C2.93236729 2.11818856 4.25856627 3.93821943 5.73046875 7.25 C6.85117763 14.20773431 5.54393557 19.39188296 1.73046875 25.25 C-0.8486142 28.26926297 -3.64812954 31.01050013 -6.51953125 33.75 C-7.26460938 34.47703125 -8.0096875 35.2040625 -8.77734375 35.953125 C-10.59901861 37.72809025 -12.43303201 39.49037747 -14.26953125 41.25 C-7.33953125 41.58 -0.40953125 41.91 6.73046875 42.25 C6.73046875 45.22 6.73046875 48.19 6.73046875 51.25 C-4.81953125 51.25 -16.36953125 51.25 -28.26953125 51.25 C-28.26953125 41.25 -28.26953125 41.25 -26.98779297 38.86474609 C-26.39756348 38.33961426 -25.80733398 37.81448242 -25.19921875 37.2734375 C-24.54953125 36.665 -23.89984375 36.0565625 -23.23046875 35.4296875 C-22.54210937 34.83414063 -21.85375 34.23859375 -21.14453125 33.625 C-19.80376125 32.40895279 -18.46778115 31.18760285 -17.13671875 29.9609375 C-16.48670898 29.36249023 -15.83669922 28.76404297 -15.16699219 28.14746094 C-11.10189225 24.082361 -6.5206114 19.20019177 -6.01953125 13.3125 C-6.03570162 10.32590833 -6.03570162 10.32590833 -7.39453125 8.375 C-10.18059167 6.70336375 -12.08941987 6.78623376 -15.26953125 7.25 C-17.53353137 9.51400012 -18.25211669 11.19775632 -19.26953125 14.25 C-22.56953125 14.25 -25.86953125 14.25 -29.26953125 14.25 C-29.15076123 6.41117873 -29.15076123 6.41117873 -26.85546875 3.38671875 C-19.10765179 -3.49074873 -9.1353569 -5.25146265 0 0 Z " fill="#FCFDFE" transform="translate(480.26953125,555.75)"/>
<path d="M0 0 C0.33 0 0.66 0 1 0 C1 4.62 1 9.24 1 14 C-46.69321471 14.05134203 -94.38643148 14.09910557 -142.07966614 14.12702942 C-142.78525436 14.12744359 -143.49084258 14.12785776 -144.21781227 14.12828448 C-159.55120476 14.13726267 -174.88459754 14.1455733 -190.21799077 14.15319599 C-197.7372055 14.15693808 -205.25642015 14.16082773 -212.77563477 14.16479492 C-213.89802836 14.16538334 -213.89802836 14.16538334 -215.04309657 14.16598364 C-239.3075654 14.1787735 -263.5720133 14.20131176 -287.83646945 14.22889166 C-312.76604868 14.25717619 -337.69561633 14.27565325 -362.62521135 14.28174497 C-366.14428371 14.28260947 -369.66335604 14.28358638 -373.18242836 14.28463173 C-374.22136027 14.28493513 -374.22136027 14.28493513 -375.28128071 14.28524467 C-386.44202694 14.28879333 -397.6027374 14.30271697 -408.76346902 14.3204961 C-419.97683821 14.33813856 -431.19017252 14.34466547 -442.40355852 14.34050413 C-448.482044 14.33857619 -454.56042428 14.34160178 -460.63889122 14.35761642 C-466.19849623 14.37215765 -471.75792476 14.37299007 -477.3175377 14.36269668 C-479.3337676 14.36142348 -481.35000828 14.36527779 -483.3662168 14.37464955 C-486.09784916 14.38661319 -488.82883663 14.38024624 -491.56045818 14.36914349 C-492.35110018 14.37702453 -493.14174218 14.38490557 -493.95634302 14.39302543 C-498.48605403 14.35115585 -501.35191152 13.73150202 -505 11 C-504.34 10.67 -503.68 10.34 -503 10 C-502.34 10.33 -501.68 10.66 -501 11 C-498.30669282 11.10183334 -495.6389792 11.14212204 -492.94521904 11.1386652 C-492.09872451 11.14150742 -491.25222998 11.14434964 -490.3800841 11.14727798 C-487.5125656 11.1556722 -484.64508725 11.15689687 -481.77755737 11.15821838 C-479.7134301 11.16278052 -477.64930375 11.16778002 -475.58517849 11.17318195 C-469.88891232 11.18681214 -464.19265214 11.19419548 -458.49637389 11.20060861 C-452.36273857 11.2085912 -446.22911581 11.2222963 -440.0954895 11.23532104 C-429.4605228 11.25711428 -418.82555552 11.27528293 -408.19057846 11.29092598 C-397.03346148 11.30735214 -385.87635101 11.32582862 -374.7192421 11.34705925 C-374.02620619 11.34837686 -373.33317027 11.34969446 -372.61913328 11.351052 C-369.09972868 11.35775384 -365.58032416 11.36449247 -362.06091966 11.37124526 C-337.1159775 11.41904167 -312.17102925 11.46221709 -287.22607422 11.50268555 C-262.98843951 11.54201706 -238.75080984 11.58343511 -214.51318359 11.62768555 C-213.76641869 11.62904808 -213.01965379 11.63041061 -212.25025964 11.63181442 C-204.75111885 11.64549949 -197.25197814 11.65922706 -189.75283748 11.67298577 C-174.4754537 11.70101429 -159.19806942 11.72875909 -143.92068481 11.7563324 C-143.21821493 11.7576006 -142.51574505 11.7588688 -141.7919882 11.76017542 C-94.86133363 11.84486882 -47.93066764 11.92292718 -1 12 C-1.01546875 10.09734375 -1.01546875 10.09734375 -1.03125 8.15625 C-1.05474302 5.26660815 -0.92293428 2.76880283 0 0 Z " fill="#CAE7F7" transform="translate(873,795)"/>
<path d="M0 0 C1 1 1 1 1.12025452 3.17030334 C1.1169236 4.60592873 1.1169236 4.60592873 1.11352539 6.07055664 C1.11344986 7.15160172 1.11337433 8.23264679 1.11329651 9.34645081 C1.10813522 10.5224736 1.10297394 11.6984964 1.09765625 12.91015625 C1.0962413 14.10732773 1.09482635 15.30449921 1.09336853 16.53794861 C1.08774979 20.37949066 1.07519411 24.22097543 1.0625 28.0625 C1.05748741 30.65950437 1.05292409 33.25650965 1.04882812 35.85351562 C1.03777427 42.23569932 1.02049708 48.61783993 1 55 C-2.63 55 -6.26 55 -10 55 C-10 41.14 -10 27.28 -10 13 C-14.95 15.475 -14.95 15.475 -20 18 C-20.99 18 -21.98 18 -23 18 C-23 14.7 -23 11.4 -23 8 C-20.48743702 6.64870562 -17.96682058 5.31925796 -15.4375 4 C-14.73302734 3.6184375 -14.02855469 3.236875 -13.30273438 2.84375 C-8.69629791 0.46623441 -5.3100408 -0.54672235 0 0 Z " fill="#FCFDFE" transform="translate(477,422)"/>
<path d="M0 0 C11.22 0 22.44 0 34 0 C30.92003351 3.84995812 28.63011368 6.29407961 24.875 9.25 C21.14695303 12.23639306 17.52632476 15.277863 14 18.5 C0.66143822 30.62596525 0.66143822 30.62596525 -7 35 C-7.80843861 24.58012457 -6.46695535 16.94542609 -2.41015625 7.36328125 C-0.88170687 3.95594151 -0.88170687 3.95594151 0 0 Z " fill="#0050AE" transform="translate(1178,379)"/>
<path d="M0 0 C2.64 0 5.28 0 8 0 C8 15.51 8 31.02 8 47 C7.67 46.34 7.34 45.68 7 45 C4.69 45 2.38 45 0 45 C0 30.15 0 15.3 0 0 Z " fill="#0054B1" transform="translate(1038,201)"/>
<path d="M0 0 C3.22980084 2.886205 4.77566051 4.77859609 5.5625 9.0625 C4.87020639 12.67781108 3.54408967 14.38108416 1 17 C-1.85324437 18.42662219 -3.83454549 18.31033868 -7 18 C-9.89839328 16.45419025 -11.54079398 15.27883538 -12.671875 12.12890625 C-13.41273528 8.20975539 -13.33323283 6.540067 -11.1875 3.0625 C-7.53892032 -0.37758941 -4.98519534 -0.59146385 0 0 Z " fill="#ABDBFE" transform="translate(257,899)"/>
<path d="M0 0 C2.69990662 1.79993774 4.5418865 3.083773 6 6 C6.41314256 10.6478538 5.78987316 13.24440152 3 17 C-0.10048928 18.55024464 -2.57894218 18.28992015 -6 18 C-8.875 16.4375 -8.875 16.4375 -11 14 C-12.14888518 10.05070721 -12.43129396 7.97041141 -10.75 4.1875 C-7.52250351 0.15312939 -5.01049933 -0.60125992 0 0 Z " fill="#ABDBFE" transform="translate(256,854)"/>
<path d="M0 0 C3.74785043 2.08213913 4.79482295 3.2947039 6 7.4375 C6 11.40316899 5.44976383 12.93779521 3 16 C-0.51253146 18.34168764 -1.86469356 18.49623677 -6 18 C-8.69990662 16.20006226 -10.5418865 14.916227 -12 12 C-12.43023798 8.12785818 -12.31669086 6.47503629 -10.125 3.1875 C-6.82233621 -0.21230096 -4.68601439 -0.45941318 0 0 Z " fill="#AADAFE" transform="translate(256,809)"/>
<path d="M0 0 C3.34265205 1.20706879 3.94704566 1.92056849 6 5 C6.55377603 9.90487343 6.75639171 11.89979388 3.9375 16 C0.22192774 18.52975133 -1.5882483 18.7878128 -6 18 C-8.91963173 16.01216563 -10.61102978 14.5685303 -11.48046875 11.0625 C-11.76091862 7.06040455 -11.24214679 5.34185429 -8.875 2 C-5.50172663 -0.34662495 -4.02250703 -0.59909679 0 0 Z " fill="#ABDBFE" transform="translate(210,809)"/>
<path d="M0 0 C2.9375 2.0625 2.9375 2.0625 5 5 C5.69151325 9.30274909 5.51557405 11.20945312 3.125 14.875 C0.62545713 17.37454287 -0.32175958 17.90956794 -3.8125 18.375 C-7 18 -7 18 -9.875 16 C-12.24214679 12.65814571 -12.76091862 10.93959545 -12.48046875 6.9375 C-10.88407391 0.50000534 -5.96284033 -1.06479292 0 0 Z " fill="#ABDBFE" transform="translate(211,899)"/>
<path d="M0 0 C4.05990199 1.35330066 5.33761335 2.37620857 7.375 6.125 C8.08753588 10.55855658 7.90827109 12.3654927 5.3125 16.0625 C1.6154927 18.65827109 -0.19144342 18.83753588 -4.625 18.125 C-7.5625 16.6875 -7.5625 16.6875 -9.625 14.125 C-10.40649882 10.95164114 -10.41388598 8.29744862 -9.625 5.125 C-7.20607369 1.35181566 -4.48720842 0.15473132 0 0 Z " fill="#ABDBFE" transform="translate(208.625,853.875)"/>
<path d="M0 0 C0.66 0 1.32 0 2 0 C2.01030746 0.97052811 2.02061493 1.94105621 2.03123474 2.94099426 C2.1289107 12.07884829 2.2316393 21.21663334 2.33933926 30.35437489 C2.39454827 35.05238812 2.4479651 39.7504076 2.49731445 44.44848633 C2.54498774 48.98077035 2.59733172 53.51297838 2.65294075 58.04517174 C2.67335085 59.77593791 2.69206616 61.5067249 2.70907402 63.23752785 C2.73314776 65.65818447 2.7631983 68.07869754 2.79467773 70.49926758 C2.8004332 71.21783936 2.80618866 71.93641113 2.81211853 72.67675781 C2.85721107 75.71904314 3.0300445 78.09013349 4 81 C3.34 81 2.68 81 2 81 C-0.03584791 76.76807615 -0.27681982 73.23441526 -0.3347168 68.56347656 C-0.34636871 67.83283493 -0.35802063 67.1021933 -0.37002563 66.34941101 C-0.40586825 63.94650526 -0.42783114 61.54369945 -0.44921875 59.140625 C-0.47047767 57.46863925 -0.49244517 55.79666237 -0.51509094 54.12469482 C-0.56041523 50.62792915 -0.59923337 47.13117282 -0.63305664 43.63427734 C-0.67673452 39.14249709 -0.73346163 34.65100051 -0.7946043 30.15942764 C-0.84067097 26.71094054 -0.88151061 23.26240811 -0.92057228 19.81383514 C-0.9396694 18.156741 -0.96003347 16.49966097 -0.98166466 14.84259796 C-1.01068768 12.5347324 -1.03307069 10.22690108 -1.0534668 7.91894531 C-1.06741989 6.60388 -1.08137299 5.2888147 -1.0957489 3.93389893 C-1 1 -1 1 0 0 Z " fill="#0566C6" transform="translate(928,462)"/>
<path d="M0 0 C0.94875 0.825 1.8975 1.65 2.875 2.5 C4.24726098 3.66988714 5.62258044 4.83619096 7 6 C7.79535156 6.67289063 8.59070313 7.34578125 9.41015625 8.0390625 C14.39383555 12.15233104 19.09125183 15.3738897 25 18 C24.67 18.66 24.34 19.32 24 20 C14.66693023 15.66678904 6.69399482 9.9046109 0 2 C0 1.34 0 0.68 0 0 Z " fill="#E2F4FC" transform="translate(325,836)"/>
<path d="M0 0 C0.33 0 0.66 0 1 0 C1 9.24 1 18.48 1 28 C0.67 28 0.34 28 0 28 C-0.01981934 27.37432129 -0.03963867 26.74864258 -0.06005859 26.10400391 C-0.15514226 23.27723481 -0.26488746 20.45122185 -0.375 17.625 C-0.4059375 16.64015625 -0.436875 15.6553125 -0.46875 14.640625 C-0.50742188 13.69960938 -0.54609375 12.75859375 -0.5859375 11.7890625 C-0.6173584 10.91975098 -0.6487793 10.05043945 -0.68115234 9.15478516 C-0.81229433 6.79038206 -0.81229433 6.79038206 -3 5 C-2.03114628 3.31503702 -1.03013277 1.64821244 0 0 Z " fill="#C7E9FB" transform="translate(1168,416)"/>
<path d="M0 0 C2.44184828 1.4244115 4.73447085 2.76987473 6.875 4.625 C9.80538094 6.52112884 12.56970509 6.67016395 16 7 C16 7.33 16 7.66 16 8 C9.94859592 8.41733821 6.82841331 8.10415132 2 4 C2 3.34 2 2.68 2 2 C1.34 2 0.68 2 0 2 C0 1.34 0 0.68 0 0 Z " fill="#0F5BC1" transform="translate(1200,321)"/>
<path d="M0 0 C3.32368224 1.10789408 3.61563093 1.48436217 5.25 4.375 C5.60578125 4.98085937 5.9615625 5.58671875 6.328125 6.2109375 C7 8 7 8 6 11 C4.9944239 9.54550599 3.99569565 8.08627557 3 6.625 C2.443125 5.81289062 1.88625 5.00078125 1.3125 4.1640625 C0 2 0 2 0 0 Z " fill="#1160C3" transform="translate(1264,201)"/>
</svg>
