<?xml version="1.0" encoding="UTF-8"?>
<svg version="1.1" xmlns="http://www.w3.org/2000/svg" width="1242" height="622">
<path d="M0 0 C409.86 0 819.72 0 1242 0 C1242 205.26 1242 410.52 1242 622 C832.14 622 422.28 622 0 622 C0 416.74 0 211.48 0 0 Z " fill="#FEFEFE" transform="translate(0,0)"/>
<path d="M0 0 C-1.49477841 7.24626083 -3.52519962 14.24024467 -5.6875 21.3125 C-9.92941222 35.43313028 -13.62538236 49.64881494 -17 64 C-17.23315918 64.97904297 -17.46631836 65.95808594 -17.70654297 66.96679688 C-28.91091954 114.6821287 -32.32671004 165.27602471 -27 214 C-26.90348145 214.90959473 -26.80696289 215.81918945 -26.70751953 216.75634766 C-25.99749094 223.20489963 -25.0686994 229.60154554 -24 236 C-23.73823975 237.58095459 -23.73823975 237.58095459 -23.47119141 239.19384766 C-11.20095085 310.62306345 27.79385422 382.50758217 85.2578125 427.8125 C87.6918829 429.75420858 90.03674583 431.77013643 92.375 433.82519531 C117.12914969 455.40771958 147.51740806 472.92854621 178 485 C178.94617188 485.37898438 179.89234375 485.75796875 180.8671875 486.1484375 C181.57101562 486.42945313 182.27484375 486.71046875 183 487 C182.67 487.66 182.34 488.32 182 489 C179.29804075 489.40036231 176.68458695 489.66456495 173.96484375 489.8515625 C172.69861931 489.9476757 172.69861931 489.9476757 171.40681458 490.04573059 C168.58450356 490.25296506 165.76144297 490.44139134 162.9375 490.625 C161.96228394 490.6897049 160.98706787 490.75440979 159.9822998 490.82107544 C112.38090753 493.9049909 64.50822504 492.80814767 17.8125 482.25 C16.678125 481.99468506 15.54375 481.73937012 14.375 481.47631836 C-27.05874024 471.93883825 -68.48096149 455.88295225 -103.32177734 431.18847656 C-105.02367253 429.98323569 -106.73899345 428.79927483 -108.45703125 427.6171875 C-125.94174024 415.4799344 -141.62483954 401.4185125 -156.71966553 386.45455933 C-158.14290827 385.04418844 -159.5696896 383.63739122 -160.99658203 382.23071289 C-167.10269172 376.13169192 -172.64766121 369.76571583 -178 363 C-179.13769732 361.59869562 -180.27569273 360.19763316 -181.4140625 358.796875 C-195.33913172 341.36225285 -207.22358191 322.51840958 -218 303 C-218.44263184 302.20513184 -218.88526367 301.41026367 -219.34130859 300.59130859 C-233.55811144 274.89268654 -263.87065931 219.80112172 -259 189 C-257.47102912 186.32959084 -255.59889557 183.96838741 -253.6875 181.5625 C-253.14424072 180.86092773 -252.60098145 180.15935547 -252.04125977 179.43652344 C-250.91620585 177.98696928 -249.7858662 176.5415028 -248.65039062 175.10009766 C-247.13049466 173.16605253 -245.63178651 171.21795067 -244.140625 169.26171875 C-238.1562734 161.45380014 -231.81810742 154.08992566 -225 147 C-224.48147461 146.45956055 -223.96294922 145.91912109 -223.42871094 145.36230469 C-216.35863934 138.03714933 -209.11671647 131.17624464 -201 125 C-200.47857422 124.60216309 -199.95714844 124.20432617 -199.41992188 123.79443359 C-190.42116945 116.98693582 -180.96741805 111.27442539 -171 106 C-169.9171875 105.42121094 -168.834375 104.84242188 -167.71875 104.24609375 C-165 103 -165 103 -162 103 C-161.89977539 104.21655273 -161.79955078 105.43310547 -161.69628906 106.68652344 C-159.1478293 137.40143785 -156.16653617 167.72464442 -149.66650391 197.90234375 C-149.22138221 199.97109983 -148.78357708 202.04144343 -148.35302734 204.11328125 C-144.51387443 222.53204027 -139.08240194 240.22321407 -133 258 C-132.68417969 258.92925293 -132.36835938 259.85850586 -132.04296875 260.81591797 C-119.54501615 297.23261204 -101.41006795 333.09141845 -77 363 C-75.89785156 364.38832031 -75.89785156 364.38832031 -74.7734375 365.8046875 C-69.94430411 371.82830617 -64.84215867 377.53464575 -59.578125 383.17578125 C-57.78842178 385.13631978 -56.08810343 387.08837954 -54.4140625 389.140625 C-52.4128284 391.51101879 -50.49750462 393.46369429 -48.125 395.4375 C-45.56907307 397.61003789 -43.17827666 399.81294717 -40.875 402.25 C-35.97038301 407.23264499 -30.32825862 411.36456525 -24.79345703 415.61230469 C-23.13775749 416.89340953 -21.50158456 418.19486851 -19.87109375 419.5078125 C-10.72641429 426.77216834 -0.99274544 432.96876272 9 439 C9.66338379 439.4007373 10.32676758 439.80147461 11.01025391 440.21435547 C54.81870733 466.3813638 104.40772567 481.09838989 155 486.1875 C155.82419434 486.27161133 156.64838867 486.35572266 157.49755859 486.44238281 C164.00481855 487.04401461 170.46826847 487.0820675 177 487 C176.15219971 486.75467529 175.30439941 486.50935059 174.4309082 486.2565918 C111.15873098 467.8268521 51.26192755 441.0255442 0 399 C-0.96164062 398.21367187 -1.92328125 397.42734375 -2.9140625 396.6171875 C-15.76079851 385.99217399 -28.1458239 374.66957527 -39 362 C-39.98779512 360.89553349 -40.97752821 359.79279847 -41.96875 358.69140625 C-50.37231035 349.28292067 -57.8004513 339.34994567 -65 329 C-65.43376953 328.38753418 -65.86753906 327.77506836 -66.31445312 327.14404297 C-89.87735836 293.84416857 -105.951469 255.40267851 -116 216 C-116.25233398 215.01386719 -116.50466797 214.02773438 -116.76464844 213.01171875 C-119.82863914 200.84665307 -122.38692199 188.65799214 -124.25 176.25 C-124.40098145 175.24759277 -124.55196289 174.24518555 -124.70751953 173.21240234 C-127.26704314 155.05911823 -128.33213481 137.02891048 -128.26074219 118.7043457 C-128.24999564 115.43617263 -128.26072949 112.16854755 -128.2734375 108.90039062 C-128.2818401 96.21914438 -127.69259955 83.75358676 -126.24700928 71.15408325 C-126.03022445 69.26357706 -125.8312885 67.37104188 -125.63525391 65.47827148 C-125.35395388 62.81298688 -125.030931 60.15785731 -124.6875 57.5 C-124.54924805 56.20255859 -124.54924805 56.20255859 -124.40820312 54.87890625 C-123.67759005 49.33308304 -122.58362625 46.57509917 -118 43 C-113.50024553 39.74392767 -108.74545258 36.88173751 -104 34 C-103.24122559 33.5364209 -102.48245117 33.0728418 -101.70068359 32.59521484 C-70.95060796 13.96806499 -36.43215057 -0.56338377 0 0 Z " fill="#01A85F" transform="translate(327,72)"/>
<path d="M0 0 C0.10022461 1.21655273 0.20044922 2.43310547 0.30371094 3.68652344 C2.8521707 34.40143785 5.83346383 64.72464442 12.33349609 94.90234375 C12.77861779 96.97109983 13.21642292 99.04144343 13.64697266 101.11328125 C17.48612557 119.53204027 22.91759806 137.22321407 29 155 C29.31582031 155.92925293 29.63164062 156.85850586 29.95703125 157.81591797 C42.45498385 194.23261204 60.58993205 230.09141845 85 260 C86.10214844 261.38832031 86.10214844 261.38832031 87.2265625 262.8046875 C92.05569589 268.82830617 97.15784133 274.53464575 102.421875 280.17578125 C104.21157822 282.13631978 105.91189657 284.08837954 107.5859375 286.140625 C109.5871716 288.51101879 111.50249538 290.46369429 113.875 292.4375 C116.43092693 294.61003789 118.82172334 296.81294717 121.125 299.25 C126.02961699 304.23264499 131.67174138 308.36456525 137.20654297 312.61230469 C138.86224251 313.89340953 140.49841544 315.19486851 142.12890625 316.5078125 C151.27358571 323.77216834 161.00725456 329.96876272 171 336 C171.66338379 336.4007373 172.32676758 336.80147461 173.01025391 337.21435547 C221.15117724 365.96916975 282.3674361 386.11053033 339 384 C337.68 383.34 336.36 382.68 335 382 C339.17587745 380.60804085 341.13474776 382.17676781 345 384 C344.67 384.66 344.34 385.32 344 386 C341.29804075 386.40036231 338.68458695 386.66456495 335.96484375 386.8515625 C334.69861931 386.9476757 334.69861931 386.9476757 333.40681458 387.04573059 C330.58450356 387.25296506 327.76144297 387.44139134 324.9375 387.625 C323.96228394 387.6897049 322.98706787 387.75440979 321.9822998 387.82107544 C274.38090753 390.9049909 226.50822504 389.80814767 179.8125 379.25 C178.678125 378.99468506 177.54375 378.73937012 176.375 378.47631836 C134.94125976 368.93883825 93.51903851 352.88295225 58.67822266 328.18847656 C56.97632747 326.98323569 55.26100655 325.79927483 53.54296875 324.6171875 C36.05825976 312.4799344 20.37516046 298.4185125 5.28033447 283.45455933 C3.85709173 282.04418844 2.4303104 280.63739122 1.00341797 279.23071289 C-5.10269172 273.13169192 -10.64766121 266.76571583 -16 260 C-17.13769732 258.59869562 -18.27569273 257.19763316 -19.4140625 255.796875 C-33.33913172 238.36225285 -45.22358191 219.51840958 -56 200 C-56.44263184 199.20513184 -56.88526367 198.41026367 -57.34130859 197.59130859 C-71.55811144 171.89268654 -101.87065931 116.80112172 -97 86 C-95.47102912 83.32959084 -93.59889557 80.96838741 -91.6875 78.5625 C-91.14424072 77.86092773 -90.60098145 77.15935547 -90.04125977 76.43652344 C-88.91620585 74.98696928 -87.7858662 73.5415028 -86.65039062 72.10009766 C-85.13049466 70.16605253 -83.63178651 68.21795067 -82.140625 66.26171875 C-76.1562734 58.45380014 -69.81810742 51.08992566 -63 44 C-62.48147461 43.45956055 -61.96294922 42.91912109 -61.42871094 42.36230469 C-54.35863934 35.03714933 -47.11671647 28.17624464 -39 22 C-38.47857422 21.60216309 -37.95714844 21.20432617 -37.41992188 20.79443359 C-28.42116945 13.98693582 -18.96741805 8.27442539 -9 3 C-7.37578125 2.13181641 -7.37578125 2.13181641 -5.71875 1.24609375 C-3 0 -3 0 0 0 Z " fill="#01B5EC" transform="translate(165,175)"/>
<path d="M0 0 C-1.35294309 3.92700403 -3.08188728 6.5144319 -5.8125 9.625 C-11.9557243 16.94542831 -17.16862334 24.86889237 -22.5 32.7890625 C-23.77302558 34.66544916 -25.06316307 36.52567433 -26.375 38.375 C-54.00405268 77.38072142 -76.10300882 121.24716231 -90 167 C-90.21317871 167.69609375 -90.42635742 168.3921875 -90.64599609 169.109375 C-99.84089065 199.53233177 -104.23794832 231.05981172 -104.1875 262.8125 C-104.18609512 263.96276169 -104.18609512 263.96276169 -104.18466187 265.13626099 C-104.09845787 297.89505465 -99.11941907 328.80264498 -89 360 C-88.71930664 360.89090332 -88.43861328 361.78180664 -88.14941406 362.69970703 C-71.75946459 414.52765619 -39.67400406 461.20495058 -1 499 C-4.51025471 499 -5.23509989 498.36576283 -7.9921875 496.32421875 C-8.77335938 495.74889404 -9.55453125 495.17356934 -10.359375 494.58081055 C-11.18953125 493.95601807 -12.0196875 493.33122559 -12.875 492.6875 C-14.15503906 491.73387573 -14.15503906 491.73387573 -15.4609375 490.76098633 C-21.52569454 486.20499744 -27.38453484 481.46563099 -33.109375 476.4921875 C-35.77418199 474.19469174 -38.49413717 471.99903788 -41.25 469.8125 C-52.88059284 460.31642348 -63.4965896 449.58481731 -74.125 439 C-75.29675781 437.83525146 -75.29675781 437.83525146 -76.4921875 436.64697266 C-81.19979659 431.92617415 -85.66748308 427.06571209 -90 422 C-90.845625 421.03578125 -91.69125 420.0715625 -92.5625 419.078125 C-119.79470283 387.4817871 -142.45937165 351.15679362 -157 312 C-157.43441406 310.8759375 -157.86882812 309.751875 -158.31640625 308.59375 C-159.63078237 305.08874702 -160.83304808 301.55589314 -162 298 C-162.29374512 297.12182617 -162.58749023 296.24365234 -162.89013672 295.33886719 C-167.5063554 281.35464276 -170.92556424 267.43670906 -173.375 252.9375 C-173.49624237 252.22381256 -173.61748474 251.51012512 -173.74240112 250.77481079 C-174.56655089 245.85945492 -175.30672259 240.93540187 -176 236 C-176.14887161 234.97161514 -176.14887161 234.97161514 -176.30075073 233.92245483 C-178.09442379 221.22781133 -178.34083312 208.60652718 -178.31567383 195.79858398 C-178.31252719 192.46629654 -178.33602293 189.13491214 -178.36132812 185.80273438 C-178.53898053 124.96098775 -161.09833363 53.14750044 -127 2 C-124.53588867 1.15625 -124.53588867 1.15625 -121.41796875 0.5 C-120.26820557 0.25403076 -119.11844238 0.00806152 -117.93383789 -0.24536133 C-116.69754639 -0.49439209 -115.46125488 -0.74342285 -114.1875 -1 C-112.29535767 -1.39191528 -112.29535767 -1.39191528 -110.36499023 -1.79174805 C-99.62940167 -3.96957964 -88.88159794 -5.74711877 -78 -7 C-76.8759375 -7.13148437 -75.751875 -7.26296875 -74.59375 -7.3984375 C-49.8541618 -9.75762503 -23.58337717 -8.29305571 0 0 Z " fill="#F3AF39" transform="translate(505,54)"/>
<path d="M0 0 C7.58939775 7.60799921 11.15143239 16.42381045 11.37988281 27.1394043 C11.37827148 27.83590088 11.37666016 28.53239746 11.375 29.25 C11.37338867 29.98581299 11.37177734 30.72162598 11.37011719 31.47973633 C11.15379533 41.22164267 8.31998499 50.35197304 1.54296875 57.546875 C-9.7591358 68.24020109 -25.83890426 68.41043306 -40.49536133 68.87817383 C-50.49623788 69.21595257 -59.19107237 70.19107237 -66.5625 77.5625 C-69.81823716 83.08309779 -69.21885244 89.07909472 -69.25 95.3125 C-69.270625 96.33279297 -69.29125 97.35308594 -69.3125 98.40429688 C-69.35099135 105.84756119 -68.27017606 110.43258047 -64.25 116.75 C-57.05376048 123.94623952 -46.22803944 123.20057085 -36.75 123.25 C-35.77675781 123.270625 -34.80351563 123.29125 -33.80078125 123.3125 C-25.86013033 123.35468141 -17.07164552 122.67571594 -10.5 117.75 C-5.30885044 112.03973548 -4.64392378 106.82963665 -4.2109375 99.35546875 C-4 97 -4 97 -3 95 C1.62 95 6.24 95 11 95 C11.5824677 106.06688626 9.72233803 115.68566764 2.4921875 124.390625 C-6.60267332 134.1997419 -19.97879361 136.30821837 -32.76953125 137.2890625 C-45.89241076 137.59652081 -59.7300764 136.18003197 -71 129 C-71.9075 128.443125 -72.815 127.88625 -73.75 127.3125 C-85.69346986 115.03726709 -85.16033719 99.56287109 -85.16796875 83.57421875 C-85.17118935 81.97915112 -85.174554 80.38408377 -85.17805481 78.78901672 C-85.18401679 75.45642411 -85.18589773 72.12385733 -85.18530273 68.79125977 C-85.18520126 64.55187771 -85.19885201 60.31266367 -85.21607494 56.07332134 C-85.22727333 52.78132895 -85.22921956 49.48937619 -85.22869301 46.19736671 C-85.2298614 44.63589715 -85.23421785 43.07442617 -85.24202538 41.51297569 C-85.30991956 26.53388528 -85.02319995 11.41771448 -74 0 C-54.87151154 -14.6684782 -18.95925396 -14.74608641 0 0 Z " fill="#8D95A0" transform="translate(701,202)"/>
<path d="M0 0 C7.70265724 6.47647447 12.54635936 13.78057158 13.515625 24.046875 C13.59149482 26.18720249 13.59734888 28.31556672 13.57421875 30.45703125 C13.58582031 31.5253418 13.58582031 31.5253418 13.59765625 32.61523438 C13.56286905 42.19041103 10.8824443 51.6897575 4.5703125 59.0703125 C-7.44265251 70.40375626 -24.03197752 70.42602266 -39.57226562 71.0546875 C-47.59766416 71.48281646 -55.98859392 71.97833449 -62.3515625 77.46435547 C-67.47158261 83.20634985 -66.91578039 89.36544469 -66.98828125 96.64453125 C-67.01728516 97.59199219 -67.04628906 98.53945313 -67.07617188 99.515625 C-67.13997657 106.69119959 -66.2391746 114.3478392 -61.01293945 119.73291016 C-53.69169709 125.66783513 -44.31626247 125.35885264 -35.36328125 125.33203125 C-33.76709961 125.35620117 -33.76709961 125.35620117 -32.13867188 125.38085938 C-23.98720503 125.38583281 -14.9894552 124.81297573 -8.17578125 119.83203125 C-2.42911908 113.36703631 -1.89868315 105.29763644 -0.67578125 97.01953125 C3.94421875 97.01953125 8.56421875 97.01953125 13.32421875 97.01953125 C13.63210916 108.10358597 12.11822672 118.37792823 4.53515625 127.0703125 C-2.80165899 133.8955968 -10.9586135 136.45922292 -20.67578125 138.01953125 C-21.62066406 138.19742188 -22.56554687 138.3753125 -23.5390625 138.55859375 C-39.01772766 140.83316721 -56.70619449 139.2242175 -69.92578125 130.39453125 C-76.72674465 124.94274682 -80.08318182 117.43634933 -81.67578125 109.01953125 C-81.94778857 106.05394396 -81.97965593 103.1086497 -81.98217773 100.13183594 C-81.99050125 99.28187546 -81.99882477 98.43191498 -82.00740051 97.55619812 C-82.03134235 94.76788648 -82.04025344 91.97980953 -82.046875 89.19140625 C-82.05585378 87.23618506 -82.06497583 85.28096452 -82.07423401 83.32574463 C-82.09068394 79.23391049 -82.09841675 75.14215779 -82.10131836 71.05029297 C-82.10669606 65.83422603 -82.14436842 60.61893568 -82.19006252 55.40308762 C-82.21996022 51.36561358 -82.22704468 47.32832366 -82.22804451 43.2907486 C-82.23222206 41.36919857 -82.24455597 39.44764672 -82.26556206 37.52620697 C-82.39890525 24.27435861 -81.70793667 13.53920387 -72.67578125 3.01953125 C-65.64394255 -2.6475756 -58.48608003 -5.39130952 -49.67578125 -6.98046875 C-48.50015625 -7.20734375 -47.32453125 -7.43421875 -46.11328125 -7.66796875 C-31.39074456 -9.00638118 -12.29669328 -9.10134817 0 0 Z " fill="#8C94A0" transform="translate(1015.67578125,199.98046875)"/>
<path d="M0 0 C0.96711914 0.00676758 1.93423828 0.01353516 2.93066406 0.02050781 C9.47195549 0.11543712 15.75137094 0.38875177 22.0625 2.25 C22.90554688 2.49492187 23.74859375 2.73984375 24.6171875 2.9921875 C31.70633795 5.42706288 38.35866508 9.78867238 42.3125 16.3125 C43.0625 18.25 43.0625 18.25 43.0625 21.25 C43.7225 21.25 44.3825 21.25 45.0625 21.25 C45.16949219 20.50621094 45.27648437 19.76242188 45.38671875 18.99609375 C46.78856556 13.29957175 50.99993973 9.58494299 55.80859375 6.47265625 C70.79972343 -1.50051935 91.12802498 -2.42916973 107.5 1.875 C117.15802481 4.91926087 123.71697618 10.42631039 128.75 19.1875 C131.89534412 26.52663629 132.34380988 32.6768685 132.28955078 40.60131836 C132.28984283 41.72400116 132.29013489 42.84668396 132.29043579 44.00338745 C132.28904706 47.69895263 132.27350709 51.39431397 132.2578125 55.08984375 C132.25408076 57.6581664 132.25123455 60.22649048 132.24923706 62.79481506 C132.24239177 68.85429229 132.2266431 74.91368592 132.20653808 80.97313172 C132.18413726 87.87520809 132.17317516 94.77728803 132.16314721 101.67939174 C132.14227557 115.86963451 132.10672009 130.05981205 132.0625 144.25 C127.4425 144.25 122.8225 144.25 118.0625 144.25 C118.05703156 142.15980026 118.05703156 142.15980026 118.05145264 140.02737427 C118.0144586 126.87411853 117.9568725 113.72108673 117.87859726 100.56801033 C117.83888151 93.80640418 117.80645136 87.04491315 117.79150391 80.28320312 C117.77704904 73.75376293 117.74185251 67.22462252 117.69419098 60.6953392 C117.67939151 58.20840437 117.67145981 55.72141857 117.67061615 53.23443985 C117.66824056 49.74200957 117.64111084 46.250561 117.60839844 42.75830078 C117.6134288 41.73762009 117.61845917 40.71693939 117.62364197 39.66532898 C117.51153773 31.89337678 116.24931933 24.35909203 110.5 18.75 C109.695625 18.255 108.89125 17.76 108.0625 17.25 C107.0725 16.59 106.0825 15.93 105.0625 15.25 C98.75287465 13.26597336 92.90177719 12.89774055 86.3125 12.9375 C85.34111084 12.94313965 84.36972168 12.9487793 83.36889648 12.95458984 C73.77442257 13.11665053 64.58028329 13.59083537 57.39453125 20.63671875 C53.33839863 25.5492782 51.95310211 30.76184523 51.90428162 36.98297119 C51.8944928 37.9308551 51.88470398 38.87873901 51.87461853 39.85534668 C51.86886307 40.88824829 51.8631076 41.9211499 51.85717773 42.98535156 C51.84727814 44.07833557 51.83737854 45.17131958 51.82717896 46.29742432 C51.79557976 49.91180247 51.77081264 53.52619378 51.74609375 57.140625 C51.72552287 59.64597923 51.70452636 62.15133001 51.68312073 64.65667725 C51.63355734 70.57806977 51.58828838 76.49948527 51.54509836 82.42092681 C51.49083179 89.82492481 51.42990044 97.22886543 51.36914062 104.6328125 C51.26157608 117.83850288 51.16012725 131.04423268 51.0625 144.25 C46.4425 144.25 41.8225 144.25 37.0625 144.25 C37.05703156 142.15646935 37.05703156 142.15646935 37.05145264 140.02064514 C37.0144734 126.8523617 36.9569039 113.68430225 36.87859726 100.51619816 C36.83886548 93.7467162 36.80644341 86.9773495 36.79150391 80.20776367 C36.7770592 73.67184412 36.74188091 67.13622458 36.69419098 60.60046196 C36.67938096 58.10990954 36.67145921 55.6193061 36.67061615 53.12870979 C36.66824375 49.63367976 36.64113952 46.13963502 36.60839844 42.64477539 C36.6134288 41.62049942 36.61845917 40.59622345 36.62364197 39.54090881 C36.52716042 32.861578 35.08926592 28.1581152 32.0625 22.25 C31.5675 20.765 31.5675 20.765 31.0625 19.25 C29.41619807 18.13064927 29.41619807 18.13064927 27.0625 17.25 C26.46953125 17.00121094 25.8765625 16.75242188 25.265625 16.49609375 C11.70968245 11.05795401 -5.98215239 11.03760359 -19.44140625 16.66796875 C-25.33991994 20.40646334 -27.35058282 25.72045393 -28.9375 32.25 C-29.35037774 36.02210128 -29.37523516 39.76077602 -29.36987305 43.55297852 C-29.3800647 44.64669266 -29.39025635 45.7404068 -29.40075684 46.86726379 C-29.43076455 50.45453089 -29.4401343 54.0415304 -29.44921875 57.62890625 C-29.46607445 60.12711974 -29.48422588 62.6253248 -29.50361633 65.1235199 C-29.54618911 71.00933487 -29.57576897 76.89510108 -29.59893972 82.78102201 C-29.62874035 90.14642336 -29.6789192 97.51166308 -29.72851562 104.87695312 C-29.81444537 118.00124037 -29.88183671 131.12555192 -29.9375 144.25 C-34.5575 144.25 -39.1775 144.25 -43.9375 144.25 C-44.00710846 129.55898513 -44.06056628 114.86800562 -44.09293652 100.1768589 C-44.10836971 93.35466503 -44.12939083 86.53257586 -44.16381836 79.71044922 C-44.19704656 73.12280903 -44.2143697 66.53524875 -44.22213173 59.94752121 C-44.22766111 57.43820869 -44.23845858 54.92890189 -44.25469017 52.41963577 C-44.27656826 48.89632726 -44.27946252 45.37346352 -44.27807617 41.85009766 C-44.288862 40.82006622 -44.29964783 39.79003479 -44.3107605 38.72879028 C-44.26598725 28.16558387 -41.75337611 18.39293027 -34.33984375 10.5625 C-24.45628631 1.55698069 -12.98677131 -0.13163802 0 0 Z " fill="#8B939F" transform="translate(778.9375,191.75)"/>
<path d="M0 0 C9.00619632 6.85366374 13.33369449 14.15697362 14.9375 25.25 C15.04066202 27.6151858 15.09554811 29.982739 15.11450195 32.35009766 C15.12107315 33.03395538 15.12764435 33.71781311 15.13441467 34.4223938 C15.1540078 36.66961814 15.16578068 38.91677599 15.17578125 41.1640625 C15.17985678 41.93792675 15.1839323 42.711791 15.18813133 43.50910568 C15.20893564 47.60779293 15.22325989 51.70644729 15.23266602 55.80517578 C15.24370057 60.00782226 15.27808213 64.20993496 15.31783772 68.41239357 C15.34416313 71.67093798 15.35237198 74.92935837 15.35594749 78.18799973 C15.36077481 79.73554451 15.37227664 81.28308523 15.39098549 82.83052444 C15.52283352 94.46138361 14.62648948 106.14857661 6.87890625 115.5078125 C-3.04569967 124.41399809 -18.04257758 126.81232708 -30.625 129.75 C-48.45282736 132.90344951 -48.45282736 132.90344951 -62.26010513 143.17026424 C-64.78179468 148.74245959 -65.64667916 153.35478629 -65.60839844 159.44165039 C-65.61873611 160.31103241 -65.62907379 161.18041443 -65.63972473 162.07614136 C-65.66895141 164.91683992 -65.67064761 167.75681975 -65.671875 170.59765625 C-65.68687027 172.58020876 -65.70360023 174.56274885 -65.72198486 176.54527283 C-65.76551931 181.73852133 -65.78562661 186.93160135 -65.80072021 192.125 C-65.82034153 197.43434555 -65.86230585 202.74351048 -65.90234375 208.05273438 C-65.97749518 218.45176701 -66.02787779 228.85075893 -66.0625 239.25 C-71.0125 239.25 -75.9625 239.25 -81.0625 239.25 C-81.13266228 211.83317124 -81.18552356 184.41635599 -81.21793652 156.99945545 C-81.23338818 144.26856798 -81.25444519 131.53773637 -81.28881836 118.80688477 C-81.31877277 107.70730176 -81.33808736 96.60775923 -81.34476548 85.50813693 C-81.34866749 79.63404909 -81.35780235 73.76007702 -81.37969017 67.88602638 C-81.40015075 62.34981004 -81.4063145 56.81375644 -81.40182304 51.27750587 C-81.40264397 49.25274774 -81.40855225 47.22798379 -81.42011642 45.20325851 C-81.50422765 29.70802581 -81.50582498 15.57285035 -70.46875 3.5078125 C-54.29246877 -11.82913338 -18.17108334 -11.12143228 0 0 Z M-59.5 11.4375 C-60.11746094 11.96730469 -60.73492188 12.49710938 -61.37109375 13.04296875 C-66.32099307 19.5018443 -66.48799645 26.36578848 -66.40307617 34.1640625 C-66.40351425 35.2283699 -66.40395233 36.29267731 -66.40440369 37.38923645 C-66.40232437 40.88468175 -66.37903324 44.37963915 -66.35546875 47.875 C-66.34986976 50.30737038 -66.3456011 52.73974416 -66.34260559 55.17211914 C-66.33118073 61.55736723 -66.30173361 67.94240886 -66.26849365 74.32757568 C-66.23774202 80.8498658 -66.22408936 87.37218945 -66.20898438 93.89453125 C-66.17686186 106.67977531 -66.12627494 119.46487664 -66.0625 132.25 C-65.51676834 131.83432266 -64.97103668 131.41864532 -64.4087677 130.9903717 C-63.33208076 130.17541481 -63.33208076 130.17541481 -62.23364258 129.34399414 C-61.52291092 128.8045668 -60.81217926 128.26513947 -60.07991028 127.70936584 C-49.92687309 120.36480344 -35.55630431 118.18339634 -23.52734375 115.4453125 C-15.680239 113.64300973 -7.99996322 111.6280827 -2.5625 105.375 C0.14132339 99.74203459 1.18778691 94.58259929 1.19628906 88.35595703 C1.1997937 87.70614868 1.20329834 87.05634033 1.20690918 86.38684082 C1.21563819 84.26038604 1.2099076 82.13427008 1.203125 80.0078125 C1.20447452 78.51480038 1.20641744 77.0217887 1.20892334 75.52877808 C1.21186293 72.40700069 1.20761584 69.28533819 1.19824219 66.16357422 C1.18686817 62.18388747 1.19340144 58.20447116 1.20538712 54.22479439 C1.21265428 51.14307664 1.21029529 48.06142176 1.20513153 44.979702 C1.20380739 43.51344647 1.20539889 42.04718505 1.21009064 40.58093643 C1.41696099 25.32223753 1.41696099 25.32223753 -5.15234375 11.9765625 C-12.74968866 5.10943275 -23.61386034 5.04919535 -33.25 5 C-34.7359668 4.9690625 -34.7359668 4.9690625 -36.25195312 4.9375 C-44.4652979 4.8944136 -53.14374648 5.68269842 -59.5 11.4375 Z " fill="#8D95A1" transform="translate(1132.0625,198.75)"/>
<path d="M0 0 C0.87076172 0.00563965 1.74152344 0.0112793 2.63867188 0.01708984 C15.87882378 0.26129279 30.0197108 1.99953806 40.4296875 10.9765625 C48.50957863 19.78002598 50.93240142 30.63766166 50.5 42.3125 C45.55 42.3125 40.6 42.3125 35.5 42.3125 C35.40203125 41.22710937 35.3040625 40.14171875 35.203125 39.0234375 C35.05295324 37.57803435 34.90186268 36.13272647 34.75 34.6875 C34.688125 33.97464844 34.62625 33.26179688 34.5625 32.52734375 C33.87250802 26.25991656 31.74196037 22.18949008 26.8125 18.0625 C18.85017665 13.85598955 10.33287219 13.9746764 1.5 14 C0.3759375 13.98388672 -0.748125 13.96777344 -1.90625 13.95117188 C-10.22537122 13.94631258 -16.78691093 14.9746291 -23.875 19.4375 C-29.16333119 25.22948178 -29.94983182 32.39745303 -29.88818359 39.99414062 C-29.89606903 41.21800728 -29.89606903 41.21800728 -29.90411377 42.46659851 C-29.91719901 45.13418348 -29.90861684 47.80116012 -29.8984375 50.46875 C-29.90046154 52.34004835 -29.90337572 54.21134593 -29.90713501 56.0826416 C-29.91154283 59.99283402 -29.90517718 63.90281998 -29.89111328 67.81298828 C-29.87402237 72.80607796 -29.88387185 77.79868372 -29.90183067 82.79175568 C-29.9127103 86.65240068 -29.90920305 90.51293238 -29.9014473 94.37358093 C-29.89945683 96.21384235 -29.90186369 98.05411431 -29.90888596 99.8943634 C-29.91656963 102.4734696 -29.90480055 105.05180972 -29.88818359 107.63085938 C-29.89425629 108.37917526 -29.90032898 109.12749115 -29.90658569 109.89848328 C-29.83753454 115.73120931 -29.03101356 122.30561532 -25.15434837 126.9111557 C-17.24871921 133.83201606 -7.74795858 133.51346627 2.1875 133.5625 C3.21294922 133.583125 4.23839844 133.60375 5.29492188 133.625 C13.36001984 133.66575855 22.21748843 133.03407683 29 128.1875 C34.7123795 121.61826357 34.96841788 113.7114975 35.5 105.3125 C40.45 105.3125 45.4 105.3125 50.5 105.3125 C51.13169084 116.26180787 48.32485876 126.62631612 41.5 135.3125 C31.42190218 145.56740656 15.92703095 147.29176725 2.25 147.625 C-12.30118543 147.39881577 -25.80716855 145.3128081 -36.74609375 135.14453125 C-46.77505962 124.66884085 -45.95538365 108.76864827 -45.8984375 95.21875 C-45.90046474 93.49727252 -45.90338155 91.77579588 -45.90713501 90.05432129 C-45.91152781 86.46728238 -45.9052265 82.88046942 -45.89111328 79.29345703 C-45.87402322 74.73132585 -45.8838809 70.16972444 -45.90183067 65.60761261 C-45.91275148 62.05906291 -45.90918447 58.51063561 -45.9014473 54.96208191 C-45.89946813 53.28142736 -45.90182273 51.60076112 -45.90888596 49.92012024 C-45.95262947 36.59179639 -45.87829352 22.79653118 -36.5 12.3125 C-30.79536774 6.71715188 -25.21228616 4.07303661 -17.5 2.3125 C-16.27410156 1.96445313 -15.04820312 1.61640625 -13.78515625 1.2578125 C-9.17675229 0.11042716 -4.73272001 -0.03237787 0 0 Z " fill="#8E96A1" transform="translate(543.5,191.6875)"/>
<path d="M0 0 C1.10730469 -0.02449219 2.21460938 -0.04898438 3.35546875 -0.07421875 C11.37211357 -0.10247954 19.78602253 0.67340737 26.12768555 6.08349609 C32.0253079 12.3845088 33.02735478 20.01005952 33.125 28.375 C32.4750801 36.74142923 30.85344571 42.29701251 25.125 48.5625 C17.14581226 53.38325926 8.06065966 53.60356723 -1.00610352 53.96826172 C-13.01019372 54.51694788 -23.75575098 56.62883398 -33.875 63.375 C-33.97696696 56.98882792 -34.04670187 50.60286813 -34.09472656 44.21606445 C-34.11476081 42.04638829 -34.14199612 39.87676557 -34.17675781 37.70727539 C-34.225637 34.576851 -34.24805125 31.44714452 -34.265625 28.31640625 C-34.28627014 27.35666397 -34.30691528 26.39692169 -34.32818604 25.40809631 C-34.33057402 18.13425468 -32.88796921 11.87830253 -28.05078125 6.25390625 C-27.43589844 5.81949219 -26.82101562 5.38507813 -26.1875 4.9375 C-25.58550781 4.48503906 -24.98351562 4.03257812 -24.36328125 3.56640625 C-16.69109727 -0.10708843 -8.34586192 0.0096484 0 0 Z " fill="#FEFEFE" transform="translate(981.875,204.625)"/>
<path d="M0 0 C1.02544922 -0.020625 2.05089844 -0.04125 3.10742188 -0.0625 C12.57964102 -0.11036971 21.52369804 0.9637423 28.875 7.359375 C33.40388415 13.3158422 33.78514566 18.95629604 33.6875 26.1875 C33.69910156 27.04279297 33.71070313 27.89808594 33.72265625 28.77929688 C33.69293833 35.27266314 32.85316914 40.99240937 28.734375 46.2734375 C21.05718403 52.47976478 12.31290304 53.22301192 2.7019043 53.48950195 C-9.32758829 53.85701174 -20.63292952 55.09718146 -30.6875 62.25 C-31.6775 62.745 -31.6775 62.745 -32.6875 63.25 C-32.76380533 56.8271448 -32.81620679 50.40440731 -32.85229492 43.98120117 C-32.86734555 41.7978885 -32.88779074 39.61460589 -32.91381836 37.43139648 C-32.95036518 34.28621994 -32.96726398 31.14144451 -32.98046875 27.99609375 C-32.99595261 27.0260289 -33.01143646 26.05596405 -33.02738953 25.0565033 C-33.02912253 18.01702105 -31.77142845 13.56884902 -28 7.5625 C-20.25379451 -0.18370549 -10.3099711 0.05088203 0 0 Z " fill="#FEFEFE" transform="translate(663.6875,204.75)"/>
<path d="M0 0 C174.9 0 349.8 0 530 0 C530 1.32 530 2.64 530 4 C355.1 4 180.2 4 0 4 C0 2.68 0 1.36 0 0 Z " fill="#00B5EC" transform="translate(501,352)"/>
<path d="M0 0 C11.36 0 11.36 0 17 3 C18 4 18 4 18.1328125 5.92578125 C18.13023437 6.71339844 18.12765625 7.50101562 18.125 8.3125 C18.12886719 9.48232422 18.12886719 9.48232422 18.1328125 10.67578125 C18 13 18 13 17.4296875 15.23046875 C17.21699219 16.10638672 17.21699219 16.10638672 17 17 C17.33 17.33 17.66 17.66 18 18 C18.203125 20.1796875 18.203125 20.1796875 18.25 22.875 C18.27578125 23.75929688 18.3015625 24.64359375 18.328125 25.5546875 C18 28 18 28 16.671875 29.7578125 C11.51689653 33.58791333 6.88596947 32 0 32 C0 21.44 0 10.88 0 0 Z " fill="#9198A4" transform="translate(922,373)"/>
<path d="M0 0 C2.27457187 0.32627055 3.99419324 0.99873299 5.90625 2.2734375 C6.89625 1.6134375 7.88625 0.9534375 8.90625 0.2734375 C12.5537431 -0.05815278 15.00695334 -0.19987653 18.28125 1.5234375 C21.38375684 4.86459871 21.02625434 8.75258671 21.00390625 13.1328125 C21.00068359 14.24785156 20.99746094 15.36289062 20.99414062 16.51171875 C20.98576172 17.67058594 20.97738281 18.82945312 20.96875 20.0234375 C20.96423828 21.19777344 20.95972656 22.37210937 20.95507812 23.58203125 C20.94330094 26.47921822 20.92685326 29.37630204 20.90625 32.2734375 C18.92625 32.2734375 16.94625 32.2734375 14.90625 32.2734375 C14.57625 23.3634375 14.24625 14.4534375 13.90625 5.2734375 C12.25625 5.2734375 10.60625 5.2734375 8.90625 5.2734375 C8.57625 14.1834375 8.24625 23.0934375 7.90625 32.2734375 C6.25625 32.2734375 4.60625 32.2734375 2.90625 32.2734375 C2.88119385 31.49105713 2.8561377 30.70867676 2.83032227 29.90258789 C2.71475212 26.38018801 2.59185051 22.8580819 2.46875 19.3359375 C2.42943359 18.10423828 2.39011719 16.87253906 2.34960938 15.60351562 C2.30771484 14.43369141 2.26582031 13.26386719 2.22265625 12.05859375 C2.18599854 10.97457275 2.14934082 9.89055176 2.11157227 8.77368164 C2.18260735 6.3341745 2.18260735 6.3341745 0.90625 5.2734375 C-0.74375 5.2734375 -2.39375 5.2734375 -4.09375 5.2734375 C-4.42375 14.1834375 -4.75375 23.0934375 -5.09375 32.2734375 C-6.74375 32.2734375 -8.39375 32.2734375 -10.09375 32.2734375 C-10.20980098 27.69031666 -10.28095362 23.10757301 -10.34375 18.5234375 C-10.37726562 17.22148437 -10.41078125 15.91953125 -10.4453125 14.578125 C-10.45820312 13.32773437 -10.47109375 12.07734375 -10.484375 10.7890625 C-10.50532227 9.63696289 -10.52626953 8.48486328 -10.54785156 7.29785156 C-9.58915462 0.91272375 -5.71756393 -0.27734452 0 0 Z " fill="#929AA5" transform="translate(646.09375,372.7265625)"/>
<path d="M0 0 C0.99 0.05414063 0.99 0.05414063 2 0.109375 C2.66 0.15578125 3.32 0.2021875 4 0.25 C6.00030897 0.25 8.00246659 0.24986993 10 0.14453125 C10.66 0.11746094 11.32 0.09039062 12 0.0625 C12.66 0.02769531 13.32 -0.00710938 14 -0.04296875 C16.74069881 0.3585008 17.98536306 1.36898166 20 3.25 C20.45410156 5.42651367 20.45410156 5.42651367 20.390625 7.91796875 C20.37128906 9.25698242 20.37128906 9.25698242 20.3515625 10.62304688 C20.31804688 11.55181641 20.28453125 12.48058594 20.25 13.4375 C20.23195313 14.37787109 20.21390625 15.31824219 20.1953125 16.28710938 C20.1481655 18.60909889 20.08238231 20.9290369 20 23.25 C18.35 23.25 16.7 23.25 15 23.25 C14.67 17.31 14.34 11.37 14 5.25 C12.68 5.25 11.36 5.25 10 5.25 C9.67 11.19 9.34 17.13 9 23.25 C7.02 23.25 5.04 23.25 3 23.25 C3 16.98 3 10.71 3 4.25 C1.35 4.25 -0.3 4.25 -2 4.25 C-2 10.52 -2 16.79 -2 23.25 C-3.98 23.25 -5.96 23.25 -8 23.25 C-8.11644156 20.16698584 -8.18732432 17.08453877 -8.25 14 C-8.28351562 13.12730469 -8.31703125 12.25460937 -8.3515625 11.35546875 C-8.44995148 4.91099067 -8.44995148 4.91099067 -6.234375 1.65625 C-3.83759265 0.14778558 -2.7844189 -0.19577945 0 0 Z " fill="#939AA5" transform="translate(840,381.75)"/>
<path d="M0 0 C1.65 0 3.3 0 5 0 C5.09893453 4.07496103 5.17149694 8.14945656 5.21972656 12.2253418 C5.23983275 13.61153338 5.26712245 14.99764025 5.30175781 16.38354492 C5.35031225 18.37641906 5.37083972 20.36991389 5.390625 22.36328125 C5.41157227 23.56251221 5.43251953 24.76174316 5.45410156 25.99731445 C5 29 5 29 3.11645508 30.89208984 C0.69060928 32.16195814 -0.83804782 32.37242873 -3.5625 32.3125 C-4.32691406 32.30863281 -5.09132813 32.30476563 -5.87890625 32.30078125 C-8 32 -8 32 -11 30 C-12.05885037 26.8234489 -12.20049266 24.40011989 -12.25 21.0625 C-12.28867187 19.50208984 -12.28867187 19.50208984 -12.328125 17.91015625 C-11.95546187 14.60498923 -11.3689479 13.30535198 -9 11 C-6.35978784 9.92978016 -3.81654895 9.5540752 -1 9 C-0.67 6.03 -0.34 3.06 0 0 Z " fill="#939AA5" transform="translate(899,373)"/>
<path d="M0 0 C1.65 0 3.3 0 5 0 C5.09893453 4.07496103 5.17149694 8.14945656 5.21972656 12.2253418 C5.23983275 13.61153338 5.26712245 14.99764025 5.30175781 16.38354492 C5.35031225 18.37641906 5.37083972 20.36991389 5.390625 22.36328125 C5.41157227 23.56251221 5.43251953 24.76174316 5.45410156 25.99731445 C5 29 5 29 3.11645508 30.88989258 C0.70264728 32.15596526 -0.84831871 32.40255514 -3.5625 32.375 C-4.70912109 32.38660156 -4.70912109 32.38660156 -5.87890625 32.3984375 C-8 32 -8 32 -9.75390625 30.98046875 C-11.73371863 27.8338704 -11.4322587 24.53525506 -11.375 20.9375 C-11.38660156 20.20466797 -11.39820313 19.47183594 -11.41015625 18.71679688 C-11.3984375 16.58984375 -11.3984375 16.58984375 -11 13 C-7.71536341 10.81024227 -4.79303725 10.00193437 -1 9 C-0.67 6.03 -0.34 3.06 0 0 Z " fill="#8D95A1" transform="translate(705,373)"/>
<path d="M0 0 C3.0625 1.875 3.0625 1.875 5 5 C5.61129242 8.42760391 5.8343185 11.60518681 5 15 C1.27898386 18.70429248 -3.00602974 19.04527039 -8 20 C-8 23.96 -8 27.92 -8 32 C-9.65 32 -11.3 32 -13 32 C-13.09893453 27.92503897 -13.17149694 23.85054344 -13.21972656 19.7746582 C-13.23983275 18.38846662 -13.26712245 17.00235975 -13.30175781 15.61645508 C-13.35031225 13.62358094 -13.37083972 11.63008611 -13.390625 9.63671875 C-13.41157227 8.43748779 -13.43251953 7.23825684 -13.45410156 6.00268555 C-13 3 -13 3 -11.11206055 1.11450195 C-7.44488965 -0.82060788 -4.02460152 -0.73044369 0 0 Z " fill="#9199A4" transform="translate(797,373)"/>
<path d="M0 0 C0.7528125 -0.0103125 1.505625 -0.020625 2.28125 -0.03125 C5.46871676 0.73194627 6.5915478 1.84179872 8.5 4.5 C9.03125 8.03125 9.03125 8.03125 9 12 C9.0103125 13.3096875 9.020625 14.619375 9.03125 15.96875 C8.5 19.5 8.5 19.5 6.75 21.9375 C4.24451407 23.67742079 3.01914448 24.04135814 0 24 C-0.7528125 24.0103125 -1.505625 24.020625 -2.28125 24.03125 C-5.46871676 23.26805373 -6.5915478 22.15820128 -8.5 19.5 C-9.03125 15.96875 -9.03125 15.96875 -9 12 C-9.01546875 10.03546875 -9.01546875 10.03546875 -9.03125 8.03125 C-8.5 4.5 -8.5 4.5 -6.75 2.0625 C-4.24451407 0.32257921 -3.01914448 -0.04135814 0 0 Z " fill="#959CA7" transform="translate(1019.5,381.5)"/>
<path d="M0 0 C0.7528125 -0.0103125 1.505625 -0.020625 2.28125 -0.03125 C5.45090274 0.72768094 6.59449329 1.86817908 8.5 4.5 C8.9609375 7.8125 8.9609375 7.8125 8.875 11.5 C8.85566406 13.3253125 8.85566406 13.3253125 8.8359375 15.1875 C8.52718343 18.23195877 8.19813607 19.9949482 6.5 22.5 C4.18722219 23.65638891 2.69908779 23.69868928 0.125 23.75 C-0.64585937 23.77578125 -1.41671875 23.8015625 -2.2109375 23.828125 C-5.2579165 23.39135668 -6.45203943 22.8280628 -8.5 20.5 C-8.90837031 17.6924541 -9.06011224 15.36022379 -9 12.5625 C-9.01546875 11.84642578 -9.0309375 11.13035156 -9.046875 10.39257812 C-9.02136475 6.95188306 -8.75553356 4.86105523 -6.75 2.02734375 C-4.24733408 0.32848546 -2.99626885 -0.04104478 0 0 Z " fill="#939BA6" transform="translate(609.5,381.5)"/>
<path d="M0 0 C0.66 -0.00773437 1.32 -0.01546875 2 -0.0234375 C4.86388318 0.54710173 6.04220005 1.16333148 8 3.375 C8.37866276 6.35659657 8.51434905 8.9051562 8.4375 11.875 C8.44458984 12.64714844 8.45167969 13.41929687 8.45898438 14.21484375 C8.39514015 19.88224687 8.39514015 19.88224687 6.62133789 22.09423828 C4.38148836 23.86358787 2.82390104 23.7752134 0 23.75 C-0.86625 23.75773437 -1.7325 23.76546875 -2.625 23.7734375 C-5.49273022 23.29233802 -6.2053586 22.61297853 -8 20.375 C-8.3248229 17.44866753 -8.46433068 14.79710479 -8.4375 11.875 C-8.45748047 11.10285156 -8.47746094 10.33070313 -8.49804688 9.53515625 C-8.49319158 3.93214389 -8.49319158 3.93214389 -6.22265625 1.3671875 C-3.94941798 0.35242033 -2.47559296 -0.02901085 0 0 Z " fill="#8E96A1" transform="translate(953,381.625)"/>
<path d="M0 0 C0.76183594 -0.00773437 1.52367187 -0.01546875 2.30859375 -0.0234375 C5.32399057 0.50961358 6.53226978 1.04046234 8.5625 3.375 C8.96860815 6.3610893 9.12213414 8.8982623 9.0625 11.875 C9.07796875 12.64714844 9.0934375 13.41929687 9.109375 14.21484375 C9.07072156 19.79060205 9.07072156 19.79060205 6.81640625 22.3828125 C4.3597632 23.46424636 2.67686316 23.77717628 0 23.75 C-0.76441406 23.75773437 -1.52882813 23.76546875 -2.31640625 23.7734375 C-4.98558885 23.27204408 -5.74417773 22.46589522 -7.4375 20.375 C-7.7356028 17.45242357 -7.85632117 14.79154217 -7.8125 11.875 C-7.82410156 11.10285156 -7.83570313 10.33070313 -7.84765625 9.53515625 C-7.81807099 3.84492476 -7.81807099 3.84492476 -6.04516602 1.65576172 C-3.94294046 -0.01899535 -2.66359599 -0.02695038 0 0 Z " fill="#8D95A0" transform="translate(756.4375,381.625)"/>
<path d="M0 0 C2.5625 1.625 2.5625 1.625 4 4 C4.4452286 7.11660022 4.53397053 9.03217842 3 11.8125 C-0.18068454 13.70103144 -3.33469879 13.69956547 -7 14 C-7 15.65 -7 17.3 -7 19 C-5.35 18.67 -3.7 18.34 -2 18 C-1.67 17.01 -1.34 16.02 -1 15 C0.65 15 2.3 15 4 15 C3.6875 17.875 3.6875 17.875 3 21 C-0.06047632 23.04031755 -0.93495994 23.31593524 -4.4375 23.375 C-5.19933594 23.40335937 -5.96117187 23.43171875 -6.74609375 23.4609375 C-9.99678749 22.79615091 -11.07831475 21.69121917 -13 19 C-13.53125 15.46875 -13.53125 15.46875 -13.5 11.5 C-13.51546875 9.53546875 -13.51546875 9.53546875 -13.53125 7.53125 C-13 4 -13 4 -11.25 1.5625 C-7.59834366 -0.97337246 -4.27687846 -0.76905338 0 0 Z " fill="#949BA6" transform="translate(685,382)"/>
<path d="M0 0 C2.625 1.5625 2.625 1.5625 4 4 C3.78571429 10.21428571 3.78571429 10.21428571 1 13 C-1.65537372 13.56520003 -4.29144713 13.73788198 -7 14 C-7 15.65 -7 17.3 -7 19 C-5.35 19 -3.7 19 -2 19 C-2 18.01 -2 17.02 -2 16 C-0.35 16 1.3 16 3 16 C3.1875 18.375 3.1875 18.375 3 21 C-0.06047632 23.04031755 -0.93495994 23.31593524 -4.4375 23.375 C-5.19933594 23.40335937 -5.96117187 23.43171875 -6.74609375 23.4609375 C-9.99678749 22.79615091 -11.07831475 21.69121917 -13 19 C-13.53125 15.46875 -13.53125 15.46875 -13.5 11.5 C-13.51546875 9.53546875 -13.51546875 9.53546875 -13.53125 7.53125 C-13 4 -13 4 -11.25 1.5625 C-7.59378746 -0.97653649 -4.28127111 -0.76059212 0 0 Z " fill="#9199A4" transform="translate(539,382)"/>
<path d="M0 0 C0.76183594 -0.00773437 1.52367187 -0.01546875 2.30859375 -0.0234375 C5.3241193 0.50963634 6.53466365 1.03798681 8.5625 3.375 C8.94116276 6.35659657 9.07684905 8.9051562 9 11.875 C9.00708984 12.64714844 9.01417969 13.41929687 9.02148438 14.21484375 C8.95763295 19.8828856 8.95763295 19.8828856 7.18383789 22.09204102 C4.94951024 23.86005665 3.38333599 23.80830233 0.5625 23.8125 C-0.30375 23.83183594 -1.17 23.85117187 -2.0625 23.87109375 C-4.4375 23.375 -4.4375 23.375 -6.22265625 21.5390625 C-7.87566258 18.59447888 -7.93221201 16.69663781 -7.4375 13.375 C-4.4435264 9.90199062 -0.82945091 9.79730297 3.5625 9.375 C3.5625 7.725 3.5625 6.075 3.5625 4.375 C1.9125 4.705 0.2625 5.035 -1.4375 5.375 C-1.7675 6.365 -2.0975 7.355 -2.4375 8.375 C-4.0875 8.375 -5.7375 8.375 -7.4375 8.375 C-7.8033819 3.86245658 -7.8033819 3.86245658 -6.203125 1.73046875 C-3.99061099 0.0319237 -2.76519757 -0.02797839 0 0 Z " fill="#8F96A2" transform="translate(996.4375,381.625)"/>
<path d="M0 0 C2.5 1 2.5 1 4 3 C4.51618546 5.90131827 4.3343024 7.99127843 4 11 C1.09907498 12.93395001 0.10325263 13.30131941 -3.1875 13.625 C-4.445625 13.74875 -5.70375 13.8725 -7 14 C-6.67 15.32 -6.34 16.64 -6 18 C-4.35 18.33 -2.7 18.66 -1 19 C-1 18.01 -1 17.02 -1 16 C0.65 16 2.3 16 4 16 C3.625 18.9375 3.625 18.9375 3 22 C0.54617866 23.22691067 -1.19984103 23.20175931 -3.9375 23.25 C-4.81277344 23.27578125 -5.68804688 23.3015625 -6.58984375 23.328125 C-9.51846615 22.92941466 -10.18360722 22.2745181 -12 20 C-12.3248229 17.07366753 -12.46433068 14.42210479 -12.4375 11.5 C-12.45748047 10.72785156 -12.47746094 9.95570313 -12.49804688 9.16015625 C-12.49319158 3.55714389 -12.49319158 3.55714389 -10.22265625 0.9921875 C-6.72004926 -0.57136641 -3.75853994 -0.53913483 0 0 Z " fill="#8D95A1" transform="translate(878,382)"/>
<path d="M0 0 C2.38185385 2.09603139 2.29692208 4.32085388 2.5625 7.375 C0.9125 7.375 -0.7375 7.375 -2.4375 7.375 C-2.7675 6.385 -3.0975 5.395 -3.4375 4.375 C-5.0875 4.375 -6.7375 4.375 -8.4375 4.375 C-8.7675 11.965 -9.0975 19.555 -9.4375 27.375 C-7.4575 27.045 -5.4775 26.715 -3.4375 26.375 C-3.1075 25.385 -2.7775 24.395 -2.4375 23.375 C-0.7875 23.375 0.8625 23.375 2.5625 23.375 C2.25 26.25 2.25 26.25 1.5625 29.375 C-1.65580065 31.52053377 -2.70536507 31.67083868 -6.4375 31.6875 C-7.30375 31.70425781 -8.17 31.72101563 -9.0625 31.73828125 C-11.88756192 31.30615829 -12.7072724 30.59726107 -14.4375 28.375 C-16.30380915 24.6423817 -15.66548906 20.17029215 -15.6875 16.0625 C-15.708125 15.11181641 -15.72875 14.16113281 -15.75 13.18164062 C-15.7994702 4.33265909 -15.7994702 4.33265909 -12.4375 0.375 C-8.64277812 -1.52236094 -4.0257996 -1.03225631 0 0 Z " fill="#969DA8" transform="translate(519.4375,373.625)"/>
<path d="M0 0 C0.7528125 -0.0103125 1.505625 -0.020625 2.28125 -0.03125 C5.5656731 0.75516116 6.60260794 1.67955234 8.5 4.5 C8.98369632 7.76495014 8.87639719 10.95881156 8.75 14.25 C8.73195313 15.13816406 8.71390625 16.02632813 8.6953125 16.94140625 C8.64827374 19.12870848 8.58257009 21.31379816 8.5 23.5 C6.52 23.5 4.54 23.5 2.5 23.5 C2.5 17.23 2.5 10.96 2.5 4.5 C0.85 4.5 -0.8 4.5 -2.5 4.5 C-2.5 10.77 -2.5 17.04 -2.5 23.5 C-4.48 23.5 -6.46 23.5 -8.5 23.5 C-8.61644156 20.41698584 -8.68732432 17.33453877 -8.75 14.25 C-8.78351562 13.37730469 -8.81703125 12.50460937 -8.8515625 11.60546875 C-8.9498342 5.16867246 -8.9498342 5.16867246 -6.765625 1.921875 C-4.26435307 0.35211123 -2.93163178 -0.04015934 0 0 Z " fill="#969DA8" transform="translate(555.5,381.5)"/>
<path d="M0 0 C0.76183594 -0.00773437 1.52367187 -0.01546875 2.30859375 -0.0234375 C5.16580439 0.48165 6.45178301 1.39505718 8.5625 3.375 C9.01660156 5.55151367 9.01660156 5.55151367 8.953125 8.04296875 C8.93378906 9.38198242 8.93378906 9.38198242 8.9140625 10.74804688 C8.88054688 11.67681641 8.84703125 12.60558594 8.8125 13.5625 C8.79445313 14.50287109 8.77640625 15.44324219 8.7578125 16.41210938 C8.7106655 18.73409889 8.64488231 21.0540369 8.5625 23.375 C6.9125 23.375 5.2625 23.375 3.5625 23.375 C3.5625 17.105 3.5625 10.835 3.5625 4.375 C1.9125 4.705 0.2625 5.035 -1.4375 5.375 C-1.7675 11.315 -2.0975 17.255 -2.4375 23.375 C-4.0875 23.375 -5.7375 23.375 -7.4375 23.375 C-7.52456892 20.10433434 -7.57791241 16.83396635 -7.625 13.5625 C-7.65013672 12.63373047 -7.67527344 11.70496094 -7.70117188 10.74804688 C-7.71083984 9.85537109 -7.72050781 8.96269531 -7.73046875 8.04296875 C-7.7461792 7.22078857 -7.76188965 6.3986084 -7.77807617 5.55151367 C-7.06609419 1.00146392 -4.25056348 -0.04300739 0 0 Z " fill="#8D94A0" transform="translate(974.4375,381.625)"/>
<path d="M0 0 C1.66611905 -0.042721 3.33382885 -0.04063832 5 0 C6 1 6 1 6.09765625 2.84765625 C6.04882812 5.92382812 6.04882812 5.92382812 6 9 C7.65 9 9.3 9 11 9 C11 10.32 11 11.64 11 13 C9.35 13 7.7 13 6 13 C6 17.95 6 22.9 6 28 C7.65 28 9.3 28 11 28 C11 29.32 11 30.64 11 32 C7.75 32.3125 7.75 32.3125 4 32 C0.97279827 29.18598149 0.06470864 27.58820156 -0.390625 23.44921875 C-0.34421875 22.20785156 -0.2978125 20.96648437 -0.25 19.6875 C-0.21390625 18.43324219 -0.1778125 17.17898438 -0.140625 15.88671875 C-0.07101562 14.45779297 -0.07101562 14.45779297 0 13 C-1.32 13 -2.64 13 -4 13 C-4 11.68 -4 10.36 -4 9 C-2.68 9 -1.36 9 0 9 C0 6.03 0 3.06 0 0 Z " fill="#959CA7" transform="translate(571,373)"/>
<path d="M0 0 C2.5625 1.75 2.5625 1.75 4 4 C4 5.32 4 6.64 4 8 C2.35 8 0.7 8 -1 8 C-1.33 7.01 -1.66 6.02 -2 5 C-3.65 4.67 -5.3 4.34 -7 4 C-7 8.95 -7 13.9 -7 19 C-5.35 18.67 -3.7 18.34 -2 18 C-1.67 17.01 -1.34 16.02 -1 15 C0.65 15 2.3 15 4 15 C4.31898502 17.95061143 4.4433581 19.44098326 2.5625 21.8125 C-1.19839151 23.55535216 -4.91668853 23.57903312 -9 23 C-12 21 -12 21 -13 18 C-13.12016328 15.85662235 -13.17531664 13.70920876 -13.1875 11.5625 C-13.20167969 10.42941406 -13.21585938 9.29632813 -13.23046875 8.12890625 C-13.00904861 5.12284643 -12.6672656 3.47457316 -11 1 C-7.54634594 -0.72682703 -3.77641432 -0.48965941 0 0 Z " fill="#949CA6" transform="translate(740,382)"/>
<path d="M0 0 C0.79921875 0.02707031 1.5984375 0.05414063 2.421875 0.08203125 C3.02515625 0.11683594 3.6284375 0.15164063 4.25 0.1875 C4.25 1.5075 4.25 2.8275 4.25 4.1875 C1.94 4.5175 -0.37 4.8475 -2.75 5.1875 C-3.08 11.1275 -3.41 17.0675 -3.75 23.1875 C-5.4 23.1875 -7.05 23.1875 -8.75 23.1875 C-8.86608726 19.91696483 -8.93720711 16.6469582 -9 13.375 C-9.03351562 12.44623047 -9.06703125 11.51746094 -9.1015625 10.56054688 C-9.11445312 9.66787109 -9.12734375 8.77519531 -9.140625 7.85546875 C-9.16157227 7.03328857 -9.18251953 6.2111084 -9.20410156 5.36401367 C-8.75 3.1875 -8.75 3.1875 -6.87304688 1.4140625 C-4.35885677 -0.03847787 -2.87763741 -0.12695459 0 0 Z " fill="#8C94A0" transform="translate(594.75,381.8125)"/>
<path d="M0 0 C0.90105469 0.02707031 1.80210937 0.05414063 2.73046875 0.08203125 C3.76107422 0.13423828 3.76107422 0.13423828 4.8125 0.1875 C4.4825 1.5075 4.1525 2.8275 3.8125 4.1875 C1.8325 4.5175 -0.1475 4.8475 -2.1875 5.1875 C-2.5175 11.1275 -2.8475 17.0675 -3.1875 23.1875 C-4.8375 23.1875 -6.4875 23.1875 -8.1875 23.1875 C-8.27456892 19.91683434 -8.32791241 16.64646635 -8.375 13.375 C-8.40013672 12.44623047 -8.42527344 11.51746094 -8.45117188 10.56054688 C-8.46083984 9.66787109 -8.47050781 8.77519531 -8.48046875 7.85546875 C-8.4961792 7.03328857 -8.51188965 6.2111084 -8.52807617 5.36401367 C-7.74064375 0.33178422 -4.54081589 -0.1769149 0 0 Z " fill="#8C949F" transform="translate(813.1875,381.8125)"/>
<path d="M0 0 C1.65 0 3.3 0 5 0 C5 7.59 5 15.18 5 23 C3.35 23 1.7 23 0 23 C0 15.41 0 7.82 0 0 Z " fill="#8B939F" transform="translate(821,382)"/>
<path d="M0 0 C1.65 0 3.3 0 5 0 C5 7.59 5 15.18 5 23 C3.35 23 1.7 23 0 23 C0 15.41 0 7.82 0 0 Z " fill="#9198A3" transform="translate(716,382)"/>
<path d="M0 0 C1.65 0 3.3 0 5 0 C6 1 6 1 6.09765625 4.16015625 C6.08605469 5.44792969 6.07445312 6.73570312 6.0625 8.0625 C6.05347656 9.35285156 6.04445313 10.64320313 6.03515625 11.97265625 C6.02355469 12.97167969 6.01195312 13.97070312 6 15 C4.02 15 2.04 15 0 15 C0 10.05 0 5.1 0 0 Z " fill="#FCFCFC" transform="translate(754,386)"/>
<path d="M0 0 C1.65 0 3.3 0 5 0 C5 4.95 5 9.9 5 15 C3.02 15 1.04 15 -1 15 C-1.02685412 12.68756208 -1.04632841 10.3750373 -1.0625 8.0625 C-1.07410156 6.77472656 -1.08570313 5.48695313 -1.09765625 4.16015625 C-1 1 -1 1 0 0 Z " fill="#F8F8F9" transform="translate(607,386)"/>
<path d="M0 0 C1.65 0 3.3 0 5 0 C5 4.95 5 9.9 5 15 C3.35 15 1.7 15 0 15 C-1 14 -1 14 -1.1328125 11.09375 C-1.13023437 9.9078125 -1.12765625 8.721875 -1.125 7.5 C-1.12757813 6.3140625 -1.13015625 5.128125 -1.1328125 3.90625 C-1 1 -1 1 0 0 Z " fill="#F9F9FA" transform="translate(951,386)"/>
<path d="M0 0 C0.02685412 2.31243792 0.04632841 4.6249627 0.0625 6.9375 C0.07410156 8.22527344 0.08570313 9.51304687 0.09765625 10.83984375 C0 14 0 14 -1 15 C-2.65 15 -4.3 15 -6 15 C-6 10.71 -6 6.42 -6 2 C-1 0 -1 0 0 0 Z " fill="#F7F8F8" transform="translate(899,386)"/>
<path d="M0 0 C0.02685412 2.31243792 0.04632841 4.6249627 0.0625 6.9375 C0.07410156 8.22527344 0.08570313 9.51304687 0.09765625 10.83984375 C0 14 0 14 -1 15 C-2.65 15 -4.3 15 -6 15 C-6 10.71 -6 6.42 -6 2 C-1 0 -1 0 0 0 Z " fill="#F7F8F8" transform="translate(705,386)"/>
<path d="M0 0 C2.33294775 -0.04241723 4.66702567 -0.04092937 7 0 C8 1 8 1 8.1328125 2.8125 C8.13023437 3.534375 8.12765625 4.25625 8.125 5 C8.12757813 5.721875 8.13015625 6.44375 8.1328125 7.1875 C8 9 8 9 7 10 C4.66702567 10.04092937 2.33294775 10.04241723 0 10 C0 6.7 0 3.4 0 0 Z " fill="#F2F3F4" transform="translate(927,391)"/>
<path d="M0 0 C1.65 0 3.3 0 5 0 C5 4.95 5 9.9 5 15 C3.35 15 1.7 15 0 15 C0 10.05 0 5.1 0 0 Z " fill="#FEFEFE" transform="translate(1017,386)"/>
<path d="M0 0 C2.5 0.125 2.5 0.125 3.5 1.125 C3.57179964 2.64428038 3.58392007 4.16667482 3.5625 5.6875 C3.55347656 6.51378906 3.54445313 7.34007812 3.53515625 8.19140625 C3.51775391 9.14853516 3.51775391 9.14853516 3.5 10.125 C1.19 10.785 -1.12 11.445 -3.5 12.125 C-3.52687279 10.31257948 -3.54633715 8.50004767 -3.5625 6.6875 C-3.57410156 5.67816406 -3.58570313 4.66882813 -3.59765625 3.62890625 C-3.46606923 0.25501505 -3.37011816 0.16850591 0 0 Z " fill="#FBFCFC" transform="translate(792.5,376.875)"/>
<path d="M0 0 C1.99954746 -0.04254356 4.00041636 -0.04080783 6 0 C7 1 7 1 7.1875 3.9375 C7 7 7 7 5 9 C2.375 9.125 2.375 9.125 0 9 C0 6.03 0 3.06 0 0 Z " fill="#FBFBFB" transform="translate(928,378)"/>
<path d="M0 0 C1.875 1.5 1.875 1.5 3 3 C1.35 3 -0.3 3 -2 3 C-2 3.99 -2 4.98 -2 6 C-3.65 6 -5.3 6 -7 6 C-7.33 4.35 -7.66 2.7 -8 1 C-5.20129973 -0.39935013 -3.09501208 -0.25265405 0 0 Z " fill="#F1F2F3" transform="translate(879,395)"/>
<path d="M0 0 C1.11375 0.185625 1.11375 0.185625 2.25 0.375 C0.9751791 3.21883123 -0.20137078 5.51254018 -2.75 7.375 C-4.9375 7.0625 -4.9375 7.0625 -6.75 6.375 C-3.42692308 0.46730769 -3.42692308 0.46730769 0 0 Z " fill="#989FAA" transform="translate(682.75,372.625)"/>
<path d="M0 0 C1.2065625 0.0309375 1.2065625 0.0309375 2.4375 0.0625 C2.4375 1.7125 2.4375 3.3625 2.4375 5.0625 C0.4575 5.3925 -1.5225 5.7225 -3.5625 6.0625 C-3.605221 4.39638095 -3.60313832 2.72867115 -3.5625 1.0625 C-2.5625 0.0625 -2.5625 0.0625 0 0 Z " fill="#F1F1F3" transform="translate(534.5625,385.9375)"/>
<path d="M0 0 C0 1.98 0 3.96 0 6 C-1.65 6 -3.3 6 -5 6 C-5.33 4.68 -5.66 3.36 -6 2 C-3 0 -3 0 0 0 Z " fill="#F6F7F7" transform="translate(1000,395)"/>
<path d="M0 0 C1.67542976 0.28604898 3.34385343 0.61781233 5 1 C5 2.32 5 3.64 5 5 C3.02 5.33 1.04 5.66 -1 6 C-1.042721 4.33388095 -1.04063832 2.66617115 -1 1 C-0.67 0.67 -0.34 0.34 0 0 Z " fill="#FBFBFC" transform="translate(872,386)"/>
<path d="M0 0 C1.65 0 3.3 0 5 0 C5 1.65 5 3.3 5 5 C3.35 5 1.7 5 0 5 C0 3.35 0 1.7 0 0 Z " fill="#FCFCFD" transform="translate(678,386)"/>
<path d="M0 0 C1.65 0 3.3 0 5 0 C5 1.65 5 3.3 5 5 C3.35 5 1.7 5 0 5 C0 3.35 0 1.7 0 0 Z " fill="#8A929E" transform="translate(821,375)"/>
<path d="M0 0 C1.65 0 3.3 0 5 0 C5 1.65 5 3.3 5 5 C3.35 5 1.7 5 0 5 C0 3.35 0 1.7 0 0 Z " fill="#8A929E" transform="translate(716,375)"/>
</svg>
